SplineFontDB: 3.0
FontName: gresgmodern
FullName: gresgmodern
FamilyName: gresgmodern
Weight: Normal

StartChar: .notdef
Encoding: 65536 -1 0
Width: 207
VWidth: 505
Flags: W
HStem: 234 4<14 193> 262 40<70.4186 108.999> 316 21G<82.5 95> 316 21G<82.5 95> 498 15<67.345 111.664> 530 3<14 193>
VStem: 10 4<238 530> 70 39<262.003 301.974> 75 13<327.742 369.379> 125 38<426.049 491.151> 193 4<238 530>
LayerCount: 2
Fore
SplineSet
70 283 m 0xcf60
 70 285 70 285 72 287 c 2
 85 299 l 2
 87 301 88 302 90 302 c 0
 92 302 92 301 94 299 c 2
 107 287 l 2
 109 285 109 284 109 282 c 0
 109 280 108 280 106 278 c 2
 94 265 l 2
 92 263 92 262 90 262 c 0
 88 262 87 262 85 264 c 2
 72 279 l 2
 70 281 71 281 70 283 c 0xcf60
49 482 m 1
 49 494 l 1
 55 499 61 503 66 505 c 0
 77 510 89 513 101 513 c 0
 119 513 135 509 146 501 c 0
 157 493 163 482 163 468 c 0
 163 460 161 451 156 443 c 0
 151 435 143 423 130 409 c 0
 117 395 106 385 99 376 c 0
 92 367 88 358 88 350 c 0
 88 344 90 333 95 316 c 1
 86 316 l 1
 79 333 75 345 75 354 c 0xeee0
 75 367 83 386 100 410 c 0
 117 434 125 453 125 466 c 0
 125 476 121 484 114 489 c 0
 107 494 98 498 87 498 c 0
 79 498 72 495 66 493 c 0
 61 491 55 487 49 482 c 1
14 238 m 1
 193 238 l 1
 193 530 l 1
 14 530 l 1
 14 238 l 1
10 234 m 1
 10 533 l 1
 197 533 l 1
 197 234 l 1
 10 234 l 1
EndSplineSet
Validated: 1
EndChar

StartChar: .null
Encoding: 65537 -1 1
Width: 207
VWidth: 505
Flags: W
HStem: 234 4<14 193> 262 40<70.4186 108.999> 316 21G<82.5 95> 316 21G<82.5 95> 498 15<67.345 111.664> 530 3<14 193>
VStem: 10 4<238 530> 70 39<262.003 301.974> 75 13<327.742 369.379> 125 38<426.049 491.151> 193 4<238 530>
LayerCount: 2
Fore
SplineSet
70 283 m 0xcf60
 70 285 70 285 72 287 c 2
 85 299 l 2
 87 301 88 302 90 302 c 0
 92 302 92 301 94 299 c 2
 107 287 l 2
 109 285 109 284 109 282 c 0
 109 280 108 280 106 278 c 2
 94 265 l 2
 92 263 92 262 90 262 c 0
 88 262 87 262 85 264 c 2
 72 279 l 2
 70 281 71 281 70 283 c 0xcf60
49 482 m 1
 49 494 l 1
 55 499 61 503 66 505 c 0
 77 510 89 513 101 513 c 0
 119 513 135 509 146 501 c 0
 157 493 163 482 163 468 c 0
 163 460 161 451 156 443 c 0
 151 435 143 423 130 409 c 0
 117 395 106 385 99 376 c 0
 92 367 88 358 88 350 c 0
 88 344 90 333 95 316 c 1
 86 316 l 1
 79 333 75 345 75 354 c 0xeee0
 75 367 83 386 100 410 c 0
 117 434 125 453 125 466 c 0
 125 476 121 484 114 489 c 0
 107 494 98 498 87 498 c 0
 79 498 72 495 66 493 c 0
 61 491 55 487 49 482 c 1
14 238 m 1
 193 238 l 1
 193 530 l 1
 14 530 l 1
 14 238 l 1
10 234 m 1
 10 533 l 1
 197 533 l 1
 197 234 l 1
 10 234 l 1
EndSplineSet
Validated: 1
EndChar

StartChar: uni0000
Encoding: 0 0 2
Width: 207
VWidth: 505
Flags: W
HStem: 234 4<14 193> 262 40<70.4186 108.999> 316 21G<82.5 95> 316 21G<82.5 95> 498 15<67.345 111.664> 530 3<14 193>
VStem: 10 4<238 530> 70 39<262.003 301.974> 75 13<327.742 369.379> 125 38<426.049 491.151> 193 4<238 530>
LayerCount: 2
Fore
SplineSet
70 283 m 0xcf60
 70 285 70 285 72 287 c 2
 85 299 l 2
 87 301 88 302 90 302 c 0
 92 302 92 301 94 299 c 2
 107 287 l 2
 109 285 109 284 109 282 c 0
 109 280 108 280 106 278 c 2
 94 265 l 2
 92 263 92 262 90 262 c 0
 88 262 87 262 85 264 c 2
 72 279 l 2
 70 281 71 281 70 283 c 0xcf60
49 482 m 1
 49 494 l 1
 55 499 61 503 66 505 c 0
 77 510 89 513 101 513 c 0
 119 513 135 509 146 501 c 0
 157 493 163 482 163 468 c 0
 163 460 161 451 156 443 c 0
 151 435 143 423 130 409 c 0
 117 395 106 385 99 376 c 0
 92 367 88 358 88 350 c 0
 88 344 90 333 95 316 c 1
 86 316 l 1
 79 333 75 345 75 354 c 0xeee0
 75 367 83 386 100 410 c 0
 117 434 125 453 125 466 c 0
 125 476 121 484 114 489 c 0
 107 494 98 498 87 498 c 0
 79 498 72 495 66 493 c 0
 61 491 55 487 49 482 c 1
14 238 m 1
 193 238 l 1
 193 530 l 1
 14 530 l 1
 14 238 l 1
10 234 m 1
 10 533 l 1
 197 533 l 1
 197 234 l 1
 10 234 l 1
EndSplineSet
Validated: 1
EndChar

StartChar: degree
Encoding: 176 176 5
Width: 126
VWidth: 418
Flags: W
HStem: 200 232
VStem: 10 17<276.476 355.102> 98 18<272.675 359.556>
LayerCount: 2
Fore
SplineSet
27 315 m 0
 27 286 39 262 58 243 c 0
 61 240 61 241 64 238 c 1
 67 241 64 240 67 243 c 0
 89 262 98 287 98 316 c 0
 98 345 89 370 67 389 c 0
 64 392 68 389 65 392 c 1
 62 389 61 390 58 387 c 0
 40 369 27 346 27 319 c 0
 27 317 27 317 27 315 c 0
10 315 m 0
 10 358 25 394 55 424 c 0
 60 428 60 428 65 432 c 1
 68 429 66 431 69 428 c 0
 101 398 116 360 116 317 c 0
 116 274 101 237 69 207 c 0
 66 204 65 203 62 200 c 1
 59 203 58 202 55 205 c 0
 25 235 10 272 10 315 c 0
EndSplineSet
Validated: 1
EndChar

StartChar: paragraph
Encoding: 182 182 6
Width: 298
VWidth: 806
Flags: W
HStem: -1 21G<179 232> -1 21G<108 144 179 232> 423 32<115.937 161.576>
VStem: 10 94<331.116 419.528> 148 26<164.981 414.166> 260 28<286.427 382.252>
LayerCount: 2
Fore
SplineSet
10 376 m 0xbc
 10 378 10 380 10 382 c 0
 10 395 13 410 16 420 c 0
 20 432 38 445 62 449 c 0
 78 451 102 455 130 455 c 0
 142 455 154 455 168 453 c 0
 214 449 248 435 268 407 c 0
 282 389 288 369 288 347 c 0
 288 335 286 323 282 309 c 0
 270 271 260 251 250 247 c 0
 249 246 247 246 246 246 c 0
 243 246 242 248 242 252 c 0
 242 257 244 267 250 279 c 0
 256 293 260 307 260 323 c 0
 260 335 258 349 254 363 c 0
 246 395 220 415 178 423 c 1
 176 385 174 351 174 319 c 0
 174 285 176 255 178 227 c 0
 182 171 200 93 232 -1 c 1
 190 -1 l 1
 168 91 154 167 150 225 c 0
 150 237 148 251 148 263 c 0
 148 311 154 365 162 423 c 1
 118 423 l 1
 108 375 104 329 104 283 c 0
 104 259 104 237 108 213 c 0
 118 145 132 75 144 1 c 1
 118 1 l 1
 98 81 86 133 82 155 c 0
 78 177 74 203 70 231 c 0
 66 259 62 283 58 297 c 0
 54 311 36 311 26 330 c 0
 14 354 11 365 10 376 c 0xbc
EndSplineSet
Validated: 1
EndChar

StartChar: periodcentered
Encoding: 183 183 7
AltUni2: 002219.ffffffff.0 002219.ffffffff.0 002219.ffffffff.0
Width: 104
VWidth: 419
Flags: W
HStem: 200 249
VStem: 10 84<229.763 417.086>
LayerCount: 2
Fore
SplineSet
10 323 m 0
 10 368 22 408 46 440 c 1
 49 446 50 446 53 449 c 1
 56 446 55 444 58 441 c 0
 84 408 94 371 94 326 c 0
 94 281 84 240 58 207 c 0
 55 204 53 203 50 200 c 1
 47 203 49 204 46 207 c 0
 22 239 10 278 10 323 c 0
EndSplineSet
Validated: 1
EndChar

StartChar: torlg1l
Encoding: 200 200 8
Width: 341
VWidth: 344
Flags: W
HStem: -1 21G<114 127> -1 21G<114 127> 35 27<27.0952 76.1806> 302 38.395<273.312 304.866>
VStem: 305 26<246.616 300.083>
LayerCount: 2
Fore
SplineSet
10 26 m 1xb8
 13 44 27 54 43 60 c 0
 47 61 50 62 54 62 c 0
 72 62 90 48 100 38 c 0
 106 32 115 28 121 29 c 0
 134 32 145 61 151 76 c 0
 162 106 166 119 176 146 c 0
 196 200 203 225 229 284 c 0
 240 309 254 329 273 337 c 0
 279.667 339.778 285.407 340.395 289.708 340.395 c 0
 293.148 340.395 295.667 340 297 340 c 0
 301 340 308 338 311 336 c 0
 315 334 323 325 325 320 c 0
 330 307 331 302 331 288 c 0
 331 284 329 266 328 261 c 0
 324 245 309 225 290 208 c 0
 283 202 272 197 267 204 c 0
 261 212 270 224 275 229 c 0
 287 243 305 251 305 284 c 0
 305 295 292 302 285 302 c 0
 281 302 276 300 274 295 c 0
 252 251 228 187 225 179 c 0
 222 169 191 83 189 78 c 0
 186 70 164 15 152 5 c 0
 146 0 130 -1 124 -1 c 0
 104 -1 83 17 68 28 c 0
 61 33 53 37 43 35 c 0
 33 33 29 30 27 25 c 0
 23 11 10 15 10 26 c 1xb8
EndSplineSet
Validated: 1
LCarets2: 1 0 
EndChar

StartChar: e1
Encoding: 57345 57345 9
Width: 122
VWidth: 352
Flags: W
HStem: 104 28<14.3209 95.8601> 113 26<14.3209 107.859>
VStem: 10 102
LayerCount: 2
Fore
SplineSet
10 126 m 0xa0
 10 129 11 133 14 135 c 1
 21 137 18 136 39 134 c 1
 47 132 58 131 67 132 c 0xa0
 76 133 83 134 89 137 c 0
 91 138 93 139 96 139 c 0
 101 139 105 137 108 136 c 1
 110 134 110 134 112 129 c 0
 113 127 112 126 112 124 c 0
 112 119 111 116 107 113 c 0x60
 103 111 99 109 93 107 c 0
 86 105 82 105 78 104 c 1
 46 104 l 1
 40 105 32 104 26 106 c 0
 20 108 15 112 13 116 c 0
 12 118 10 122 10 126 c 0xa0
EndSplineSet
Validated: 1
EndChar

StartChar: e2
Encoding: 57346 57346 10
Width: 303
VWidth: 467
Flags: W
HStem: 287 32<82.6225 274.107> 325 20G<36 43.5>
VStem: 10 283
LayerCount: 2
Fore
SplineSet
10 334 m 0
 10 339 16 342 27 344 c 0
 31 344 34 345 38 345 c 0
 49 345 62 342 74 338 c 0
 90 332 107 326 121 321 c 1
 127 320 134 319 145 319 c 0
 149 319 155 318 160 319 c 0
 178 321 196 324 214 329 c 0
 225 332 238 332 252 333 c 0
 254 333 256 333 258 333 c 0
 269 333 278 331 286 329 c 0
 290 327 293 323 293 319 c 0
 293 315 290 311 283 306 c 1
 251 293 223 288 201 287 c 0
 195 287 189 287 182 287 c 0
 164 287 142 288 118 289 c 0
 108 290 92 292 68 298 c 0
 44 304 28 310 21 316 c 0
 15 322 10 327 10 334 c 0
EndSplineSet
Validated: 1
EndChar

StartChar: e3
Encoding: 57347 57347 11
Width: 53
VWidth: 346
Flags: W
HStem: 40 101<18.2349 31.9062>
VStem: 10 32<41.0959 51.8601 52.2812 133.906> 18 24<52.2812 125.86>
LayerCount: 2
Fore
SplineSet
10 126 m 0xc0
 10 129 11 132 12 134 c 0
 14 136 17 138 22 140 c 0
 25 141 26 141 28 141 c 0
 31 141 33 139 36 136 c 1
 38 132 38 127 40 121 c 0
 42 114 42 109 43 105 c 1
 42 72 l 1xc0
 40 66 42 60 40 54 c 0
 38 48 36 43 32 41 c 0
 30 40 28 40 26 40 c 0
 22 40 18 41 12 44 c 1
 11 47 11 49 11 52 c 0
 11 58 13 64 14 70 c 0
 16 78 19 87 18 96 c 0xa0
 17 105 15 112 12 118 c 0
 11 121 10 123 10 126 c 0xc0
EndSplineSet
Validated: 1
EndChar

StartChar: la
Encoding: 57348 57348 12
Width: 115
VWidth: 399
Flags: W
HStem: 291 134 331 21G<14.1667 40.5> 331 21G<14.1667 40.5>
VStem: 10 95
LayerCount: 2
Fore
SplineSet
10 355 m 1x50
 22 374 28 385 40 401 c 0
 49 413 50 416 60 422 c 0
 65 424 69 425 73 425 c 0
 80 425 86 422 89 421 c 0
 94 418 94 417 99 405 c 0
 102 398 105 388 105 378 c 0
 105 372 104 366 102 360 c 0
 97 342 90 326 80 316 c 0
 70 306 62 302 56 295 c 0
 53 292 51 291 49 291 c 0x90
 46 291 44 293 42 294 c 0
 38 296 37 302 40 307 c 0
 43 312 46 317 53 324 c 0
 60 331 67 336 73 342 c 0
 79 348 82 356 84 368 c 0
 86 380 81 387 74 385 c 0
 67 383 61 372 55 363 c 0
 49 354 46 346 35 331 c 1
 35 331 20 346 10 355 c 1x50
EndSplineSet
Validated: 1
EndChar

StartChar: ld
Encoding: 57349 57349 13
Width: 143
VWidth: 401
Flags: W
HStem: 103 27<38.0775 87.1301>
VStem: 11 26<140.141 151>
LayerCount: 2
Fore
SplineSet
10 140 m 0
 10 143 11 147 11 151 c 1
 37 155 l 1
 35 144 40 137 50 133 c 0
 55 131 59 130 63 130 c 0
 76 130 87 139 95 157 c 0
 106 180 118 194 129 196 c 1
 130 196 l 2
 132 196 133 193 133 189 c 0
 133 186 133 184 132 180 c 0
 130 169 124 157 116 144 c 0
 108 131 96 120 82 111 c 0
 74 106 64 103 54 103 c 0
 47 103 39 105 31 107 c 0
 17 111 10 122 10 140 c 0
EndSplineSet
Validated: 1
EndChar

StartChar: q2
Encoding: 57350 57350 14
Width: 233
VWidth: 398
Flags: W
HStem: 91 30<41.502 60.8125 110.818 169.69>
VStem: 10 213
LayerCount: 2
Fore
SplineSet
10 127 m 0
 10 131 10 135 12 140 c 0
 16 151 22 165 30 177 c 2
 49 209 l 1
 61 208 66 205 64 196 c 0
 62 187 58 178 53 168 c 0
 48 158 44 149 40 139 c 0
 36 129 40 124 50 122 c 0
 61 119 71 118 80 122 c 1
 79 128 80 134 82 141 c 0
 86 152 92 166 100 177 c 1
 119 210 l 1
 130 209 136 205 134 196 c 0
 132 187 130 178 125 168 c 0
 120 158 115 149 111 139 c 0
 107 129 111 124 121 122 c 0
 124 121 128 121 132 121 c 0
 146 121 162 128 178 143 c 1
 223 145 l 1
 207 129 189 115 171 104 c 0
 157 96 144 91 131 91 c 0
 127 91 123 91 119 92 c 0
 108 94 100 98 95 102 c 1
 85 95 73 90 61 90 c 0
 57 90 53 91 49 92 c 0
 31 96 19 101 14 110 c 0
 11 115 10 121 10 127 c 0
EndSplineSet
Validated: 1
EndChar

StartChar: q3
Encoding: 57351 57351 15
Width: 305
VWidth: 399
Flags: W
HStem: 90 29<43.0764 83.7656 182.819 239.125>
VStem: 10 285
LayerCount: 2
Fore
SplineSet
10 128 m 0
 10 132 11 136 12 140 c 0
 16 150 21 163 30 176 c 2
 50 209 l 1
 62 208 68 204 66 195 c 0
 64 186 58 177 53 167 c 0
 48 157 46 148 42 138 c 0
 38 128 42 123 52 121 c 0
 57 120 63 119 69 119 c 0
 74 119 79 120 84 122 c 1
 83 128 83 134 85 140 c 0
 89 151 94 165 102 177 c 2
 123 210 l 1
 135 209 140 205 138 196 c 0
 136 187 131 178 126 168 c 0
 121 158 118 149 114 139 c 0
 110 129 114 123 124 121 c 0
 135 118 144 118 153 122 c 1
 151 127 153 132 155 140 c 0
 159 151 164 164 173 177 c 1
 192 210 l 1
 203 209 209 205 207 196 c 0
 205 187 203 178 198 168 c 0
 193 158 187 149 183 139 c 0
 179 129 184 123 194 121 c 0
 198 120 201 120 205 120 c 0
 219 120 233 127 249 141 c 1
 295 145 l 1
 279 129 262 115 244 104 c 0
 231 96 218 91 205 91 c 0
 201 91 196 92 192 93 c 0
 182 95 172 98 167 102 c 1
 157 95 146 90 135 90 c 0
 131 90 127 91 123 92 c 0
 113 94 104 98 97 102 c 1
 86 94 73 90 61 90 c 0
 58 90 54 90 50 91 c 0
 32 95 20 101 15 110 c 0
 12 116 10 122 10 128 c 0
EndSplineSet
Validated: 1
EndChar

StartChar: sr
Encoding: 57352 57352 16
Width: 146
VWidth: 513
Flags: W
HStem: 243 37<51.6543 94.6257>
VStem: 108 28<171.691 240.95>
LayerCount: 2
Fore
SplineSet
10 221 m 0
 10 223 11 225 13 228 c 0
 18 236 26 244 37 252 c 0
 48 260 60 267 73 273 c 0
 83 277 91 280 99 280 c 0
 102 280 105 279 107 279 c 0
 125 275 134 258 136 228 c 0
 136 224 136 220 136 216 c 0
 136 193 131 178 119 169 c 0
 117 167 115 167 113 167 c 0
 111 167 109 169 108 173 c 0
 106 180 105 189 104 199 c 0
 103 209 104 219 102 227 c 0
 100 235 99 240 95 241 c 0
 87 243 80 244 75 243 c 0
 70 242 64 239 56 233 c 0
 43 224 42 224 36 220 c 0
 32 218 26 216 19 216 c 1
 13 217 10 218 10 221 c 0
EndSplineSet
Validated: 1
EndChar

StartChar: util
Encoding: 57353 57353 17
Width: 126
VWidth: 399
Flags: W
HStem: 90 29<43.0764 100.625>
VStem: 10 56<128 198>
LayerCount: 2
Fore
SplineSet
10 128 m 0
 10 132 11 136 12 140 c 0
 16 150 21 163 30 176 c 2
 50 209 l 1
 62 208 66 204 66 198 c 0
 66 189 57 176 53 167 c 0
 48 157 46 148 42 138 c 0
 38 128 42 123 52 121 c 0
 58 120 64 119 70 119 c 0
 75 119 80 120 84 122 c 2
 112 138 l 1
 116 114 l 1
 97 102 l 2
 86 94 73 90 61 90 c 0
 58 90 54 90 50 91 c 0
 32 95 20 101 15 110 c 0
 12 116 10 122 10 128 c 0
EndSplineSet
Validated: 1
EndChar

StartChar: orp
Encoding: 57354 57354 18
Width: 254
VWidth: 386
Flags: W
HStem: 261 33<96.1971 136.125>
VStem: 10 234
LayerCount: 2
Fore
SplineSet
10 138 m 0
 10 140 10 141 10 142 c 0
 10 148 11 151 20 173 c 1
 29 192 39 215 52 242 c 0
 65 269 82 288 106 293 c 0
 109 294 111 294 114 294 c 0
 122 294 129 291 137 284 c 0
 147 275 151 270 159 260 c 0
 167 250 173 242 182 234 c 0
 191 226 200 227 210 232 c 0
 218 236 223 238 233 241 c 0
 237 242 244 242 244 237 c 0
 244 235 243 232 240 228 c 0
 235 220 234 224 218 216 c 0
 212 213 196 206 191 206 c 0
 180 206 171 210 162 217 c 0
 154 223 146 232 136 245 c 0
 128 256 119 261 110 261 c 0
 108 261 106 261 104 260 c 0
 95 258 86 246 76 220 c 1
 45 156 l 2
 42 150 39 147 33 138 c 1
 27 131 22 127 18 127 c 0
 16 127 14 128 12 130 c 0
 11 132 10 134 10 138 c 0
EndSplineSet
Validated: 1
EndChar

StartChar: pun_pes_ld
Encoding: 57444 57444 19
Width: 277
VWidth: 345
Flags: W
HStem: 1 62<30.1421 68.0026> 109 26<136.094 175.3>
VStem: 10 61<3.32742 60.3807> 99 27<136.095 186.881>
LayerCount: 2
Fore
SplineSet
99 133 m 2
 99 133 99 133 99 134 c 0
 100 145 100 156 104 167 c 0
 108 179 108 179 112 190 c 2
 118 203 l 2
 123 214 129 213 135 204 c 0
 141 195 141 186 136 176 c 0
 131 166 128 156 126 149 c 0
 124 142 126 138 136 136 c 0
 138 136 141 135 143 135 c 0
 156 135 170 142 185 156 c 0
 203 173 220 190 234 208 c 1
 244 218 245 225 257 236 c 0
 259 238 261 240 263 240 c 0
 266 240 267 237 267 233 c 0
 267 231 267 227 266 224 c 0
 256 188 221 147 189 126 c 0
 173 115 157 109 141 109 c 1
 126 111 l 1
 109 115 99 122 99 133 c 2
10 29 m 0
 10 38 13 45 19 51 c 0
 26 58 32 62 42 63 c 0
 43 63 43 63 44 63 c 0
 53 63 62 56 69 44 c 0
 70 41 71 37 71 34 c 0
 71 28 68 21 62 13 c 0
 55 4 49 1 41 1 c 0
 38 1 33 2 30 3 c 0
 17 10 10 16 10 29 c 0
EndSplineSet
Validated: 1
EndChar

StartChar: uniFFFC
Encoding: 65532 65532 20
Width: 207
VWidth: 505
Flags: W
HStem: 234 4<14 193> 262 40<70.4186 108.999> 316 21G<82.5 95> 316 21G<82.5 95> 498 15<67.345 111.664> 530 3<14 193>
VStem: 10 4<238 530> 70 39<262.003 301.974> 75 13<327.742 369.379> 125 38<426.049 491.151> 193 4<238 530>
LayerCount: 2
Fore
SplineSet
70 283 m 0xcf60
 70 285 70 285 72 287 c 2
 85 299 l 2
 87 301 88 302 90 302 c 0
 92 302 92 301 94 299 c 2
 107 287 l 2
 109 285 109 284 109 282 c 0
 109 280 108 280 106 278 c 2
 94 265 l 2
 92 263 92 262 90 262 c 0
 88 262 87 262 85 264 c 2
 72 279 l 2
 70 281 71 281 70 283 c 0xcf60
49 482 m 1
 49 494 l 1
 55 499 61 503 66 505 c 0
 77 510 89 513 101 513 c 0
 119 513 135 509 146 501 c 0
 157 493 163 482 163 468 c 0
 163 460 161 451 156 443 c 0
 151 435 143 423 130 409 c 0
 117 395 106 385 99 376 c 0
 92 367 88 358 88 350 c 0
 88 344 90 333 95 316 c 1
 86 316 l 1
 79 333 75 345 75 354 c 0xeee0
 75 367 83 386 100 410 c 0
 117 434 125 453 125 466 c 0
 125 476 121 484 114 489 c 0
 107 494 98 498 87 498 c 0
 79 498 72 495 66 493 c 0
 61 491 55 487 49 482 c 1
14 238 m 1
 193 238 l 1
 193 530 l 1
 14 530 l 1
 14 238 l 1
10 234 m 1
 10 533 l 1
 197 533 l 1
 197 234 l 1
 10 234 l 1
EndSplineSet
Validated: 1
EndChar

StartChar: uniFFFD
Encoding: 65533 65533 21
Width: 207
VWidth: 505
Flags: W
HStem: 234 4<14 193> 262 40<70.4186 108.999> 316 21G<82.5 95> 316 21G<82.5 95> 498 15<67.345 111.664> 530 3<14 193>
VStem: 10 4<238 530> 70 39<262.003 301.974> 75 13<327.742 369.379> 125 38<426.049 491.151> 193 4<238 530>
LayerCount: 2
Fore
SplineSet
70 283 m 0xcf60
 70 285 70 285 72 287 c 2
 85 299 l 2
 87 301 88 302 90 302 c 0
 92 302 92 301 94 299 c 2
 107 287 l 2
 109 285 109 284 109 282 c 0
 109 280 108 280 106 278 c 2
 94 265 l 2
 92 263 92 262 90 262 c 0
 88 262 87 262 85 264 c 2
 72 279 l 2
 70 281 71 281 70 283 c 0xcf60
49 482 m 1
 49 494 l 1
 55 499 61 503 66 505 c 0
 77 510 89 513 101 513 c 0
 119 513 135 509 146 501 c 0
 157 493 163 482 163 468 c 0
 163 460 161 451 156 443 c 0
 151 435 143 423 130 409 c 0
 117 395 106 385 99 376 c 0
 92 367 88 358 88 350 c 0
 88 344 90 333 95 316 c 1
 86 316 l 1
 79 333 75 345 75 354 c 0xeee0
 75 367 83 386 100 410 c 0
 117 434 125 453 125 466 c 0
 125 476 121 484 114 489 c 0
 107 494 98 498 87 498 c 0
 79 498 72 495 66 493 c 0
 61 491 55 487 49 482 c 1
14 238 m 1
 193 238 l 1
 193 530 l 1
 14 530 l 1
 14 238 l 1
10 234 m 1
 10 533 l 1
 197 533 l 1
 197 234 l 1
 10 234 l 1
EndSplineSet
Validated: 1
EndChar

StartChar: clB
Encoding: 58368 58368 22
Width: 346
VWidth: 303
Flags: W
HStem: 0 21G<28.5 31.5> 0 21G<28.5 31.5> 28 31<215.994 274.924> 242 44<169.417 257.663>
VStem: 10 28<1.09741 52.3164> 178 31<65.8807 127.921> 296 40<76.3582 195.382>
LayerCount: 2
Fore
SplineSet
10 22 m 0xbe
 10 32 13 45 19 61 c 0
 32 97 54 136 82 176 c 0
 110 216 141 246 173 267 c 0
 193 280 211 286 228 286 c 0
 239 286 250 284 260 279 c 0
 280 269 296 254 309 233 c 0
 322 212 330 190 334 166 c 0
 335 159 336 152 336 145 c 0
 336 128 333 112 327 97 c 0
 319 75 305 59 282 47 c 0
 260 35 242 28 228 28 c 0
 222 28 216 30 211 32 c 0
 194 40 184 53 180 69 c 0
 179 75 178 81 178 86 c 0
 178 96 180 105 185 115 c 0
 193 131 203 140 220 140 c 0
 234 140 235 137 225 130 c 0
 215 123 209 113 209 101 c 0
 209 78 219 64 239 60 c 0
 242 59 245 59 248 59 c 0
 264 59 278 68 287 86 c 0
 293 96 296 108 296 122 c 0
 296 126 295 130 295 134 c 0
 293 154 288 174 279 191 c 0
 270 208 258 222 244 232 c 0
 235 238 226 242 215 242 c 0
 209 242 201 240 194 237 c 0
 166 227 142 208 119 180 c 0
 96 152 79 124 69 98 c 0
 63 85 60 74 56 64 c 0
 50 48 51 48 46 35 c 0
 42 26 40 18 38 10 c 0
 36 4 34 0 29 0 c 0
 28 0 26 1 24 1 c 0
 15 3 10 10 10 22 c 0xbe
EndSplineSet
EndChar

StartChar: clNB
Encoding: 58369 58369 23
Width: 360
VWidth: 304
Flags: W
HStem: 0 21G<28.5 31.5> 0 21G<28.5 31.5> 28 31<215.994 274.924> 242 46<172.478 257.547> 281 20G<309 324.5>
VStem: 10 28<1.09741 52.3164> 178 31<65.8807 127.921> 296 40<76.3582 195.382>
LayerCount: 2
Fore
SplineSet
10 22 m 0xb7
 10 32 13 45 19 61 c 0
 32 97 54 136 82 176 c 0
 110 216 141 246 173 267 c 1
 168 268 163 270 157 271 c 0
 136 276 123 281 117 286 c 0
 112 291 108 296 108 302 c 0
 108 306 112 308 122 310 c 0
 125 310 129 311 132 311 c 0
 141 311 152 308 162 305 c 0
 176 300 191 294 203 290 c 0
 208 289 214 288 223 288 c 0
 226 288 232 287 236 288 c 0xb7
 251 290 267 293 282 297 c 0
 291 300 303 300 315 301 c 0
 317 301 318 301 320 301 c 0x2f
 329 301 337 299 344 297 c 0
 348 295 350 292 350 289 c 0
 350 286 347 282 341 278 c 1
 320 269 300 265 284 263 c 1
 293 255 302 245 309 233 c 0
 322 212 330 190 334 166 c 0
 335 159 336 152 336 145 c 0
 336 128 333 112 327 97 c 0
 319 75 305 59 282 47 c 0
 260 35 242 28 228 28 c 0
 222 28 216 30 211 32 c 0
 194 40 184 53 180 69 c 0
 179 75 178 81 178 86 c 0
 178 96 180 105 185 115 c 0
 193 131 203 140 220 140 c 0
 234 140 235 137 225 130 c 0
 215 123 209 113 209 101 c 0
 209 78 219 64 239 60 c 0
 242 59 245 59 248 59 c 0
 264 59 278 68 287 86 c 0
 293 96 296 108 296 122 c 0
 296 126 295 130 295 134 c 0
 293 154 288 174 279 191 c 0
 270 208 258 222 244 232 c 0
 235 238 226 242 215 242 c 0
 209 242 201 240 194 237 c 0
 166 227 142 208 119 180 c 0
 96 152 79 124 69 98 c 0
 63 85 60 74 56 64 c 0
 50 48 51 48 46 35 c 0
 42 26 40 18 38 10 c 0
 36 4 34 0 29 0 c 0
 28 0 26 1 24 1 c 0
 15 3 10 10 10 22 c 0xb7
EndSplineSet
EndChar

StartChar: bv
Encoding: 58370 58370 24
Width: 274
VWidth: 305
Flags: W
HStem: -1 283
VStem: 10 254
LayerCount: 2
Fore
SplineSet
99 8 m 2
 99 9 l 2
 99 20 109 42 127 74 c 0
 153 122 150 114 166 145 c 0
 177 167 191 190 197 203 c 0
 203 216 209 229 216 242 c 0
 223 255 224 257 232 267 c 0
 240 277 246 282 253 282 c 2
 254 282 l 2
 260 282 264 277 264 271 c 0
 264 268 264 267 261 260 c 0
 256 250 254 245 246 227 c 1
 232 203 234 201 201 145 c 0
 168 89 168 89 150 57 c 1
 136 35 127 19 116 7 c 0
 110 1 107 -1 104 -1 c 0
 101 -1 99 2 99 8 c 2
10 8 m 2
 10 9 l 2
 10 20 20 42 38 74 c 0
 64 122 61 114 77 145 c 0
 88 167 102 190 108 203 c 0
 114 216 120 229 127 242 c 0
 134 255 135 257 143 267 c 0
 151 277 157 282 164 282 c 2
 165 282 l 2
 171 282 175 277 175 271 c 0
 175 268 175 267 172 260 c 0
 167 250 165 245 157 227 c 1
 143 203 145 201 112 145 c 0
 79 89 79 89 61 57 c 1
 47 35 38 19 27 7 c 0
 21 1 18 -1 15 -1 c 0
 12 -1 10 2 10 8 c 2
EndSplineSet
EndChar

StartChar: bvN
Encoding: 58371 58371 25
Width: 341
VWidth: 378
Flags: W
HStem: -1 21G<13.5 16.5 133.5 136.5> -1 21G<13.5 16.5 133.5 136.5> 291 20G<123 130.5 243 250.5> 291 20G<123 130.5 243 250.5>
VStem: 10 321
LayerCount: 2
Fore
SplineSet
130 8 m 2xa8
 130 9 l 2
 130 20 140 42 158 74 c 0
 184 122 181 114 197 145 c 0
 218 186 242 226 250 240 c 0
 256 250 259 258 265 267 c 1
 264 268 l 1
 254 274 235 282 235 296 c 0
 235 301 239 310 247 311 c 1
 254 309 250 310 268 298 c 1
 278 288 299 276 315 274 c 0
 325 273 333 266 331 256 c 1
 328 249 324 247 317 247 c 0
 309 248 295 252 289 254 c 1
 286 247 283 241 277 227 c 1
 263 203 265 201 232 145 c 0
 199 89 199 89 181 57 c 1
 167 35 158 19 147 7 c 0
 141 1 138 -1 135 -1 c 0
 132 -1 130 2 130 8 c 2xa8
10 8 m 2
 10 9 l 2
 10 20 20 42 38 74 c 0
 64 122 61 114 77 145 c 0
 98 186 122 226 130 240 c 0
 136 250 139 258 145 267 c 1
 144 268 l 1
 134 274 115 282 115 296 c 0
 115 301 119 310 127 311 c 1
 134 309 130 310 148 298 c 1
 158 288 179 276 195 274 c 0
 205 273 213 266 211 256 c 1
 208 249 204 247 197 247 c 0
 189 248 175 252 169 254 c 1
 166 247 163 241 157 227 c 1
 143 203 145 201 112 145 c 0
 79 89 79 89 61 57 c 1
 47 35 38 19 27 7 c 0
 21 1 18 -1 15 -1 c 0
 12 -1 10 2 10 8 c 2
EndSplineSet
EndChar

StartChar: bvB
Encoding: 58372 58372 26
Width: 314
VWidth: 305
Flags: W
HStem: -1 21G<13.5 16.5> -1 20.8711G<13.5 16.5 105.926 108.926> 162.871 20<238.303 268.227>
VStem: 280.576 23.8535<193.655 250.371>
LayerCount: 2
Fore
SplineSet
102.426 7.87109 m 2x30
 102.426 8.87109 l 2
 102.426 19.8711 109.426 41.8711 127.426 73.8711 c 0
 153.426 121.871 150.129 113.869 166.129 144.869 c 0
 177.129 166.869 179.426 167.871 185.426 180.871 c 0
 193.426 197.871 203.426 216.871 213.426 234.871 c 0
 225.426 256.87 239.426 276.87 257.43 281.87 c 0
 260.43 282.87 264.43 282.87 266.43 282.87 c 0
 271.43 282.87 280.43 281.87 284.43 279.87 c 0
 292.43 275.87 295.43 272.87 297.43 268.87 c 0
 300.43 262.87 304.43 255.871 304.43 244.871 c 0
 304.43 238.871 303.43 227.871 302.43 221.871 c 0
 299.43 206.871 297.43 196.871 287.43 180.871 c 0
 282.43 172.871 271.43 167.871 265.43 164.871 c 0
 255.428 159.871 245.426 159.871 239.426 162.871 c 1
 230.426 169.871 241.426 182.871 249.426 182.871 c 0
 262.74 182.871 280.576 200.051 280.576 227.531 c 0
 280.576 239.411 269.541 246.427 258.43 240.871 c 0
 247.426 234.871 242.426 217.871 232.426 199.871 c 0
 210.426 157.871 207.426 154.871 200.426 142.871 c 2
 155.426 56.8711 l 2
 143.426 34.8711 131.426 18.8711 120.426 6.87109 c 0
 114.426 0.871094 110.426 -1.12891 107.426 -1.12891 c 0
 104.426 -1.12891 102.426 1.87109 102.426 7.87109 c 2x30
10 8 m 2
 10 9 l 2
 10 20 20 42 38 74 c 0
 64 122 61 114 77 145 c 0
 88 167 102 190 108 203 c 0
 114 216 120 229 127 242 c 0
 134 255 135 257 143 267 c 0
 151 277 157 282 164 282 c 2
 165 282 l 2
 171 282 175 277 175 271 c 0
 175 268 175 267 172 260 c 0
 167 250 165 245 157 227 c 1
 143 203 145 201 112 145 c 0
 79 89 79 89 61 57 c 1
 47 35 38 19 27 7 c 0
 21 1 18 -1 15 -1 c 0xb0
 12 -1 10 2 10 8 c 2
EndSplineSet
EndChar

StartChar: ciG
Encoding: 58373 58373 27
Width: 434
VWidth: 310
Flags: W
HStem: 10 37<284.329 415.527> 11 29<285.955 356.553 371.167 422.582> 103 33<258.062 347.529> 112 21<310.702 349.572> 262 42<149.871 220.575>
VStem: 10 26<13.0974 73.0706> 233 31<133 233.11>
LayerCount: 2
Fore
SplineSet
282 33 m 0x4e
 282 36 286 38 291 40 c 0x4e
 304 44 327 46 358 47 c 0
 362 47 366 47 370 47 c 0
 395 47 413 45 424 43 c 1
 424 41 424 38 424 36 c 0
 424 26 421 19 416 16 c 0
 406 11 390 10 366 10 c 0x8e
 342 10 318 10 294 11 c 1
 289 19 285 27 283 31 c 0
 283 32 282 32 282 33 c 0x4e
10 35 m 0
 10 46 13 60 18 77 c 0
 30 115 49 155 75 197 c 0
 101 239 129 268 158 290 c 0
 172 301 188 304 201 304 c 0
 214 304 225 301 229 297 c 1
 235 293 247 289 253 268 c 0
 258 249 264 228 264 200 c 0
 264 197 264 193 264 189 c 0
 262 170 260 151 258 133 c 1x1e
 278 135 295 136 310 136 c 0x2e
 325 136 338 135 348 133 c 1
 349 125 350 121 350 119 c 0
 350 117 347 114 342 112 c 0x1e
 335 109 319 107 293 105 c 0
 280 104 270 103 262 103 c 0x2e
 254 103 248 104 246 105 c 0
 232 110 226 115 228 123 c 0
 230 131 230 142 232 156 c 0
 233 164 233 171 233 178 c 0
 233 197 230 215 224 234 c 0
 217 253 203 262 190 262 c 0
 188 262 186 261 184 261 c 0
 155 252 130 231 109 201 c 0
 88 171 74 143 64 116 c 0
 59 102 55 91 51 80 c 0
 46 63 46 63 42 49 c 0
 40 40 38 31 36 23 c 0
 34 16 32 12 26 12 c 0
 25 12 23 13 22 13 c 0
 14 15 10 22 10 35 c 0
EndSplineSet
EndChar

StartChar: clM
Encoding: 58374 58374 28
Width: 261
VWidth: 296
Flags: W
HStem: 298 48<142.524 208.158>
VStem: 216 35<147.069 288.567>
LayerCount: 2
Fore
SplineSet
10 98 m 0
 10 108 13 121 18 138 c 0
 30 177 36 186 58 228 c 1
 91 281 136 322 154 333 c 0
 162 338 188 346 201 346 c 0
 202 346 203 346 204 346 c 0
 217 343 227 339 234 333 c 0
 239 328 247 307 250 288 c 0
 251 284 251 278 251 270 c 0
 251 246 247 207 244 187 c 0
 242 174 226 118 215 84 c 0
 198 33 189 11 173 -24 c 0
 162 -48 158 -56 153 -63 c 0
 150 -67 147 -68 143 -68 c 0
 140 -68 137 -67 136 -66 c 0
 133 -63 132 -60 132 -57 c 0
 132 -51 136 -43 141 -31 c 0
 149 -12 165 24 182 73 c 0
 198 120 205 149 214 190 c 1
 215 204 216 215 216 227 c 0
 216 239 215 252 212 266 c 0
 207 289 188 298 173 298 c 0
 168 298 164 298 161 296 c 0
 145 286 119 270 92 226 c 0
 74 196 71 190 61 168 c 0
 52 147 46 126 41 105 c 0
 36 86 31 76 25 76 c 0
 24 76 24 76 23 76 c 0
 15 78 10 85 10 98 c 0
EndSplineSet
EndChar

StartChar: clMN
Encoding: 58375 58375 29
Width: 345
VWidth: 296
Flags: W
HStem: 298 50<142.949 207.351> 330 18<143 188> 331 38<109.141 147.907>
VStem: 216 35<147.069 287.587>
LayerCount: 2
Fore
SplineSet
10 98 m 4x90
 10 108 13 121 18 138 c 4
 27 168 33 180 45 203 c 4
 48 210 52 218 57 227 c 4
 87 276 128 316 148 330 c 5x50
 146 330 145 331 143 331 c 4
 123 336 109 340 103 345 c 4
 98 350 95 354 94 359 c 4
 93 364 99 366 109 368 c 4
 112 368 115 369 118 369 c 4x30
 128 369 138 367 148 363 c 4
 162 358 176 354 188 350 c 4
 193 349 200 348 209 348 c 4x50
 213 348 217 348 221 349 c 4
 236 351 252 353 267 357 c 4
 276 360 288 360 300 361 c 4
 302 361 302 361 304 361 c 4
 314 361 322 359 329 358 c 5
 333 356 335 353 335 350 c 4
 335 346 332 343 326 339 c 5
 299 328 275 324 256 323 c 4
 251 323 246 323 240 323 c 5
 241 320 243 316 244 312 c 4
 246 305 249 296 250 288 c 4
 251 284 251 278 251 270 c 6
 251 269 251 267 251 266 c 4
 251 242 247 206 244 187 c 4
 242 174 226 118 215 84 c 4
 198 33 189 11 173 -24 c 4
 162 -48 158 -56 153 -63 c 4
 150 -67 147 -68 143 -68 c 4
 140 -68 137 -67 136 -66 c 4
 133 -63 132 -60 132 -57 c 4
 132 -51 136 -43 141 -31 c 4
 149 -12 165 24 182 73 c 4
 198 120 205 149 214 190 c 5
 215 204 216 215 216 227 c 4
 216 233 216 240 215 246 c 4
 214 252 213 259 211 266 c 4
 206 288 188 298 173 298 c 4
 168 298 164 297 160 295 c 4
 147 287 128 274 105 245 c 4
 101 239 96 233 92 226 c 4
 74 196 71 190 61 168 c 4
 52 147 46 126 41 105 c 4
 36 86 31 76 25 76 c 4
 24 76 24 76 23 76 c 4
 15 78 10 85 10 98 c 4x90
EndSplineSet
EndChar

StartChar: pfB
Encoding: 58378 58378 30
Width: 581
VWidth: 344
Flags: W
HStem: -1 21G<189.5 197.5> -1 21G<189.5 197.5> 53 30<443.808 507.965> 259 48<148.542 194> 276 48<398.784 493.495>
VStem: 158 30<30.9456 115.11> 189 32<141.209 258.885> 402 34<90.2586 157.453> 528 43<99.7515 237.098>
LayerCount: 2
Fore
SplineSet
10 20 m 0x7780
 10 31 14 48 22 72 c 0
 36 113 58 156 83 198 c 0
 108 240 132 272 156 292 c 0
 168 302 179 307 189 307 c 0x7780
 199 307 207 302 214 293 c 0
 217 289 221 277 221 258 c 0
 221 255 220 252 220 249 c 0
 219 225 215 196 209 160 c 0
 207 146 203 132 199 118 c 0
 195 104 192 90 190 76 c 0
 188 67 188 59 188 53 c 0
 188 47 188 42 190 38 c 0
 193 30 197 28 201 32 c 1
 205 34 210 41 216 52 c 0
 222 63 226 73 228 79 c 0
 236 100 250 127 269 160 c 0
 288 193 310 223 336 250 c 0
 362 277 390 300 419 314 c 0
 433 321 447 324 460 324 c 0
 474 324 488 320 502 312 c 0
 521 301 538 283 550 261 c 0
 562 239 569 213 571 188 c 0
 571 183 571 179 571 174 c 0
 571 154 568 135 560 117 c 0
 550 95 532 78 508 67 c 0
 487 58 469 53 455 53 c 0
 446 53 438 55 432 58 c 0
 415 67 407 81 403 98 c 0
 402 103 402 107 402 112 c 0
 402 123 405 135 411 147 c 0
 419 162 429 170 444 170 c 0
 446 170 447 170 449 170 c 0
 465 168 466 165 455 159 c 0
 444 153 437 143 436 130 c 0
 436 128 436 126 436 124 c 0
 436 104 445 90 464 85 c 0
 469 84 473 83 477 83 c 0
 492 83 505 92 516 108 c 0
 523 119 528 134 528 153 c 0
 528 155 528 156 528 158 c 0
 527 179 524 200 516 219 c 0
 508 238 497 253 483 264 c 0
 473 272 463 276 450 276 c 0
 444 276 438 275 431 273 c 0
 386 259 349 233 322 193 c 0
 295 153 273 112 255 72 c 0
 250 62 240 46 224 23 c 0
 213 7 203 -1 192 -1 c 0xaf80
 187 -1 181 1 176 4 c 0
 164 12 158 24 158 40 c 0
 158 46 158 53 160 60 c 0
 169 100 170 100 176 130 c 0
 182 160 186 189 188 220 c 0
 188 225 189 229 189 233 c 0
 189 250 185 259 178 259 c 0
 176 259 174 259 172 258 c 0
 152 250 133 229 114 196 c 0
 95 163 78 132 67 104 c 0
 56 75 47 50 41 28 c 0
 36 11 30 2 23 2 c 0
 21 2 18 3 16 4 c 0
 12 6 10 12 10 20 c 0x7780
EndSplineSet
EndChar

StartChar: pf
Encoding: 58379 58379 31
Width: 407
VWidth: 343
Flags: W
HStem: 1 21G<22 26.5> 19 41<198 226.222> 233 33<332.879 362.842> 257 49<152.609 195.5>
VStem: 10 31<3.09667 73.4995> 165 36<60.3422 226.415> 182 38<91.1882 256.988> 365 32<92.4326 232.547>
LayerCount: 2
Fore
SplineSet
10 19 m 0x4b
 10 31 14 49 22 73 c 0
 36 114 58 156 83 198 c 0
 108 240 132 272 156 291 c 0
 169 301 181 306 191 306 c 0
 200 306 207 302 214 293 c 0
 217 289 220 277 220 258 c 0
 220 255 220 252 220 249 c 0x5b
 218 206 207 139 202 104 c 0
 201 100 201 95 201 91 c 0
 201 79 204 71 206 66 c 0
 208 61 210 60 212 60 c 0
 219 60 226 79 230 90 c 1
 254 141 l 2
 271 178 278 191 293 213 c 0
 308 235 336 266 362 266 c 0
 371 266 380 262 388 252 c 0
 392 247 395 235 397 214 c 0
 397 211 397 208 397 204 c 0
 397 184 393 159 388 128 c 0
 382 92 374 60 364 30 c 0
 354 0 346 -15 336 -17 c 0
 335 -17 336 -17 335 -17 c 0
 331 -17 328 -13 328 -6 c 0
 328 0 330 9 333 19 c 0
 341 43 349 68 355 98 c 0
 361 128 363 157 365 191 c 0
 365 193 365 196 365 198 c 0
 365 222 357 233 347 233 c 0
 345 233 342 233 340 232 c 0
 330 228 318 210 310 196 c 0
 302 182 293 159 284 145 c 1
 255 86 l 1
 248 68 238 51 225 34 c 0
 217 24 210 19 201 19 c 0x6d
 195 19 189 21 182 25 c 0x6b
 169 33 165 46 165 64 c 0x6d
 165 70 165 75 166 82 c 0
 170 117 182 159 182 224 c 0
 182 241 175 257 164 257 c 0
 162 257 159 256 157 255 c 0
 135 243 133 228 114 195 c 0
 82 140 57 87 41 27 c 0
 36 10 30 1 23 1 c 0x9b
 21 1 18 2 16 3 c 0
 12 5 10 11 10 19 c 0x4b
EndSplineSet
EndChar

StartChar: pfM
Encoding: 58380 58380 32
Width: 416
VWidth: 343
Flags: W
HStem: 114 43<198 226.772> 307 44<304.753 360.168> 337 45<132.632 188.5>
VStem: 10 31<98.0967 166.016> 165 36<157.327 301.026> 178 38<186.188 336.888> 370 36<153.054 295.582>
LayerCount: 2
Fore
SplineSet
10 114 m 0xb6
 10 126 14 144 22 168 c 0
 36 209 51 242 76 284 c 0
 101 328 124 359 147 370 c 1
 157 376 171 382 184 382 c 0
 193 382 201 379 207 371 c 0
 211 366 216 355 216 334 c 0
 216 333 216 331 216 329 c 0xb6
 214 286 207 234 202 199 c 0
 202 194 201 190 201 186 c 0
 201 175 204 166 206 161 c 0
 207 158 209 157 211 157 c 0
 220 157 237 201 241 213 c 2
 263 271 l 1
 280 308 284 317 308 337 c 0xba
 320 347 338 351 350 351 c 0xda
 353 351 356 350 358 350 c 0
 371 347 381 343 388 337 c 0xba
 393 332 401 311 404 292 c 0
 405 288 406 282 406 274 c 0
 406 250 401 211 398 191 c 0
 396 178 380 122 369 88 c 0
 352 37 343 15 327 -20 c 0
 318 -41 307 -67 296 -67 c 0
 294 -67 292 -67 290 -65 c 0
 281 -57 283 -51 290 -37 c 0
 306 -6 319 28 336 77 c 0
 352 124 359 153 368 194 c 1
 369 208 370 219 370 231 c 0
 370 243 369 256 366 270 c 0
 362 291 344 307 329 307 c 0
 324 307 319 305 315 300 c 0
 299 280 291 264 284 246 c 2
 255 181 l 1
 243 151 238 146 225 129 c 0
 217 119 209 114 201 114 c 0
 195 114 189 116 182 120 c 0
 169 128 165 141 165 159 c 0xda
 165 164 166 170 166 177 c 0
 170 212 178 240 178 304 c 0
 178 321 170 337 160 337 c 0
 158 337 155 337 153 335 c 0
 134 321 125 309 108 275 c 0
 89 238 57 182 41 122 c 0
 37 105 30 96 23 96 c 0
 20 96 18 97 16 98 c 0
 12 100 10 106 10 114 c 0xb6
EndSplineSet
EndChar

StartChar: pfMN
Encoding: 58381 58381 33
Width: 500
VWidth: 343
Flags: W
HStem: 114 43<198 226.772> 337 45<132.632 188.5> 341.5 19<459.467 489.822> 347.5 23<249.773 272.859>
VStem: 10 31<98.0967 166.016> 165 36<157.327 301.026> 178 38<186.188 336.888> 370 36<153.054 295.746>
LayerCount: 2
Fore
SplineSet
10 114 m 0xcb
 10 126 14 144 22 168 c 0
 36 209 51 242 76 284 c 0
 101 328 124 359 147 370 c 1
 157 376 171 382 184 382 c 0
 193 382 201 379 207 371 c 0
 211 366 216 355 216 334 c 0
 216 333 216 331 216 329 c 0xcb
 214 286 207 234 202 199 c 0
 202 194 201 190 201 186 c 0
 201 175 204 166 206 161 c 0
 207 158 209 157 211 157 c 0
 220 157 237 201 241 213 c 2
 263 271 l 1
 278.576 304.9 283.238 315.295 302.369 332.181 c 1
 300.285 332.82 298.607 333.348 298 333.5 c 0
 278 338.5 264 342.5 258 347.5 c 0
 253 352.5 250 356.5 249 361.5 c 0
 248 366.5 254 368.5 264 370.5 c 0x9d
 267 370.5 270 371.5 273 371.5 c 0
 283 371.5 293 369.5 303 365.5 c 0
 317 360.5 331 356.5 343 352.5 c 0
 348 351.5 355 350.5 364 350.5 c 0
 368 350.5 372 350.5 376 351.5 c 0
 391 353.5 407 355.5 422 359.5 c 0
 431 362.5 443 362.5 455 363.5 c 0
 457 363.5 457 363.5 459 363.5 c 0
 469 363.5 477 361.5 484 360.5 c 1
 488 358.5 490 355.5 490 352.5 c 0
 490 348.5 487 345.5 481 341.5 c 1
 454 330.5 430 326.5 411 325.5 c 0
 406.086 325.5 400.557 325.105 394.672 325.091 c 1
 398.432 316.084 402.158 303.665 404 292 c 0
 405 288 406 282 406 274 c 0
 406 250 401 211 398 191 c 0
 396 178 380 122 369 88 c 0
 352 37 343 15 327 -20 c 0
 318 -41 307 -67 296 -67 c 0
 294 -67 292 -67 290 -65 c 0
 281 -57 283 -51 290 -37 c 0
 306 -6 319 28 336 77 c 0
 352 124 359 153 368 194 c 1
 369 208 370 219 370 231 c 0
 370 243 369 256 366 270 c 0
 362 291 344 307 329 307 c 0
 324 307 319 305 315 300 c 0
 299 280 291 264 284 246 c 2
 255 181 l 1
 243 151 238 146 225 129 c 0
 217 119 209 114 201 114 c 0
 195 114 189 116 182 120 c 0
 169 128 165 141 165 159 c 0xad
 165 164 166 170 166 177 c 0
 170 212 178 240 178 304 c 0
 178 321 170 337 160 337 c 0
 158 337 155 337 153 335 c 0
 134 321 125 309 108 275 c 0
 89 238 57 182 41 122 c 0
 37 105 30 96 23 96 c 0
 20 96 18 97 16 98 c 0
 12 100 10 106 10 114 c 0xcb
EndSplineSet
EndChar

StartChar: pfMsut1
Encoding: 58382 58382 34
Width: 420
VWidth: 343
Flags: W
HStem: -70 33<318.935 407.529> -61 21<370.702 409.572> 114 43<198 226.772> 307 44<304.753 360.168> 337 45<132.632 188.5>
VStem: 10 31<98.0967 166.016> 165 36<157.327 301.026> 178 38<186.188 336.888> 370 36<153.054 295.582>
LayerCount: 2
Fore
SplineSet
10 114 m 0x2d80
 10 126 14 144 22 168 c 0
 36 209 51 242 76 284 c 0
 101 328 124 359 147 370 c 1
 157 376 171 382 184 382 c 0
 193 382 201 379 207 371 c 0
 211 366 216 355 216 334 c 0
 216 333 216 331 216 329 c 0x2d80
 214 286 207 234 202 199 c 0
 202 194 201 190 201 186 c 0
 201 175 204 166 206 161 c 0
 207 158 209 157 211 157 c 0
 220 157 237 201 241 213 c 2
 263 271 l 1
 280 308 284 317 308 337 c 0x2e80
 320 347 338 351 350 351 c 0x3680
 353 351 356 350 358 350 c 0
 371 347 381 343 388 337 c 0
 393 332 401 311 404 292 c 0
 405 288 406 282 406 274 c 0
 406 250 401 211 398 191 c 0
 396 178 380 122 369 88 c 0
 352 37 343 15 327 -20 c 0
 324 -27 321 -34 318 -40 c 1x6e80
 338 -38 355 -37 370 -37 c 0xa680
 385 -37 398 -38 408 -40 c 1
 409 -48 410 -52 410 -54 c 0
 410 -56 407 -59 402 -61 c 0x6680
 395 -64 379 -66 353 -68 c 0
 340 -69 330 -70 322 -70 c 0xa680
 314 -70 310 -70 305 -69 c 0
 301 -68 296 -66 292 -64 c 0
 291 -64 290 -64 289 -63 c 0
 288 -62 288 -62 287 -61 c 0x6680
 281 -55 284 -49 290 -37 c 0
 306 -6 319 28 336 77 c 0
 352 124 359 153 368 194 c 1
 369 208 370 219 370 231 c 0
 370 243 369 256 366 270 c 0
 362 291 344 307 329 307 c 0
 324 307 319 305 315 300 c 0
 299 280 291 264 284 246 c 2
 255 181 l 1
 243 151 238 146 225 129 c 0
 217 119 209 114 201 114 c 0
 195 114 189 116 182 120 c 0
 169 128 165 141 165 159 c 0xb680
 165 164 166 170 166 177 c 0
 170 212 178 240 178 304 c 0
 178 321 170 337 160 337 c 0
 158 337 155 337 153 335 c 0
 134 321 125 309 108 275 c 0
 89 238 57 182 41 122 c 0
 37 105 30 96 23 96 c 0
 20 96 18 97 16 98 c 0
 12 100 10 106 10 114 c 0x2d80
EndSplineSet
EndChar

StartChar: pfMsuu1
Encoding: 58383 58383 35
Width: 424
VWidth: 343
Flags: W
HStem: -28 33<318.842 391> 156 43<198 226.772> 349 44<304.753 360.168> 379 45<132.632 188.5>
VStem: 10 31<140.097 208.016> 165 36<199.327 343.026> 178 38<228.188 378.888> 370 36<195.054 337.582> 392 22<-67.5085 -23 4 19.5196>
LayerCount: 2
Fore
SplineSet
10 156 m 0xda
 10 168 14 186 22 210 c 0
 36 251 51 284 76 326 c 0
 101 370 124 401 147 412 c 1
 157 418 171 424 184 424 c 0
 193 424 201 421 207 413 c 0
 211 408 216 397 216 376 c 0
 216 375 216 373 216 371 c 0xda
 214 328 207 276 202 241 c 0
 202 236 201 232 201 228 c 0
 201 217 204 208 206 203 c 0
 207 200 209 199 211 199 c 0
 220 199 237 243 241 255 c 2
 263 313 l 1
 280 350 284 359 308 379 c 0xdc
 320 389 338 393 350 393 c 0xec
 353 393 356 392 358 392 c 0
 371 389 381 385 388 379 c 0
 393 374 401 353 404 334 c 0
 405 330 406 324 406 316 c 0
 406 292 401 253 398 233 c 0
 396 220 380 164 369 130 c 0
 352 79 343 57 327 22 c 0
 324 15 321 8 318 2 c 1
 336 4 351 5 365 5 c 0
 366 5 368 5 369 5 c 0
 370 5 l 0xdd
 372 5 374 5 376 5 c 0
 379 5 382 5 385 5 c 0
 387 5 390 4 392 4 c 1
 392 7 391 11 392 14 c 1
 397 18 402 19 404 20 c 0
 406 21 407 18 409 14 c 1
 411 5 414 -9 414 -29 c 0xd880
 414 -49 413 -62 411 -70 c 1
 402 -71 397 -68 395 -64 c 0
 393 -59 391 -49 391 -38 c 0
 391 -36 391 -34 391 -32 c 0
 392 -29 391 -25 391 -23 c 1
 385 -24 377 -24 367 -25 c 0
 363 -25 358 -26 353 -26 c 0
 340 -27 330 -28 322 -28 c 0
 314 -28 310 -28 305 -27 c 0
 301 -26 296 -24 292 -22 c 0
 291 -22 290 -22 289 -21 c 0
 288 -20 288 -20 287 -19 c 0
 281 -13 284 -7 290 5 c 0
 306 36 319 70 336 119 c 0
 352 166 359 195 368 236 c 1
 369 250 370 261 370 273 c 0
 370 285 369 298 366 312 c 0
 362 333 344 349 329 349 c 0
 324 349 319 347 315 342 c 0
 299 322 291 306 284 288 c 2
 255 223 l 1
 243 193 238 188 225 171 c 0
 217 161 209 156 201 156 c 0
 195 156 189 158 182 162 c 0
 169 170 165 183 165 201 c 0xed
 165 206 166 212 166 219 c 0
 170 254 178 282 178 346 c 0
 178 363 170 379 160 379 c 0
 158 379 155 379 153 377 c 0
 134 363 125 351 108 317 c 0
 89 280 57 224 41 164 c 0
 37 147 30 138 23 138 c 0
 20 138 18 139 16 140 c 0
 12 142 10 148 10 156 c 0xda
EndSplineSet
EndChar

StartChar: pfEclMN
Encoding: 58385 58385 36
Width: 704
VWidth: 343
Flags: W
HStem: 1 21G<22 26.5> 19 41<198 226.222> 38 43<403 431.772> 257 49<152.609 195.5 347.069 395.5> 258 38<468.141 506.906>
VStem: 165 36<60.6836 220.97> 182 38<91.1882 256.988> 370 36<85.2373 225.026> 382 38<85.2373 260.761> 574 36<75.3555 220.375>
LayerCount: 2
Fore
SplineSet
305 187 m 0xa8c0
 298 174 291 156 284 145 c 1
 256 89 l 2
 256 88 l 0
 256 87 255 87 255 86 c 0
 248 68 238 51 225 34 c 0
 217 24 210 19 201 19 c 0x44c0
 195 19 189 21 182 25 c 0x4240
 169 33 165 46 165 64 c 0x4440
 165 70 165 75 166 82 c 0
 170 117 182 159 182 224 c 0
 182 241 175 257 164 257 c 0
 162 257 159 256 157 255 c 0
 135 243 133 228 114 195 c 0
 82 140 57 87 41 27 c 0
 36 10 30 1 23 1 c 0x9240
 21 1 18 2 16 3 c 0
 12 5 10 11 10 19 c 0
 10 31 14 49 22 73 c 0
 36 114 58 156 83 198 c 0
 108 240 132 272 156 291 c 0
 169 301 181 306 191 306 c 0x5240
 200 306 207 302 214 293 c 0
 217 289 220 277 220 258 c 0
 220 255 220 252 220 249 c 0x0a40
 218 206 207 139 202 104 c 0
 201 100 201 95 201 91 c 0
 201 79 204 71 206 66 c 0
 208 61 210 60 212 60 c 0
 219 60 226 79 230 90 c 1
 254 141 l 2
 254 142 255 142 255 143 c 0
 263 162 272 181 283 199 c 0
 308 241 332 273 356 292 c 0
 369 302 381 307 391 307 c 0
 400 307 407 303 414 294 c 0
 417 290 420 278 420 259 c 2
 420 258 l 2
 420 257 420 255 420 253 c 0x4cc0
 418 210 411 158 406 123 c 0
 406 118 406 114 406 110 c 0
 406 99 408 90 410 85 c 0
 411 82 414 81 416 81 c 0
 425 81 442 125 446 137 c 2
 468 195 l 1
 484 229 488 239 507 256 c 1
 505 257 503 258 502 258 c 0
 482 263 468 267 462 272 c 0
 457 277 455 281 454 286 c 0
 453 291 458 292 468 294 c 0
 471 294 475 296 478 296 c 0
 488 296 498 294 508 290 c 0
 522 285 536 280 548 276 c 0
 553 275 559 274 568 274 c 0
 572 274 576 275 580 276 c 0
 595 278 611 280 626 284 c 0
 635 287 648 287 660 288 c 0
 662 288 662 288 664 288 c 0
 674 288 681 285 688 284 c 1
 692 282 694 279 694 276 c 0
 694 272 692 270 686 266 c 1
 659 255 635 251 616 250 c 0
 611 250 605 249 599 249 c 1
 603 240 606 228 608 216 c 0
 609 212 610 206 610 198 c 0
 610 174 605 135 602 115 c 0
 600 102 585 46 574 12 c 0
 557 -39 548 -61 532 -96 c 0
 523 -117 511 -143 500 -143 c 0
 498 -143 496 -143 494 -141 c 0
 485 -133 487 -127 494 -113 c 0
 510 -82 523 -48 540 1 c 0
 556 48 563 77 572 118 c 1
 573 132 574 143 574 155 c 0
 574 167 573 180 570 194 c 0
 566 215 549 231 534 231 c 0
 529 231 524 229 520 224 c 0
 504 204 495 188 488 170 c 2
 460 105 l 2
 448 75 443 70 430 53 c 0
 422 43 414 38 406 38 c 0
 400 38 393 40 386 44 c 0
 373 52 370 65 370 83 c 0
 370 88 370 94 370 101 c 0xa940
 374 136 382 164 382 228 c 0
 382 245 374 261 364 261 c 0
 362 261 360 261 358 259 c 0
 342 247 333 236 320 213 c 0
 319 210 316 209 315 206 c 0
 314 204 313 201 312 199 c 0
 310 195 308 191 305 187 c 0xa8c0
EndSplineSet
EndChar

StartChar: pfEclN
Encoding: 58386 58386 37
Width: 699
VWidth: 343
Flags: W
HStem: 1 21G<22 26.5> 19 41<198 226.218 398 425.794> 246 24<592 671.525> 257 49<152.609 195.5 346.963 395.5> 268 21<462.906 483.859>
VStem: 10 31<3.09667 73.4995> 165 36<60.3422 226.415> 182 38<91.1882 256.988> 365 36<61.3422 227.415> 382 38<92.1882 257.988> 565 32<93.4326 233.603>
LayerCount: 2
Fore
SplineSet
10 19 m 0x4520
 10 31 14 49 22 73 c 0
 36 114 58 156 83 198 c 0
 108 240 132 272 156 291 c 0
 169 301 181 306 191 306 c 0
 200 306 207 302 214 293 c 0
 217 289 220 277 220 258 c 0
 220 255 220 252 220 249 c 0x5520
 218 206 207 139 202 104 c 0
 201 100 201 95 201 91 c 0
 201 79 204 71 206 66 c 0
 208 61 210 60 212 60 c 0
 219 60 226 79 230 90 c 1
 254 141 l 2
 254.354 141.77 254.703 142.529 255.048 143.278 c 0
 263.236 161.994 272.182 180.825 283 199 c 0
 308 241 332 273 356 292 c 0
 369 302 381 307 391 307 c 0
 400 307 407 303 414 294 c 0
 417 290 420 278 420 259 c 0
 420 256 420 253 420 250 c 0x5660
 418 207 407 140 402 105 c 0
 401 101 401 96 401 92 c 0
 401 80 404 72 406 67 c 0
 408 62 410 61 412 61 c 0
 419 61 426 80 430 91 c 1
 454 142 l 2
 471 179 478 192 493 214 c 0
 501 226 512 240 525 251 c 1
 520 252 514 254 508 255 c 0
 489 259 477 264 471 268 c 0
 466 272 463 277 462 281 c 0
 461 285 465 287 475 289 c 0x4ca0
 478 289 481 290 484 290 c 0
 493 290 503 288 513 285 c 0
 526 281 540 276 551 272 c 0
 556 271 561 270 570 270 c 0
 574 270 578 270 582 270 c 0
 596 272 611 274 625 278 c 0
 634 280 644 280 655 281 c 0
 657 281 659 281 660 281 c 0
 669 281 677 279 683 278 c 1
 686 276 689 274 689 271 c 0
 689 268 686 265 680 261 c 1
 654 251 633 247 615 246 c 0
 610 246 604 246 599 246 c 0
 596 246 595 246 592 246 c 1
 594 239 596 229 597 215 c 0
 597 212 597 209 597 205 c 0
 597 185 593 160 588 129 c 0
 582 93 574 61 564 31 c 0
 554 1 546 -14 536 -16 c 0
 535 -16 536 -16 535 -16 c 0
 531 -16 528 -12 528 -5 c 0
 528 1 530 10 533 20 c 0
 541 44 549 69 555 99 c 0
 561 129 563 158 565 192 c 0
 565 194 565 197 565 199 c 0
 565 223 557 234 547 234 c 0
 545 234 542 234 540 233 c 0
 530 229 518 211 510 197 c 0
 502 183 493 160 484 146 c 1
 455 87 l 1
 448 69 438 52 425 35 c 0
 417 25 410 20 401 20 c 0x24a0
 395 20 389 22 382 26 c 0x2460
 369 34 365 47 365 65 c 0x24a0
 365 71 365 76 366 83 c 0
 370 118 382 160 382 225 c 0
 382 242 375 258 364 258 c 0
 362 258 359 257 357 256 c 0
 335 244 329 229 310 196 c 0
 302 182 293 159 284 145 c 1
 256.327 88.7007 l 2
 256.219 88.4682 256.11 88.2346 256 88 c 0
 255.639 87.2286 255.257 86.4378 254.856 85.6313 c 0
 247.863 67.7678 237.911 50.8839 225 34 c 0
 217 24 210 19 201 19 c 0x6660
 195 19 189 21 182 25 c 0x6520
 169 33 165 46 165 64 c 0x6620
 165 70 165 75 166 82 c 0
 170 117 182 159 182 224 c 0
 182 241 175 257 164 257 c 0
 162 257 159 256 157 255 c 0
 135 243 133 228 114 195 c 0
 82 140 57 87 41 27 c 0
 36 10 30 1 23 1 c 0x9520
 21 1 18 2 16 3 c 0
 12 5 10 11 10 19 c 0x4520
EndSplineSet
EndChar

StartChar: pfN
Encoding: 58387 58387 38
Width: 499
VWidth: 343
Flags: W
HStem: 1 21G<22 26.5> 19 41<198 226.222> 245 24<392 471.525> 257 49<152.609 195.5> 267 21<262.906 283.859> 269 20G<282.5 288.5>
VStem: 10 31<3.09667 73.4995> 165 36<60.3422 226.415> 182 38<91.1882 256.988> 365 32<92.4326 232.603>
LayerCount: 2
Fore
SplineSet
10 19 m 0x42c0
 10 31 14 49 22 73 c 0
 36 114 58 156 83 198 c 0
 108 240 132 272 156 291 c 0
 169 301 181 306 191 306 c 0
 200 306 207 302 214 293 c 0
 217 289 220 277 220 258 c 0
 220 255 220 252 220 249 c 0x52c0
 218 206 207 139 202 104 c 0
 201 100 201 95 201 91 c 0
 201 79 204 71 206 66 c 0
 208 61 210 60 212 60 c 0
 219 60 226 79 230 90 c 1
 254 141 l 2
 271 178 278 191 293 213 c 0
 301 225 312 239 325 250 c 1
 320 251 314 253 308 254 c 0
 289 258 277 263 271 267 c 0
 266 271 263 276 262 280 c 0
 261 284 265 286 275 288 c 0x4b40
 278 288 281 289 284 289 c 0
 293 289 303 287 313 284 c 0
 326 280 340 275 351 271 c 0
 356 270 361 269 370 269 c 0
 374 269 378 269 382 269 c 0x0740
 396 271 411 273 425 277 c 0
 434 279 444 279 455 280 c 0
 457 280 459 280 460 280 c 0
 469 280 477 278 483 277 c 1
 486 275 489 273 489 270 c 0
 489 267 486 264 480 260 c 1
 454 250 433 246 415 245 c 0
 410 245 404 245 399 245 c 0
 396 245 395 245 392 245 c 1
 394 238 396 228 397 214 c 0
 397 211 397 208 397 204 c 0
 397 184 393 159 388 128 c 0
 382 92 374 60 364 30 c 0
 354 0 346 -15 336 -17 c 0
 335 -17 336 -17 335 -17 c 0
 331 -17 328 -13 328 -6 c 0
 328 0 330 9 333 19 c 0
 341 43 349 68 355 98 c 0
 361 128 363 157 365 191 c 0
 365 193 365 196 365 198 c 0
 365 222 357 233 347 233 c 0
 345 233 342 233 340 232 c 0
 330 228 318 210 310 196 c 0
 302 182 293 159 284 145 c 1
 255 86 l 1
 248 68 238 51 225 34 c 0
 217 24 210 19 201 19 c 0x6340
 195 19 189 21 182 25 c 0x62c0
 169 33 165 46 165 64 c 0x6340
 165 70 165 75 166 82 c 0
 170 117 182 159 182 224 c 0
 182 241 175 257 164 257 c 0
 162 257 159 256 157 255 c 0
 135 243 133 228 114 195 c 0
 82 140 57 87 41 27 c 0
 36 10 30 1 23 1 c 0x92c0
 21 1 18 2 16 3 c 0
 12 5 10 11 10 19 c 0x42c0
EndSplineSet
EndChar

StartChar: pfEclT
Encoding: 58388 58388 39
Width: 620
VWidth: 343
Flags: W
HStem: 114 43<198 226.772> 307 47<304.685 359.083 526.979 576.31> 337 45<132.632 188.5>
VStem: 10 31<98.0967 166.016> 165 36<157.327 301.026> 178 38<186.188 336.888> 378 32<145.25 280.031>
LayerCount: 2
Fore
SplineSet
10 114 m 0xb6
 10 126 14 144 22 168 c 0
 36 209 51 242 76 284 c 0
 101 328 124 359 147 370 c 1
 157 376 171 382 184 382 c 0
 193 382 201 379 207 371 c 0
 211 366 216 355 216 334 c 0
 216 333 216 331 216 329 c 0xb6
 214 286 207 234 202 199 c 0
 202 194 201 190 201 186 c 0
 201 175 204 166 206 161 c 0
 207 158 209 157 211 157 c 0
 220 157 237 201 241 213 c 2
 263 271 l 1
 275 297 281 309 291 321 c 0
 294 326 298 330 303 334 c 0
 321 347 338 354 354 354 c 0
 365 354 375 351 384 346 c 0
 390 342 397 331 403 310 c 0
 407 294 410 276 410 253 c 0
 410 246 409 238 409 230 c 0
 408 221 405 206 400 182 c 0
 395 158 394 141 392 133 c 1
 401 144 412 164 425 187 c 0
 438 210 444 216 453 232 c 0
 462 248 462 247 471 261 c 0
 480 275 488 288 499 303 c 0
 510 318 524 331 538 340 c 0
 547 345 558 348 570 348 c 0
 575 348 581 347 587 346 c 0
 604 341 610 329 610 317 c 0
 610 316 610 315 610 314 c 0
 609 297 605 290 600 278 c 1
 593 266 582 251 563 240 c 0
 555 235 549 232 544 230 c 0
 537 226 537 227 532 225 c 0
 516 217 507 214 504 218 c 0
 501 222 503 227 510 234 c 0
 517 241 526 248 537 254 c 0
 548 260 554 264 557 266 c 0
 565 271 573 276 578 286 c 0
 583 296 582 302 572 304 c 0
 567 305 563 306 558 306 c 0
 550 306 542 303 537 298 c 0
 529 290 517 276 506 258 c 1
 488 232 484 226 469 202 c 0
 455 181 444 163 434 146 c 0
 423 125 422 127 401 94 c 0
 387 72 373 59 355 56 c 1
 350 58 347 65 349 78 c 0
 351 91 354 106 358 122 c 0
 362 138 366 153 370 167 c 0
 374 181 376 191 377 196 c 0
 378 201 378 206 378 212 c 0
 378 233 373 253 365 274 c 0
 359 289 350 299 341 304 c 0
 338 305 336 307 333 307 c 0
 332 307 l 0
 331 307 331 307 330 307 c 0
 329 307 l 0
 324 307 319 305 315 300 c 0
 299 280 291 264 284 246 c 2
 255 181 l 1
 243 151 238 146 225 129 c 0
 217 119 209 114 201 114 c 0
 195 114 189 116 182 120 c 0
 169 128 165 141 165 159 c 0xda
 165 164 166 170 166 177 c 0
 170 212 178 240 178 304 c 0
 178 321 170 337 160 337 c 0
 158 337 155 337 153 335 c 0
 134 321 125 309 108 275 c 0
 89 238 57 182 41 122 c 0
 37 105 30 96 23 96 c 0
 20 96 18 97 16 98 c 0
 12 100 10 106 10 114 c 0xb6
357 72 m 1
 357 72 l 1
179 128 m 1
 178 128 178 127 179 128 c 1
EndSplineSet
EndChar

StartChar: pfEpr
Encoding: 58389 58389 40
Width: 618
VWidth: 343
Flags: W
HStem: 1 21G<22 26.5> 19 41<198 226.222> 77 62<511.142 549.003> 216 29<482.092 508.956> 233 33<332.879 362.842> 257 49<152.609 195.5>
VStem: 10 31<3.09667 73.4995> 165 36<60.3422 226.415> 182 38<91.1882 256.988> 365 32<110.551 232.547> 491 61<79.3274 136.381>
LayerCount: 2
Fore
SplineSet
10 19 m 0x62e0
 10 31 14 49 22 73 c 0
 36 114 58 156 83 198 c 0
 108 240 132 272 156 291 c 0
 169 301 181 306 191 306 c 0
 200 306 207 302 214 293 c 0
 217 289 220 277 220 258 c 0
 220 255 220 252 220 249 c 0x66e0
 218 206 207 139 202 104 c 0
 201 100 201 95 201 91 c 0
 201 79 204 71 206 66 c 0
 208 61 210 60 212 60 c 0
 219 60 226 79 230 90 c 1
 254 141 l 2
 271 178 278 191 293 213 c 0
 308 235 336 266 362 266 c 0x6b60
 371 266 380 262 388 252 c 0
 392 247 395 235 397 214 c 0
 397 211 397 208 397 204 c 0
 397 184 393 159 388 128 c 0
 386.997 121.984 385.939 116.08 384.825 110.279 c 1
 388.4 118.095 392.985 127.529 400 140 c 0
 409 157 421 177 434 201 c 0
 447 225 465 241 487 244 c 0
 490 245 492 245 494 245 c 0
 501 245 507 241 513 234 c 0
 521 225 525 219 532 210 c 0
 539 201 542 196 550 188 c 0
 558 180 566 179 575 183 c 0
 582 186 592 189 601 192 c 0
 606 194 608 193 608 190 c 0
 608 188 606 184 601 179 c 1
 596 172 586 169 571 163 c 0
 566 161 563 161 559 161 c 0
 549 162 539 166 531 173 c 0
 523 179 519 187 511 199 c 0
 504 209 494 215 486 216 c 0
 484 216 484 217 482 216 c 0x3360
 478 214 474 209 467 200 c 0
 460 191 457 180 450 169 c 0
 440 151 441 153 431 136 c 0
 425 126 420 114 418 110 c 0
 417 109 415 102 405 84 c 0
 395 66 385 48 375 30 c 0
 371 22 366 15 362 9 c 1
 356 -6 348 -15 339 -16 c 1
 338.961 -16 l 2
 337.991 -16.4662 337.006 -16.7988 336 -17 c 0
 335 -17 336 -17 335 -17 c 0
 331 -17 328 -13 328 -6 c 0
 328 0 330 9 333 19 c 0
 341 43 349 68 355 98 c 0
 361 128 363 157 365 191 c 0
 365 193 365 196 365 198 c 0
 365 222 357 233 347 233 c 0
 345 233 342 233 340 232 c 0
 330 228 318 210 310 196 c 0
 302 182 293 159 284 145 c 1
 255 86 l 1
 248 68 238 51 225 34 c 0
 217 24 210 19 201 19 c 0x6b60
 195 19 189 21 182 25 c 0x6ae0
 169 33 165 46 165 64 c 0x6b60
 165 70 165 75 166 82 c 0
 170 117 182 159 182 224 c 0
 182 241 175 257 164 257 c 0
 162 257 159 256 157 255 c 0
 135 243 133 228 114 195 c 0
 82 140 57 87 41 27 c 0
 36 10 30 1 23 1 c 0xa6e0
 21 1 18 2 16 3 c 0
 12 5 10 11 10 19 c 0x62e0
491 105 m 0
 491 114 494 121 500 127 c 0
 507 134 513 138 523 139 c 0
 524 139 524 139 525 139 c 0
 534 139 543 132 550 120 c 0
 551 117 552 113 552 110 c 0
 552 104 549 97 543 89 c 0
 536 80 530 77 522 77 c 0
 519 77 514 78 511 79 c 0
 498 86 491 92 491 105 c 0
EndSplineSet
EndChar

StartChar: pfS
Encoding: 58390 58390 41
Width: 514
VWidth: 343
Flags: W
HStem: 0 21G<22 26.5> 0 21G<22 26.5> 37 45<209.131 238.597> 256 49<152.609 195.5>
VStem: 174 35<82.7141 238.251> 182 38<121.173 255.988>
LayerCount: 2
Fore
SplineSet
10 18 m 0xb4
 10 30 14 48 22 72 c 0
 36 113 58 155 83 197 c 0
 108 239 132 271 156 290 c 0
 169 300 181 305 191 305 c 0
 200 305 207 301 214 292 c 0
 217 288 220 276 220 257 c 0
 220 254 220 251 220 248 c 0xb4
 218 205 216 156 211 121 c 0
 210 114 209 107 209 101 c 0
 209 92 211 84 215 83 c 0
 216 83 217 82 218 82 c 0
 230 82 239 105 248 123 c 0
 265 155 275 174 301 223 c 0
 319 255 322 262 332 272 c 1
 336 274 340 275 344 275 c 0
 350 275 356 272 364 264 c 0
 375 252 397 215 411 189 c 0
 447 127 453 123 492 57 c 0
 500 43 504 31 504 23 c 0
 504 12 498 7 492 7 c 0
 489 7 485 8 482 11 c 0
 454 37 455 39 430 79 c 1
 339 237 l 1
 323 210 322 209 299 167 c 0
 277 125 279 131 268 107 c 0
 256 81 252 71 239 55 c 0
 231 45 224 37 214 37 c 0
 210 37 205 39 200 42 c 0
 183 53 178 69 175 99 c 0
 174 107 174 113 174 120 c 0xb8
 174 145 182 172 182 223 c 0
 182 240 175 256 164 256 c 0
 162 256 159 255 157 254 c 0
 135 242 133 227 114 194 c 0
 82 139 57 86 41 26 c 0
 36 9 30 0 23 0 c 0
 21 0 18 1 16 2 c 0
 12 4 10 10 10 18 c 0xb4
EndSplineSet
EndChar

StartChar: clEpo
Encoding: 58391 58391 42
Width: 553
VWidth: 343
Flags: W
HStem: 1 21G<22 26.5> 19 41<198.414 226.222> 253 33<342.794 373.017> 257 49<152.609 195.5> 278 20G<528.5 536>
VStem: 10 31<3.09667 73.4995> 165 36<60.3422 226.415> 182 38<91.1882 256.988> 383 27<71.8143 244.917>
LayerCount: 2
Fore
SplineSet
10 19 m 0x4580
 10 31 14 49 22 73 c 0
 36 114 58 156 83 198 c 0
 108 240 132 272 156 291 c 0
 169 301 181 306 191 306 c 0
 200 306 207 302 214 293 c 0
 217 289 220 277 220 258 c 0
 220 255 220 252 220 249 c 0x5580
 218 206 207 139 202 104 c 0
 201 100 201 95 201 91 c 0
 201 79 204 71 206 66 c 0
 208 61 210 60 212 60 c 0
 219 60 226 79 230 90 c 1
 254 141 l 2
 271 178 288 211 303 233 c 0
 318 255 334 286 360 286 c 0x6680
 369 286 376 284 388 274 c 0
 392 270 396 265 400 255 c 0
 405 245 406 238 407 224 c 0
 408 209 410 194 410 174 c 0
 410 168 409 161 409 154 c 0
 408 129 400 88 397 71 c 1
 420 113 425 123 440 152 c 2
 441 155 443 158 445 161 c 0
 456 183 470 206 476 219 c 0
 482 232 488 245 495 258 c 0
 502 271 503 273 511 283 c 0
 519 293 525 298 532 298 c 2
 533 298 l 2x0e80
 539 298 543 293 543 287 c 0
 543 284 543 283 540 276 c 0
 536 269 534 264 530 255 c 1
 529 252 528 249 526 246 c 0
 526 245 525 244 525 243 c 0
 524 242 l 0
 522 238 521 235 518 229 c 0
 515 225 513 221 511 218 c 0
 506 207 499 193 480 161 c 0
 476 155 473 149 470 144 c 0
 448 106 441 96 424 68 c 0
 410 45 402 32 391 21 c 0
 390 20 l 0
 388 18 387 17 386 16 c 0
 385 15 384 14 383 14 c 0
 382 14 381 13 380 13 c 0
 379 13 380 13 379 13 c 2
 378 13 l 2
 374 13 369 19 369 27 c 0
 369 34 371 47 373 56 c 0
 378 82 379 102 382 132 c 0
 383 141 383 149 383 157 c 0
 383 173 382 188 379 211 c 0
 378 213 379 216 378 218 c 0
 373 242 368 253 358 253 c 0
 356 253 353 253 351 252 c 0
 342 248 328 230 320 216 c 0
 312 202 293 159 284 145 c 1
 255 86 l 1
 248 68 238 51 225 34 c 0
 217 24 210 19 201 19 c 0x6680
 195 19 189 21 182 25 c 0x6580
 169 33 165 46 165 64 c 0x6680
 165 70 165 75 166 82 c 0
 170 117 182 159 182 224 c 0
 182 241 175 257 164 257 c 0
 162 257 159 256 157 255 c 0
 135 243 133 228 114 195 c 0
 82 140 57 87 41 27 c 0
 36 10 30 1 23 1 c 0x9580
 21 1 18 2 16 3 c 0
 12 5 10 11 10 19 c 0x4580
EndSplineSet
EndChar

StartChar: clEpoN1
Encoding: 58392 58392 43
Width: 581
VWidth: 343
Flags: W
HStem: 1 21G<22 26.5> 19 41<198.414 226.222> 253 33<342.794 373.017> 257 49<152.609 195.5>
VStem: 10 31<3.09667 73.4827> 165 36<60.3422 226.415> 182 38<91.1882 256.988> 383 26.673<71.8143 244.488>
LayerCount: 2
Fore
SplineSet
10 19 m 0x4b
 10 31 14 49 22 73 c 0
 36 114 58 156 83 198 c 0
 108 240 132 272 156 291 c 0
 169 301 181 306 191 306 c 0
 200 306 207 302 214 293 c 0
 217 289 220 277 220 258 c 0
 220 255 220 252 220 249 c 0x5b
 218 206 207 139 202 104 c 0
 201 100 201 95 201 91 c 0
 201 79 204 71 206 66 c 0
 208 61 210 60 212 60 c 0
 219 60 226 79 230 90 c 1
 254 141 l 2
 271 178 288 211 303 233 c 0
 318 255 334 286 360 286 c 0x6d
 369 286 376 284 388 274 c 0
 392 270 396 265 400 255 c 0
 405 245 406 238 407 224 c 0
 407.76 208.81 409.673 193.619 409.673 174.048 c 0
 409.673 167.851 409.481 161.214 409 154 c 0
 408 129 400 88 397 71 c 1
 420 113 425 123 440 152 c 0
 461 191 483 229 491 242 c 0
 497 251 500 258 506 267 c 1
 505 268 l 1
 495 274 477 282 477 295 c 0
 477 300 480 308 488 309 c 1
 495 307 491 308 509 297 c 1
 519 288 539 276 555 274 c 0
 565 273 573 266 571 257 c 1x1d
 568 250 564 248 557 248 c 0
 549 249 536 253 530 255 c 1
 527 248 524 242 518 229 c 1
 504 206 504 207 474 152 c 0
 449 107 442 98 424 68 c 0
 410 45 402 32 391 21 c 0
 387 18 385 15 383 14 c 0
 382 14 381 13 380 13 c 0
 379 13 380 13 379 13 c 2
 378 13 l 2
 374.094 13 368.801 18.7952 368.801 26.9797 c 0
 368.801 34.2615 371.273 47.3667 373 56 c 0
 378 82 379 102 382 132 c 0
 382.667 141.333 383 149.444 383 157.37 c 0
 383 173.222 381.667 188.333 379 211 c 0
 378 213 379 216 378 218 c 0
 373 242 368 253 358 253 c 0
 356 253 353 253 351 252 c 0
 342 248 328 230 320 216 c 0
 312 202 293 159 284 145 c 1
 255 86 l 1
 248 68 238 51 225 34 c 0
 217 24 210 19 201 19 c 0x6d
 195 19 189 21 182 25 c 0x6b
 169 33 165 46 165 64 c 0x6d
 165 70 165 75 166 82 c 0
 170 117 182 159 182 224 c 0
 182 241 175 257 164 257 c 0
 162 257 159 256 157 255 c 0
 135 243 133 228 114 195 c 0
 82 140 57 86.9797 41 26.9797 c 0
 36 9.9797 30 1 23 1 c 0x9b
 21 1 18 2 16 3 c 0
 12 5 10 11 10 19 c 0x4b
EndSplineSet
EndChar

StartChar: poT
Encoding: 58393 58393 44
Width: 358
VWidth: 341
Flags: W
HStem: 0 21G<26.5 29.5> 0 21G<26.5 29.5> 39 28<258.795 302.895> 252 49<156.232 216.594>
VStem: 10 27<1.09742 61.6356> 234 32<76.1414 227.237>
LayerCount: 2
Fore
SplineSet
10 24 m 0xbc
 10 34 13 47 18 64 c 0
 30 102 50 143 76 185 c 0
 102 227 129 259 158 281 c 0
 176 294 193 301 209 301 c 0
 220 301 230 298 239 293 c 0
 245 289 252 278 258 257 c 0
 263 240 266 221 266 197 c 0
 266 190 265 184 265 177 c 0
 263 162 260 146 258 132 c 0
 256 118 254 104 252 91 c 0
 250 80 255 73 265 69 c 0
 270 67 274 67 278 67 c 0
 291 67 302 75 310 93 c 0
 321 116 333 130 344 132 c 0
 347 133 348 130 348 125 c 0
 348 122 348 120 347 116 c 0
 345 105 339 93 331 80 c 0
 323 67 311 56 297 47 c 0
 289 42 279 39 269 39 c 0
 262 39 254 41 246 43 c 0
 232 47 225 58 225 76 c 0
 225 79 226 83 226 87 c 0
 229 111 231 129 233 143 c 0
 234 148 234 153 234 159 c 0
 234 180 229 200 221 221 c 0
 213 241 202 252 190 252 c 0
 186 252 182 251 178 249 c 0
 152 238 130 219 109 189 c 0
 88 159 75 130 65 103 c 0
 60 89 56 78 52 67 c 0
 47 50 46 50 42 36 c 0
 40 27 39 18 37 10 c 0
 35 4 32 0 27 0 c 0
 26 0 25 1 23 1 c 0
 15 3 10 10 10 24 c 0xbc
EndSplineSet
EndChar

StartChar: clNEpi
Encoding: 58394 58394 45
Width: 507
VWidth: 429
Flags: W
HStem: 0 21G<20.5 30> 0 21G<20.5 30> 85 62<394.142 432.003> 100 36<248.294 290.724> 223 34<353.504 391.93> 269 49.625<134.291 196.187> 301 38<98.1413 137.906>
VStem: 10 28<0.363979 90.2344> 219 29<136.13 232.072> 374 61<87.3274 144.381>
LayerCount: 2
Fore
SplineSet
10 27 m 0x9dc0
 10 36 11 47 14 60 c 0
 22 100 36 141 57 186 c 0
 78 231 101 266 128 291 c 0
 128.377 291.339 128.754 291.676 129.13 292.009 c 0
 132.141 295.273 135.092 297.964 138 300 c 1
 136 300 134 301 132 301 c 0
 112 306 98 310 92 315 c 0
 87 320 85 324 84 329 c 0
 83 334 88 336 98 338 c 0
 101 338 105 339 108 339 c 0x8bc0
 118 339 128 337 138 333 c 0
 152 328 166 324 178 320 c 0
 180.282 319.544 182.694 319.217 185.497 318.998 c 2
 186 319 l 2
 188.22 319 190.542 318.899 192.899 318.666 c 0
 194.368 318.638 195.937 318.625 197.625 318.625 c 0
 201.625 318.625 206 318 210 319 c 0
 225 321 241 323 256 327 c 0
 265 330 278 330 290 331 c 0
 292 331 292 331 294 331 c 0
 304 331 311 329 318 328 c 1
 322 326 324 323 324 320 c 0
 324 316 322 313 316 309 c 1
 289 298 265 294 246 293 c 0
 241.279 293 233.104 292.666 227.156 292.628 c 1
 228.737 289.691 230.352 286.48 232 283 c 0
 241 264 246 238 248 206 c 0
 248 202 249 197 249 190 c 0
 249 183 248 170 248 159 c 0
 248 144 253 136 262 136 c 0
 264 136 266 136 269 137 c 0
 280 141 288 148 294 159 c 0
 300 170 305 182 310 195 c 0
 315 208 322 221 329 232 c 0
 336 243 348 252 363 256 c 0
 366 257 369 257 372 257 c 0
 380 257 387 254 393 248 c 0
 401 240 408 232 414 222 c 0
 420 212 428 203 435 197 c 0
 442 191 452 191 463 197 c 0
 469 201 477 204 488 209 c 0
 494 212 497 211 497 208 c 0
 497 205 495 201 490 194 c 0
 485 187 475 179 460 171 c 0
 454 168 449 166 443 166 c 0
 434 166 426 170 417 177 c 1
 411 183 402 192 392 206 c 0
 384 217 376 223 367 223 c 0
 365 223 362 223 360 222 c 0
 355 220 349 212 342 197 c 0
 335 182 327 165 319 150 c 0
 315 144 312 138 307 132 c 0
 301 124 300 123 293 114 c 0
 284 104 274 100 262 100 c 0
 260 100 257 100 255 100 c 0
 238 104 229 111 225 126 c 0
 221 141 219 153 219 168 c 0
 219 195 213 220 199 243 c 0
 189 259 179 269 168 269 c 0
 164 269 159 267 154 264 c 0
 130 249 108 225 91 193 c 0
 74 161 61.999 134 55.999 106 c 0
 51.999 92 49 78 47 67 c 0
 44 50 43 51 41 36 c 0
 39 26 39 18 38 11 c 0
 37 4 34 0 26 0 c 0
 15 1 10 9 10 27 c 0x9dc0
374 113 m 0
 374 122 377 129 383 135 c 0
 390 142 396 146 406 147 c 0
 407 147 407 147 408 147 c 0
 417 147 426 140 433 128 c 0
 434 125 435 121 435 118 c 0
 435 112 432 105 426 97 c 0
 419 88 413 85 405 85 c 0x29c0
 402 85 397 86 394 87 c 0
 381 94 374 100 374 113 c 0
EndSplineSet
EndChar

StartChar: clEpi
Encoding: 58395 58395 46
Width: 507
VWidth: 429
Flags: W
HStem: 0 21G<20.5 30> 0 21G<20.5 30> 85 62<394.142 432.003> 100 36<248.294 290.724> 223 34<353.504 391.93> 269 50<135.405 196.242>
VStem: 10 28<0.363979 90.2344> 219 29<136.13 232.072> 374 61<87.3274 144.381>
LayerCount: 2
Fore
SplineSet
374 113 m 0x2f80
 374 122 377 129 383 135 c 0
 390 142 396 146 406 147 c 0
 407 147 407 147 408 147 c 0
 417 147 426 140 433 128 c 0
 434 125 435 121 435 118 c 0
 435 112 432 105 426 97 c 0
 419 88 413 85 405 85 c 0
 402 85 397 86 394 87 c 0
 381 94 374 100 374 113 c 0x2f80
10 27 m 0
 10 36 11 47 14 60 c 0
 22 100 36 141 57 186 c 0
 78 231 101 266 128 291 c 0
 148 309 167 319 186 319 c 0
 193 319 201 318 208 315 c 0
 215 313 223 302 232 283 c 0
 241 264 246 238 248 206 c 0
 248 202 249 197 249 190 c 0
 249 183 248 170 248 159 c 0
 248 144 253 136 262 136 c 0
 264 136 266 136 269 137 c 0
 280 141 288 148 294 159 c 0
 300 170 305 182 310 195 c 0
 315 208 322 221 329 232 c 0
 336 243 348 252 363 256 c 0
 366 257 369 257 372 257 c 0
 380 257 387 254 393 248 c 0
 401 240 408 232 414 222 c 0
 420 212 428 203 435 197 c 0
 442 191 452 191 463 197 c 0
 469 201 477 204 488 209 c 0
 494 212 497 211 497 208 c 0
 497 205 495 201 490 194 c 0
 485 187 475 179 460 171 c 0
 454 168 449 166 443 166 c 0
 434 166 426 170 417 177 c 1
 411 183 402 192 392 206 c 0
 384 217 376 223 367 223 c 0
 365 223 362 223 360 222 c 0
 355 220 349 212 342 197 c 0
 335 182 327 165 319 150 c 0
 315 144 312 138 307 132 c 0
 301 124 300 123 293 114 c 0
 284 104 274 100 262 100 c 0
 260 100 257 100 255 100 c 0
 238 104 229 111 225 126 c 0
 221 141 219 153 219 168 c 0
 219 195 213 220 199 243 c 0
 189 259 179 269 168 269 c 0
 164 269 159 267 154 264 c 0
 130 249 108 225 91 193 c 0
 74 161 62 134 56 106 c 0
 52 92 49 78 47 67 c 0
 44 50 43 51 41 36 c 0
 39 26 39 18 38 11 c 0
 37 4 34 0 26 0 c 0x9f80
 15 1 10 9 10 27 c 0
EndSplineSet
EndChar

StartChar: clEpr
Encoding: 58397 58397 47
Width: 499
VWidth: 370
Flags: W
HStem: 0 21G<19 28> 0 21G<19 28> 133 62<392.142 430.003> 244 48<166.388 220.191> 272 29<363.092 389.956>
VStem: 232 33<160 229.17> 372 61<135.327 192.381>
LayerCount: 2
Fore
SplineSet
372 161 m 0x26
 372 170 375 177 381 183 c 0
 388 190 394 194 404 195 c 0
 405 195 405 195 406 195 c 0
 415 195 424 188 431 176 c 0
 432 173 433 169 433 166 c 0
 433 160 430 153 424 145 c 0
 417 136 411 133 403 133 c 0
 400 133 395 134 392 135 c 0
 379 142 372 148 372 161 c 0x26
10 22 m 0
 10 32 13 46 18 63 c 0
 30 102 44 131 70 173 c 0
 103 226 148 268 166 279 c 0
 174 284 200 292 213 292 c 0
 214 292 215 292 216 292 c 0xb6
 229 289 240 284 247 278 c 0
 252 273 257 260 261 242 c 0
 264 230 265 216 265 201 c 0
 265 193 265 185 264 176 c 0
 264 171 263 165 263 160 c 1
 267 169 272 180 281 196 c 0
 290 213 302 233 315 257 c 0
 328 281 346 297 368 300 c 0
 371 301 373 301 375 301 c 0x2e
 382 301 388 297 394 290 c 0
 402 281 406 275 413 266 c 0
 420 257 423 252 431 244 c 0x36
 439 236 447 235 456 239 c 0
 463 242 473 245 482 248 c 0
 487 250 489 249 489 246 c 0
 489 244 487 240 482 235 c 1
 477 228 467 225 452 219 c 0
 447 217 444 217 440 217 c 0
 430 218 420 222 412 229 c 0
 404 235 400 243 392 255 c 0
 385 265 375 271 367 272 c 0
 365 272 365 273 363 272 c 0x2e
 359 270 355 265 348 256 c 0
 341 247 338 236 331 225 c 0
 321 207 322 209 312 192 c 0
 306 182 301 170 299 166 c 0
 298 165 296 158 286 140 c 0
 276 122 266 104 256 86 c 0
 252 78 247 71 243 65 c 1
 237 50 229 41 220 40 c 0
 219 40 218 40 217 40 c 0
 213 40 211 41 211 45 c 0
 211 46 211 48 211 50 c 0
 211 51 211 53 211 54 c 2
 211 55 l 2
 211 58 215 65 220 76 c 1
 226 95 228 113 231 137 c 0
 231 143 232 148 232 153 c 0
 232 172 229 189 224 212 c 0
 219 234 201 244 186 244 c 0
 181 244 177 243 173 241 c 0
 157 231 133 215 104 172 c 0
 76 130 76 119 64 96 c 0
 54 76 45 51 40 30 c 0
 35 11 31 0 25 0 c 0
 24 0 24 0 23 0 c 0xb6
 15 2 10 9 10 22 c 0
EndSplineSet
EndChar

StartChar: clEclS
Encoding: 58399 58399 48
Width: 563
VWidth: 342
Flags: W
HStem: 0 21G<20 25> 0 19G<20 25 176 194.5> 90 34<462.261 546.665> 98 23<520.608 553> 251 55<366.495 420.085> 258 48<149.436 195>
VStem: 157 31<29.3352 111.758> 190 30<136.014 257.993> 437 32<120.844 227.204>
LayerCount: 2
Fore
SplineSet
10 16 m 0x8780
 10 28 15 45 24 71 c 0
 38 112 58 155 83 197 c 0
 108 239 132 270 156 290 c 0
 168 300 180 306 190 306 c 0
 200 306 208 301 215 292 c 0
 218 288 220 277 220 260 c 0
 220 256 220 252 220 248 c 0
 219 224 216 195 210 159 c 0
 208 145 204 131 200 117 c 0
 196 103 193 88 191 74 c 0
 189 65 188 57 188 51 c 0
 188 45 189 41 191 37 c 0
 194 30 198 26 202 30 c 0
 207 34 213 44 220 58 c 0
 227 72 235 86 242 103 c 0
 253 127 253 128 263 151 c 0
 269 166 276 177 280 184 c 0
 306 226 333 259 362 281 c 0
 379 294 395 301 411 301 c 0
 422 301 432 298 442 292 c 0
 448 288 455 277 461 256 c 0
 466 239 469 221 469 197 c 0
 469 191 468 184 468 177 c 0
 466 157 464 138 462 120 c 1
 484 122 504 124 520 124 c 0xa780
 533 124 544 123 553 121 c 1
 553 118 553 116 553 114 c 0
 553 110 553 107 553 106 c 0
 553 104 552 100 547 98 c 0x1380
 540 94 523 93 497 91 c 0
 487 90 478 90 471 90 c 0
 460 90 453 91 450 92 c 0
 436 97 430 102 432 110 c 0
 434 118 434 128 436 142 c 0
 437 148 437 153 437 159 c 0
 437 180 433 201 424 221 c 0
 416 241 406 251 394 251 c 0x2b80
 390 251 387 250 383 248 c 0
 357 237 333 217 312 187 c 0
 291 157 278 130 268 103 c 0
 266 95 261 84 255 70 c 0
 249 56 241 42 233 30 c 0
 225 18 216 8 206 2 c 0
 201 -1 197 -2 192 -2 c 1
 176 3 l 1
 164 11 157 22 157 38 c 0
 157 44 158 51 160 58 c 0
 169 98 170 99 176 129 c 0
 182 159 188 188 190 219 c 0
 190 223 190 227 190 231 c 0
 190 249 187 258 179 258 c 0
 177 258 175 258 173 257 c 0
 153 248 133 227 114 194 c 0
 95 161 79 131 68 103 c 0
 57 74 47 49 41 27 c 0
 36 9 29 0 21 0 c 0
 19 0 18 1 16 2 c 0
 12 4 10 9 10 16 c 0x8780
EndSplineSet
EndChar

StartChar: clS1
Encoding: 58400 58400 49
Width: 353
VWidth: 311
Flags: W
HStem: -1 21G<319.5 332.5> -1 21G<319.5 332.5> 279 20G<143.5 148.5>
LayerCount: 2
Fore
SplineSet
10 101 m 0xa0
 10 110 19 128 35 153 c 0
 67 202 66 200 98 249 c 0
 120 281 125 287 136 297 c 1
 139 298 142 299 145 299 c 0
 152 299 158 296 168 286 c 0
 182 272 197 254 210 233 c 0
 278 125 277 126 324 54 c 0
 338 32 343 19 343 12 c 0
 343 2 336 0 329 -1 c 1
 310 9 301 19 257 83 c 1
 140 260 l 1
 123 238 119 232 91 190 c 0
 64 148 48 121 38 109 c 0
 30 100 23 94 17 94 c 0
 15 94 13 95 12 96 c 0
 11 97 10 99 10 101 c 0xa0
EndSplineSet
EndChar

StartChar: clSN1
Encoding: 58401 58401 50
Width: 353
VWidth: 320
Flags: W
HStem: -1 21G<319.5 332.5> -1 21G<319.5 332.5> 300 20G<70.5 84.5> 300 20G<70.5 84.5>
LayerCount: 2
Fore
SplineSet
10 101 m 0xa0
 10 110 19 128 35 153 c 0
 67 202 66 200 98 249 c 0
 110 266 116 275 122 282 c 1
 116 283 109 285 99 288 c 0
 85 292 75 296 71 300 c 0
 67 304 64 308 64 313 c 0
 64 317 67 319 74 320 c 0
 76 320 79 320 81 320 c 0
 88 320 95 319 102 316 c 0
 112 312 123 308 131 304 c 0
 135 303 138 302 145 302 c 0
 147 302 151 301 154 302 c 0
 165 303 175 305 186 309 c 0
 193 311 201 311 209 312 c 0
 210 312 212 312 213 312 c 0
 220 312 225 310 230 309 c 1
 233 307 234 305 234 302 c 0
 234 299 232 296 228 293 c 0
 209 284 192 281 179 280 c 1
 174 280 l 1
 186 267 199 251 210 233 c 0
 278 125 277 126 324 54 c 0
 338 32 343 19 343 12 c 0
 343 2 336 0 329 -1 c 1
 310 9 301 19 257 83 c 1
 140 260 l 1
 123 238 119 232 91 190 c 0
 64 148 48 121 38 109 c 0
 30 100 23 94 17 94 c 0
 15 94 13 95 12 96 c 0
 11 97 10 99 10 101 c 0xa0
EndSplineSet
EndChar

StartChar: clS
Encoding: 58402 58402 51
Width: 360
VWidth: 310
Flags: W
HStem: 0 21G<25.5 29> 0 21G<25.5 29> 91 33<258.062 347.529> 100 21<310.702 349.572> 250 42<149.871 220.575>
VStem: 10 26<1.09742 61.0706> 233 31<121 221.11>
LayerCount: 2
Fore
SplineSet
10 23 m 0xae
 10 34 13 48 18 65 c 0
 30 103 49 143 75 185 c 0
 101 227 129 256 158 278 c 0
 172 289 188 292 201 292 c 0
 214 292 225 289 229 285 c 1
 235 281 247 277 253 256 c 0
 258 237 264 216 264 188 c 0
 264 185 264 181 264 177 c 0
 262 158 260 139 258 121 c 1x9e
 278 123 295 124 310 124 c 0x2e
 325 124 338 123 348 121 c 1
 349 113 350 109 350 107 c 0
 350 105 347 102 342 100 c 0x1e
 335 97 319 95 293 93 c 0
 280 92 270 91 262 91 c 0
 254 91 248 92 246 93 c 0
 232 98 226 103 228 111 c 0
 230 119 230 130 232 144 c 0
 233 152 233 159 233 166 c 0
 233 185 230 203 224 222 c 0
 217 241 203 250 190 250 c 0
 188 250 186 249 184 249 c 0
 155 240 130 219 109 189 c 0
 88 159 74 131 64 104 c 0
 59 90 55 79 51 68 c 0
 46 51 46 51 42 37 c 0
 40 28 38 19 36 11 c 0
 34 4 32 0 26 0 c 0
 25 0 23 1 22 1 c 0
 14 3 10 10 10 23 c 0xae
EndSplineSet
EndChar

StartChar: clSN
Encoding: 58403 58403 52
Width: 364
VWidth: 310
Flags: W
HStem: 0 21G<26.5 29.5> 0 21G<26.5 29.5> 91 33<258.214 331> 252 42<150.475 218.118>
VStem: 10 26<1.09742 56.9531> 332 22<51.4915 96 123 138.52>
LayerCount: 2
Fore
SplineSet
10 24 m 0xbc
 10 34 13 47 18 64 c 0
 30 102 50 143 76 185 c 0
 102 227 123 253 152 275 c 0
 169 288 184 294 199 294 c 0
 209 294 219 291 229 285 c 1
 242 275 246 269 252 253 c 0
 259 232 262 209 264 177 c 1
 262 158 260 139 258 121 c 1
 276 123 291 124 305 124 c 0
 315 124 324 124 332 123 c 1
 332 126 331 130 332 133 c 1
 337 137 342 138 344 139 c 0
 346 140 347 137 349 133 c 1
 351 124 354 110 354 90 c 0
 354 70 353 57 351 49 c 1
 342 48 337 51 335 55 c 0
 333 60 331 70 331 81 c 0
 331 83 331 85 331 87 c 0
 332 90 331 94 331 96 c 1
 322 94 310 95 293 93 c 0
 280 92 270 91 262 91 c 0
 254 91 250 92 247 93 c 0
 233 98 226 102 228 110 c 0
 230 118 230 129 232 143 c 0
 233 149 233 156 233 163 c 0
 233 184 229 205 221 225 c 0
 215 241 201 252 187 252 c 0
 183 252 179 251 175 249 c 0
 149 238 130 219 109 189 c 0
 88 159 74 130 64 103 c 0
 59 89 56 78 52 67 c 0
 47 50 46 50 42 36 c 0
 40 27 38 18 36 10 c 0
 34 4 32 0 27 0 c 0
 26 0 25 1 23 1 c 0
 15 3 10 10 10 24 c 0xbc
EndSplineSet
EndChar

StartChar: cl
Encoding: 58405 58405 53
Width: 275
VWidth: 306
Flags: W
HStem: 247 48<166.388 220.191>
VStem: 211 39<48.4044 135.017> 232 33<83.2234 232.17>
LayerCount: 2
Fore
SplineSet
10 25 m 0xa0
 10 35 13 49 18 66 c 0
 30 105 44 134 70 176 c 0
 103 229 148 271 166 282 c 0
 174 287 200 295 213 295 c 0
 214 295 215 295 216 295 c 0
 229 292 240 287 247 281 c 0
 252 276 257 263 261 245 c 0
 264 233 265 219 265 204 c 0xa0
 265 196 265 188 264 179 c 0
 262 146 257 115 250 88 c 0
 243 61 233 45 220 43 c 0
 219 43 218 43 217 43 c 0
 213 43 211 44 211 48 c 0xc0
 211 53 213 60 217 71 c 0
 225 93 228 113 231 140 c 0
 231 146 232 151 232 156 c 0
 232 175 229 192 224 215 c 0
 219 237 201 247 186 247 c 0
 181 247 177 246 173 244 c 0
 157 234 133 218 104 175 c 0
 76 133 76 122 64 99 c 0
 54 79 45 54 40 33 c 0
 35 14 31 3 25 3 c 0
 24 3 24 3 23 3 c 0
 15 5 10 12 10 25 c 0xa0
EndSplineSet
EndChar

StartChar: poG
Encoding: 58408 58408 54
Width: 462
VWidth: 380
Flags: W
HStem: 247 50<155.844 220.351> 279 18<156 201> 280 38<122.141 160.907>
VStem: 211 39<48.4044 135.017> 232 33<83.2234 232.17>
LayerCount: 2
Fore
SplineSet
287 35 m 2x00
 287 36 l 2
 287 47 297 69 315 101 c 0
 341 149 338 141 354 172 c 0
 365 194 379 217 385 230 c 0
 391 243 397 256 404 269 c 0
 411 282 412 284 420 294 c 0
 428 304 434 309 441 309 c 2
 442 309 l 2
 448 309 452 304 452 298 c 0
 452 295 452 294 449 287 c 0
 444 277 442 272 434 254 c 1
 420 230 422 228 389 172 c 0
 356 116 356 116 338 84 c 1
 324 62 315 46 304 34 c 0
 298 28 295 26 292 26 c 0
 289 26 287 29 287 35 c 2x00
10 25 m 0
 10 35 13 49 18 66 c 0
 30 105 44 134 70 176 c 0
 100 225 141 265 161 279 c 1x48
 159 279 158 280 156 280 c 0
 136 285 122 289 116 294 c 0
 111 299 108 303 107 308 c 0
 106 313 112 315 122 317 c 0
 125 317 128 318 131 318 c 0x28
 141 318 151 316 161 312 c 0
 175 307 189 303 201 299 c 0
 206 298 213 297 222 297 c 0
 226 297 230 297 234 298 c 0
 249 300 265 302 280 306 c 0
 289 309 301 309 313 310 c 0
 315 310 315 310 317 310 c 0
 327 310 335 308 342 307 c 1
 346 305 348 302 348 299 c 0
 348 295 345 292 339 288 c 1
 312 277 288 273 269 272 c 0
 264 272 259 272 253 272 c 1
 256 265 259 256 261 245 c 0
 264 233 265 219 265 204 c 0x48
 265 196 265 188 264 179 c 0
 262 146 257 115 250 88 c 0
 243 61 233 45 220 43 c 0
 219 43 218 43 217 43 c 0
 213 43 211 44 211 48 c 0x50
 211 53 213 60 217 71 c 0
 225 93 228 113 231 140 c 0
 231 146 232 151 232 156 c 0
 232 175 229 192 224 215 c 0
 219 237 201 247 186 247 c 0x88
 181 247 177 246 173 244 c 0
 157 234 133 218 104 175 c 0
 76 133 76 122 64 99 c 0
 54 79 45 54 40 33 c 0
 35 14 31 3 25 3 c 0
 24 3 24 3 23 3 c 0
 15 5 10 12 10 25 c 0
EndSplineSet
EndChar

StartChar: poGN
Encoding: 58409 58409 55
Width: 491
VWidth: 380
Flags: W
HStem: 247 50<155.844 220.351> 272 38<253.368 269 439.287 480.859> 280 38<122.141 160.997> 288 19<317.467 347.822> 321 20G<393 400.5>
VStem: 211 39<48.4044 135.017> 232 33<83.2234 232.17>
LayerCount: 2
Fore
SplineSet
280 38 m 2x88
 280 39 l 2
 280 50 290 72 308 104 c 0
 334 152 331 144 347 175 c 0
 368 216 392 256 400 270 c 0
 406 280 409 288 415 297 c 1
 414 298 l 1
 404 304 385 312 385 326 c 0
 385 331 389 340 397 341 c 1
 404 339 400 340 418 328 c 1
 428 318 449 306 465 304 c 0
 475 303 483 296 481 286 c 1
 478 279 474 277 467 277 c 0
 459 278 445 282 439 284 c 1
 436 277 433 271 427 257 c 1
 413 233 415 231 382 175 c 0
 349 119 349 119 331 87 c 1
 317 65 308 49 297 37 c 0
 291 31 288 29 285 29 c 0
 282 29 280 32 280 38 c 2x88
10 25 m 0
 10 35 13 49 18 66 c 0
 30 105 44 134 70 176 c 0
 100 225 141 265 161 279 c 1
 159 279 158 280 156 280 c 0
 136 285 122 289 116 294 c 0
 111 299 108 303 107 308 c 0
 106 313 112 315 122 317 c 0
 125 317 128 318 131 318 c 0x2a
 141 318 151 316 161 312 c 0
 175 307 189 303 201 299 c 0
 206 298 213 297 222 297 c 0x8a
 226 297 230 297 234 298 c 0
 249 300 265 302 280 306 c 0
 289 309 301 309 313 310 c 0
 315 310 315 310 317 310 c 0x4a
 327 310 335 308 342 307 c 1
 346 305 348 302 348 299 c 0
 348 295 345 292 339 288 c 1x1a
 312 277 288 273 269 272 c 0
 264 272 259 272 253 272 c 1
 256 265 259 256 261 245 c 0
 264 233 265 219 265 204 c 0x4a
 265 196 265 188 264 179 c 0
 262 146 257 115 250 88 c 0
 243 61 233 45 220 43 c 0
 219 43 218 43 217 43 c 0
 213 43 211 44 211 48 c 0x4c
 211 53 213 60 217 71 c 0
 225 93 228 113 231 140 c 0
 231 146 232 151 232 156 c 0x4a
 232 175 229 192 224 215 c 0
 219 237 201 247 186 247 c 0
 181 247 177 246 173 244 c 0
 157 234 133 218 104 175 c 0
 76 133 76 122 64 99 c 0
 54 79 45 54 40 33 c 0
 35 14 31 3 25 3 c 0
 24 3 24 3 23 3 c 0
 15 5 10 12 10 25 c 0
EndSplineSet
EndChar

StartChar: ciG1
Encoding: 58410 58410 56
Width: 463
VWidth: 310
Flags: W
HStem: -15 62<412.142 450.003> 85 62<322.142 360.003> 206 33<258.062 347.529> 215 21<310.702 349.572> 365 42<149.871 220.575>
VStem: 10 26<116.097 176.071> 233 31<236 336.11> 302 61<87.3274 144.381> 392 61<-12.6726 44.3807>
LayerCount: 2
Fore
SplineSet
392 13 m 0xcf80
 392 22 395 29 401 35 c 0
 408 42 414 46 424 47 c 0
 425 47 425 47 426 47 c 0
 435 47 444 40 451 28 c 0
 452 25 453 21 453 18 c 0
 453 12 450 5 444 -3 c 0
 437 -12 431 -15 423 -15 c 0
 420 -15 415 -14 412 -13 c 0
 399 -6 392 0 392 13 c 0xcf80
302 113 m 0
 302 122 305 129 311 135 c 0
 318 142 324 146 334 147 c 0
 335 147 335 147 336 147 c 0
 345 147 354 140 361 128 c 0
 362 125 363 121 363 118 c 0
 363 112 360 105 354 97 c 0
 347 88 341 85 333 85 c 0
 330 85 325 86 322 87 c 0
 309 94 302 100 302 113 c 0
10 138 m 0
 10 149 13 163 18 180 c 0
 30 218 49 258 75 300 c 0
 101 342 129 371 158 393 c 0
 172 404 188 407 201 407 c 0
 214 407 225 404 229 400 c 1
 235 396 247 392 253 371 c 0
 258 352 264 331 264 303 c 0
 264 300 264 296 264 292 c 0
 262 273 260 254 258 236 c 1xdf80
 278 238 295 239 310 239 c 0xef80
 325 239 338 238 348 236 c 1
 349 228 350 224 350 222 c 0
 350 220 347 217 342 215 c 0xdf80
 335 212 319 210 293 208 c 0
 280 207 270 206 262 206 c 0xef80
 254 206 248 207 246 208 c 0
 232 213 226 218 228 226 c 0
 230 234 230 245 232 259 c 0
 233 267 233 274 233 281 c 0
 233 300 230 318 224 337 c 0
 217 356 203 365 190 365 c 0
 188 365 186 364 184 364 c 0
 155 355 130 334 109 304 c 0
 88 274 74 246 64 219 c 0
 59 205 55 194 51 183 c 0
 46 166 46 166 42 152 c 0
 40 143 38 134 36 126 c 0
 34 119 32 115 26 115 c 0
 25 115 23 116 22 116 c 0
 14 118 10 125 10 138 c 0
EndSplineSet
EndChar

StartChar: clSsu1sut1
Encoding: 58411 58411 57
Width: 540
VWidth: 310
Flags: W
HStem: 10 37<386.265 520.479> 11 29<376.003 455.411 471.307 528.515> 85 62<322.142 360.003> 206 33<258.062 347.529> 215 21<310.702 349.572> 365 42<149.871 220.575>
VStem: 10 26<116.097 176.071> 233 31<236 336.11> 302 61<87.3274 144.381>
LayerCount: 2
Fore
SplineSet
372 33 m 0x6780
 372 36 376 38 382 40 c 0x6780
 396 44 423 46 457 47 c 0
 462 47 466 47 470 47 c 0
 498 47 518 45 530 43 c 1
 530 41 530 38 530 36 c 0
 530 26 527 19 521 16 c 0
 510 11 492 10 465 10 c 0xa780
 438 10 412 10 385 11 c 1
 379 19 375 27 373 31 c 0
 373 32 372 32 372 33 c 0x6780
302 113 m 0
 302 122 305 129 311 135 c 0
 318 142 324 146 334 147 c 0
 335 147 335 147 336 147 c 0
 345 147 354 140 361 128 c 0
 362 125 363 121 363 118 c 0
 363 112 360 105 354 97 c 0
 347 88 341 85 333 85 c 0
 330 85 325 86 322 87 c 0
 309 94 302 100 302 113 c 0
10 138 m 0
 10 149 13 163 18 180 c 0
 30 218 49 258 75 300 c 0
 101 342 129 371 158 393 c 0
 172 404 188 407 201 407 c 0
 214 407 225 404 229 400 c 1
 235 396 247 392 253 371 c 0
 258 352 264 331 264 303 c 0
 264 300 264 296 264 292 c 0
 262 273 260 254 258 236 c 1x2f80
 278 238 295 239 310 239 c 0x3780
 325 239 338 238 348 236 c 1
 349 228 350 224 350 222 c 0
 350 220 347 217 342 215 c 0x2f80
 335 212 319 210 293 208 c 0
 280 207 270 206 262 206 c 0x3780
 254 206 248 207 246 208 c 0
 232 213 226 218 228 226 c 0
 230 234 230 245 232 259 c 0
 233 267 233 274 233 281 c 0
 233 300 230 318 224 337 c 0
 217 356 203 365 190 365 c 0
 188 365 186 364 184 364 c 0
 155 355 130 334 109 304 c 0
 88 274 74 246 64 219 c 0
 59 205 55 194 51 183 c 0
 46 166 46 166 42 152 c 0
 40 143 38 134 36 126 c 0
 34 119 32 115 26 115 c 0
 25 115 23 116 22 116 c 0
 14 118 10 125 10 138 c 0
EndSplineSet
EndChar

StartChar: clSsux1
Encoding: 58412 58412 58
Width: 405
VWidth: 310
Flags: W
HStem: 103 33<258.062 347.529> 112 21<310.702 349.572> 262 42<149.871 220.575>
VStem: 10 26<13.0974 73.0706> 233 31<133 233.11> 361 34.155<-18.8362 33>
LayerCount: 2
Fore
SplineSet
302 -63 m 0x3c
 302 -61 305 -58 308 -56 c 0
 314 -51 325 -41 342 -28 c 0
 353 -20 360 -11 361 -3 c 0
 362 1 360 6 359 10 c 0
 357 15 350 19 340 23 c 0
 330 27 325 30 325 34 c 0
 325 43 330 51 337 58 c 0
 343 64 351 66 359 65 c 0
 361 65 362 63 364 63 c 0
 380 56 391 45 394 33 c 0
 394.845 30.4641 395.155 27.9282 395.155 25.3168 c 0
 395.155 21.7496 394.577 18.0415 394 14 c 0
 393 8 391 3 388 -4 c 0
 382 -17 370 -29 355 -41 c 0
 340 -53 325 -60 309 -67 c 0
 308 -68 308 -68 307 -68 c 2
 303 -65 l 2
 302 -64 302 -64 302 -63 c 0x3c
10 35 m 0
 10 46 13 60 18 77 c 0
 30 115 49 155 75 197 c 0
 101 239 129 268 158 290 c 0
 172 301 188 304 201 304 c 0
 214 304 225 301 229 297 c 1
 235 293 247 289 253 268 c 0
 258 249 264 228 264 200 c 0
 264 197 264 193 264 189 c 0
 262 170 260 151 258 133 c 1x7c
 278 135 295 136 310 136 c 0xbc
 325 136 338 135 348 133 c 1
 349 125 350 121 350 119 c 0
 350 117 347 114 342 112 c 0x7c
 335 109 319 107 293 105 c 0
 280 104 270 103 262 103 c 0xbc
 254 103 248 104 246 105 c 0
 232 110 226 115 228 123 c 0
 230 131 230 142 232 156 c 0
 233 164 233 171 233 178 c 0
 233 197 230 215 224 234 c 0
 217 253 203 262 190 262 c 0
 188 262 186 261 184 261 c 0
 155 252 130 231 109 201 c 0
 88 171 74 143 64 116 c 0
 59 102 55 91 51 80 c 0
 46 63 46 63 42 49 c 0
 40 40 38 31 36 23 c 0
 34 16 32 12 26 12 c 0
 25 12 23 13 22 13 c 0
 14 15 10 22 10 35 c 0
EndSplineSet
EndChar

StartChar: clSsut1sux1
Encoding: 58413 58413 59
Width: 480
VWidth: 310
Flags: W
HStem: 122 37<274.336 420.479> 123 29<276.003 355.411 371.307 428.515> 217 33<258.062 347.529> 226 21<310.702 349.572> 376 42<149.871 220.575>
VStem: 10 26<127.097 187.071> 233 31<247 347.11> 436 34.155<-18.8362 33>
LayerCount: 2
Fore
SplineSet
377 -63 m 0x0f
 377 -61 380 -58 383 -56 c 0
 389 -51 400 -41 417 -28 c 0
 428 -20 435 -11 436 -3 c 0
 437 1 435 6 434 10 c 0
 432 15 425 19 415 23 c 0
 405 27 400 30 400 34 c 0
 400 43 405 51 412 58 c 0
 418 64 426 66 434 65 c 0
 436 65 437 63 439 63 c 0
 455 56 466 45 469 33 c 0
 469.845 30.4641 470.155 27.9282 470.155 25.3168 c 0
 470.155 21.7496 469.577 18.0415 469 14 c 0
 468 8 466 3 463 -4 c 0
 457 -17 445 -29 430 -41 c 0
 415 -53 400 -60 384 -67 c 0
 383 -68 383 -68 382 -68 c 2
 378 -65 l 2
 377 -64 377 -64 377 -63 c 0x0f
272 145 m 0
 272 148 276 150 282 152 c 0x4f
 296 156 323 158 357 159 c 0
 362 159 366 159 370 159 c 0
 398 159 418 157 430 155 c 1
 430 153 430 150 430 148 c 0
 430 138 427 131 421 128 c 0
 410 123 392 122 365 122 c 0x8f
 338 122 312 122 285 123 c 1x4f
 279 131 275 139 273 143 c 0
 273 144 272 144 272 145 c 0
10 149 m 0
 10 160 13 174 18 191 c 0
 30 229 49 269 75 311 c 0
 101 353 129 382 158 404 c 0
 172 415 188 418 201 418 c 0
 214 418 225 415 229 411 c 1
 235 407 247 403 253 382 c 0
 258 363 264 342 264 314 c 0
 264 311 264 307 264 303 c 0
 262 284 260 265 258 247 c 1x1f
 278 249 295 250 310 250 c 0x2f
 325 250 338 249 348 247 c 1
 349 239 350 235 350 233 c 0
 350 231 347 228 342 226 c 0x1f
 335 223 319 221 293 219 c 0
 280 218 270 217 262 217 c 0x2f
 254 217 248 218 246 219 c 0
 232 224 226 229 228 237 c 0
 230 245 230 256 232 270 c 0
 233 278 233 285 233 292 c 0
 233 311 230 329 224 348 c 0
 217 367 203 376 190 376 c 0
 188 376 186 375 184 375 c 0
 155 366 130 345 109 315 c 0
 88 285 74 257 64 230 c 0
 59 216 55 205 51 194 c 0
 46 177 46 177 42 163 c 0
 40 154 38 145 36 137 c 0
 34 130 32 126 26 126 c 0
 25 126 23 127 22 127 c 0
 14 129 10 136 10 149 c 0
EndSplineSet
EndChar

StartChar: clSsut2
Encoding: 58414 58414 60
Width: 515
VWidth: 310
Flags: W
HStem: 10 37<376.125 496.527> 11 29<366.955 438.552 452.167 503.582> 110 37<284.329 415.527> 111 29<285.955 356.553 371.167 422.582> 205 33<258.062 347.529> 214 21<310.702 349.572> 364 42<149.871 220.575>
VStem: 10 26<115.097 175.071> 233 31<235 335.11>
LayerCount: 2
Fore
SplineSet
363 33 m 0x4380
 363 36 367 38 372 40 c 0x4380
 385 44 409 46 440 47 c 0
 444 47 447 47 451 47 c 0
 476 47 494 45 505 43 c 1
 505 41 505 38 505 36 c 0
 505 26 502 19 497 16 c 0
 487 11 471 10 447 10 c 0x8380
 423 10 399 10 375 11 c 1
 370 19 366 27 364 31 c 0
 364 32 363 32 363 33 c 0x4380
282 133 m 0
 282 136 286 138 291 140 c 0x1380
 304 144 327 146 358 147 c 0
 362 147 366 147 370 147 c 0
 395 147 413 145 424 143 c 1
 424 141 424 138 424 136 c 0
 424 126 421 119 416 116 c 0
 406 111 390 110 366 110 c 0x2380
 342 110 318 110 294 111 c 1x1380
 289 119 285 127 283 131 c 0
 283 132 282 132 282 133 c 0
10 137 m 0
 10 148 13 162 18 179 c 0
 30 217 49 257 75 299 c 0
 101 341 129 370 158 392 c 0
 172 403 188 406 201 406 c 0
 214 406 225 403 229 399 c 1
 235 395 247 391 253 370 c 0
 258 351 264 330 264 302 c 0
 264 299 264 295 264 291 c 0
 262 272 260 253 258 235 c 1x0780
 278 237 295 238 310 238 c 0x0b80
 325 238 338 237 348 235 c 1
 349 227 350 223 350 221 c 0
 350 219 347 216 342 214 c 0x0780
 335 211 319 209 293 207 c 0
 280 206 270 205 262 205 c 0x0b80
 254 205 248 206 246 207 c 0
 232 212 226 217 228 225 c 0
 230 233 230 244 232 258 c 0
 233 266 233 273 233 280 c 0
 233 299 230 317 224 336 c 0
 217 355 203 364 190 364 c 0
 188 364 186 363 184 363 c 0
 155 354 130 333 109 303 c 0
 88 273 74 245 64 218 c 0
 59 204 55 193 51 182 c 0
 46 165 46 165 42 151 c 0
 40 142 38 133 36 125 c 0
 34 118 32 114 26 114 c 0
 25 114 23 115 22 115 c 0
 14 117 10 124 10 137 c 0
EndSplineSet
EndChar

StartChar: clN1su2
Encoding: 58415 58415 61
Width: 423
VWidth: 310
Flags: W
HStem: -15 62<372.142 410.003> 85 62<282.142 320.003> 206 33<258.214 331> 367 42<150.475 218.118>
VStem: 10 26<116.097 171.953> 262 61<87.3274 144.381> 332 22<166.491 211 238 253.52> 352 61<-12.6726 44.3807>
LayerCount: 2
Fore
SplineSet
10 139 m 0xfe
 10 149 13 162 18 179 c 0
 30 217 50 258 76 300 c 0
 102 342 123 368 152 390 c 0
 169 403 184 409 199 409 c 0
 209 409 219 406 229 400 c 1
 242 390 246 384 252 368 c 0
 259 347 262 324 264 292 c 1
 262 273 260 254 258 236 c 1
 276 238 291 239 305 239 c 0
 315 239 324 239 332 238 c 1
 332 241 331 245 332 248 c 1
 337 252 342 253 344 254 c 0
 346 255 347 252 349 248 c 1
 351 239 354 225 354 205 c 0
 354 185 353 172 351 164 c 1
 342 163 337 166 335 170 c 0
 333 175 331 185 331 196 c 0
 331 198 331 200 331 202 c 0
 332 205 331 209 331 211 c 1
 322 209 310 210 293 208 c 0
 280 207 270 206 262 206 c 0
 254 206 250 207 247 208 c 0
 233 213 226 217 228 225 c 0
 230 233 230 244 232 258 c 0
 233 264 233 271 233 278 c 0
 233 299 229 320 221 340 c 0
 215 356 201 367 187 367 c 0
 183 367 179 366 175 364 c 0
 149 353 130 334 109 304 c 0
 88 274 74 245 64 218 c 0
 59 204 56 193 52 182 c 0
 47 165 46 165 42 151 c 0
 40 142 38 133 36 125 c 0
 34 119 32 115 27 115 c 0
 26 115 25 116 23 116 c 0
 15 118 10 125 10 139 c 0xfe
352 13 m 0xfd
 352 22 355 29 361 35 c 0
 368 42 374 46 384 47 c 0
 385 47 385 47 386 47 c 0
 395 47 404 40 411 28 c 0
 412 25 413 21 413 18 c 0
 413 12 410 5 404 -3 c 0
 397 -12 391 -15 383 -15 c 0
 380 -15 375 -14 372 -13 c 0
 359 -6 352 0 352 13 c 0xfd
262 113 m 0
 262 122 265 129 271 135 c 0
 278 142 284 146 294 147 c 0
 295 147 295 147 296 147 c 0
 305 147 314 140 321 128 c 0
 322 125 323 121 323 118 c 0
 323 112 320 105 314 97 c 0
 307 88 301 85 293 85 c 0
 290 85 285 86 282 87 c 0
 269 94 262 100 262 113 c 0
EndSplineSet
EndChar

StartChar: poG1
Encoding: 58416 58416 62
Width: 443
VWidth: 370
Flags: W
HStem: 0 21G<19 28> 0 21G<19 28> 244 48<166.388 220.191> 289 20G<418.5 426>
VStem: 211 39<45.4044 132.017> 232 33<80.2234 229.17>
LayerCount: 2
Fore
SplineSet
268 35 m 2x10
 268 36 l 2
 268 47 278 69 296 101 c 0
 322 149 319 141 335 172 c 0
 346 194 360 217 366 230 c 0
 372 243 378 256 385 269 c 0
 392 282 393 284 401 294 c 0
 409 304 415 309 422 309 c 2
 423 309 l 2
 429 309 433 304 433 298 c 0
 433 295 433 294 430 287 c 0
 425 277 423 272 415 254 c 1
 401 230 403 228 370 172 c 0
 337 116 337 116 319 84 c 1
 305 62 296 46 285 34 c 0
 279 28 276 26 273 26 c 0
 270 26 268 29 268 35 c 2x10
10 22 m 0
 10 32 13 46 18 63 c 0
 30 102 44 131 70 173 c 0
 103 226 148 268 166 279 c 0
 174 284 200 292 213 292 c 0
 214 292 215 292 216 292 c 0
 229 289 240 284 247 278 c 0
 252 273 257 260 261 242 c 0
 264 230 265 216 265 201 c 0xa4
 265 193 265 185 264 176 c 0
 262 143 257 112 250 85 c 0
 243 58 233 42 220 40 c 0
 219 40 218 40 217 40 c 0
 213 40 211 41 211 45 c 0xa8
 211 50 213 57 217 68 c 0
 225 90 228 110 231 137 c 0
 231 143 232 148 232 153 c 0
 232 172 229 189 224 212 c 0
 219 234 201 244 186 244 c 0
 181 244 177 243 173 241 c 0
 157 231 133 215 104 172 c 0
 76 130 76 119 64 96 c 0
 54 76 45 51 40 30 c 0
 35 11 31 0 25 0 c 0
 24 0 24 0 23 0 c 0xa4
 15 2 10 9 10 22 c 0
EndSplineSet
EndChar

StartChar: poGN1
Encoding: 58417 58417 63
Width: 481
VWidth: 378
Flags: W
HStem: 0 21G<19 28> 0 21G<19 28> 244 48<166.388 220.191> 321 20G<383 390.5>
VStem: 211 39<45.4044 132.017> 232 33<80.2234 229.17>
LayerCount: 2
Fore
SplineSet
270 38 m 2x30
 270 39 l 2
 270 50 280 72 298 104 c 0
 324 152 321 144 337 175 c 0
 358 216 382 256 390 270 c 0
 396 280 399 288 405 297 c 1
 404 298 l 1
 394 304 375 312 375 326 c 0
 375 331 379 340 387 341 c 1
 394 339 390 340 408 328 c 1
 418 318 439 306 455 304 c 0
 465 303 473 296 471 286 c 1
 468 279 464 277 457 277 c 0
 449 278 435 282 429 284 c 1
 426 277 423 271 417 257 c 1
 403 233 405 231 372 175 c 0
 339 119 339 119 321 87 c 1
 307 65 298 49 287 37 c 0
 281 31 278 29 275 29 c 0
 272 29 270 32 270 38 c 2x30
10 22 m 0
 10 32 13 46 18 63 c 0
 30 102 44 131 70 173 c 0
 103 226 148 268 166 279 c 0
 174 284 200 292 213 292 c 0
 214 292 215 292 216 292 c 0
 229 289 240 284 247 278 c 0
 252 273 257 260 261 242 c 0
 264 230 265 216 265 201 c 0xb4
 265 193 265 185 264 176 c 0
 262 143 257 112 250 85 c 0
 243 58 233 42 220 40 c 0
 219 40 218 40 217 40 c 0
 213 40 211 41 211 45 c 0xb8
 211 50 213 57 217 68 c 0
 225 90 228 110 231 137 c 0
 231 143 232 148 232 153 c 0
 232 172 229 189 224 212 c 0
 219 234 201 244 186 244 c 0
 181 244 177 243 173 241 c 0
 157 231 133 215 104 172 c 0
 76 130 76 119 64 96 c 0
 54 76 45 51 40 30 c 0
 35 11 31 0 25 0 c 0
 24 0 24 0 23 0 c 0xb4
 15 2 10 9 10 22 c 0
EndSplineSet
EndChar

StartChar: clN
Encoding: 58418 58418 64
Width: 358
VWidth: 380
Flags: W
HStem: 247 50<155.844 220.351> 279 18<156 201> 280 38<122.141 160.907>
VStem: 211 39<48.4044 135.017> 232 33<83.2234 232.17>
LayerCount: 2
Fore
SplineSet
10 25 m 0x88
 10 35 13 49 18 66 c 0
 30 105 44 134 70 176 c 0
 100 225 141 265 161 279 c 1x48
 159 279 158 280 156 280 c 0
 136 285 122 289 116 294 c 0
 111 299 108 303 107 308 c 0
 106 313 112 315 122 317 c 0
 125 317 128 318 131 318 c 0x28
 141 318 151 316 161 312 c 0
 175 307 189 303 201 299 c 0
 206 298 213 297 222 297 c 0
 226 297 230 297 234 298 c 0
 249 300 265 302 280 306 c 0
 289 309 301 309 313 310 c 0
 315 310 315 310 317 310 c 0
 327 310 335 308 342 307 c 1
 346 305 348 302 348 299 c 0
 348 295 345 292 339 288 c 1
 312 277 288 273 269 272 c 0
 264 272 259 272 253 272 c 1
 256 265 259 256 261 245 c 0
 264 233 265 219 265 204 c 0x48
 265 196 265 188 264 179 c 0
 262 146 257 115 250 88 c 0
 243 61 233 45 220 43 c 0
 219 43 218 43 217 43 c 0
 213 43 211 44 211 48 c 0x50
 211 53 213 60 217 71 c 0
 225 93 228 113 231 140 c 0
 231 146 232 151 232 156 c 0
 232 175 229 192 224 215 c 0
 219 237 201 247 186 247 c 0
 181 247 177 246 173 244 c 0
 157 234 133 218 104 175 c 0
 76 133 76 122 64 99 c 0
 54 79 45 54 40 33 c 0
 35 14 31 3 25 3 c 0
 24 3 24 3 23 3 c 0
 15 5 10 12 10 25 c 0x88
EndSplineSet
EndChar

StartChar: clNB1
Encoding: 58420 58420 65
Width: 358
VWidth: 380
Flags: W
HStem: 20 24<175.11 227.898> 279 18<156 201> 280 38<122.141 160.907>
VStem: 233 32<47.2245 83.7754 142.243 229.824>
LayerCount: 2
Fore
SplineSet
10 25 m 0xd0
 10 35 13 49 18 66 c 0
 30 105 44 134 70 176 c 0
 100 225 141 265 161 279 c 1xd0
 159 279 158 280 156 280 c 0
 136 285 122 289 116 294 c 0
 111 299 108 303 107 308 c 0
 106 313 112 315 122 317 c 0
 125 317 128 318 131 318 c 0xb0
 141 318 151 316 161 312 c 0
 175 307 189 303 201 299 c 0
 206 298 213 297 222 297 c 0
 226 297 230 297 234 298 c 0
 249 300 265 302 280 306 c 0
 289 309 301 309 313 310 c 0
 315 310 315 310 317 310 c 0
 327 310 335 308 342 307 c 1
 346 305 348 302 348 299 c 0
 348 295 345 292 339 288 c 1
 312 277 288 273 269 272 c 0
 264 272 259 272 253 272 c 1
 256 265 259 256 261 245 c 0
 264 233 265 219 265 204 c 0
 265 202 265 199 265 197 c 0
 265 190 265 185 262 172 c 0
 255 137 235 115 230 110 c 1
 243 103 246 93 253 81 c 0
 256 76 259 67 259 57 c 0
 259 51 258 46 255 40 c 0
 249 27 231 21 213 20 c 0
 211 20 208 20 206 20 c 0
 192 20 175 23 175 33 c 0
 175 43 186 41 200 44 c 0
 213 46 226 48 228 54 c 0
 230 62 229 70 219 82 c 0
 210 92 192 101 192 107 c 0
 192 108 192 109 193 110 c 0
 205 120 231 161 233 175 c 0
 233 177 233 178 233 180 c 0
 233 193 227 212 222 222 c 0
 215 235 208 243 194 247 c 0
 189 248 177 246 173 244 c 0
 157 234 133 218 104 175 c 0
 76 133 76 122 64 99 c 0
 54 79 45 54 40 33 c 0
 35 14 31 3 25 3 c 0
 24 3 24 3 23 3 c 0
 15 5 10 12 10 25 c 0xd0
EndSplineSet
EndChar

StartChar: clB1
Encoding: 58421 58421 66
Width: 275
VWidth: 380
Flags: W
HStem: 20 24<175.11 227.898> 247 48<173.193 220.025>
VStem: 10 30<3.09742 78.0155> 233 32<47.2245 83.7754 142.243 229.824>
LayerCount: 2
Fore
SplineSet
261 245 m 0
 264 233 265 219 265 204 c 0
 265 202 265 199 265 197 c 0
 265 190 265 185 262 172 c 0
 255 137 235 115 230 110 c 1
 243 103 246 93 253 81 c 0
 256 76 259 67 259 57 c 0
 259 51 258 46 255 40 c 0
 249 27 231 21 213 20 c 0
 211 20 208 20 206 20 c 0
 192 20 175 23 175 33 c 0
 175 43 186 41 200 44 c 0
 213 46 226 48 228 54 c 0
 230 62 229 70 219 82 c 0
 210 92 192 101 192 107 c 0
 192 108 192 109 193 110 c 0
 205 120 231 161 233 175 c 0
 233 177 233 178 233 180 c 0
 233 193 227 212 222 222 c 0
 215 235 208 243 194 247 c 0
 189 248 177 246 173 244 c 0
 157 234 133 218 104 175 c 0
 76 133 76 122 64 99 c 0
 54 79 45 54 40 33 c 0
 35 14 31 3 25 3 c 0
 24 3 24 3 23 3 c 0
 15 5 10 12 10 25 c 0
 10 35 13 49 18 66 c 0
 30 105 44 134 70 176 c 0
 79.8606 192.106 89.1274 205.103 98.7705 216.359 c 0
 125.458 249.532 152.89 273.988 166 282 c 0
 174 287 200 295 213 295 c 0
 214 295 215 295 216 295 c 0
 229 292 240 287 247 281 c 0
 252 276 257 263 261 245 c 0
EndSplineSet
EndChar

StartChar: ciMN
Encoding: 58422 58422 67
Width: 418
VWidth: 345
Flags: W
HStem: -2 21G<389.26 392.76> 145 62<222.402 260.263> 309 24<217.635 249.212> 362.199 20G<169.068 170.931>
VStem: 202.26 61<147.327 204.381>
LayerCount: 2
Fore
SplineSet
296.26 83 m 1
 297.26 92 298.26 99 300.26 103 c 0
 301.26 105 304.26 105 306.26 105 c 0
 308.26 105 310.26 105 313.26 103 c 0
 325.26 97 343.26 82 365.26 60 c 0
 387.26 38 401.26 21 408.26 11 c 1
 402.26 3 395.26 -2 390.26 -2 c 0
 388.26 -2 388.26 -2 386.26 -1 c 0
 376.26 3 362.26 13 346.26 31 c 0
 330.26 49 312.26 65 296.26 83 c 1
202.26 173 m 0
 202.26 182 205.26 189 211.26 195 c 0
 218.26 202 224.26 206 234.26 207 c 0
 235.26 207 235.26 207 236.26 207 c 0
 245.26 207 254.26 200 261.26 188 c 0
 262.26 185 263.26 181 263.26 178 c 0
 263.26 172 260.26 165 254.26 157 c 0
 247.26 148 241.26 145 233.26 145 c 0
 230.26 145 225.26 146 222.26 147 c 0
 209.26 154 202.26 160 202.26 173 c 0
157.899 366.872 m 0
 157.899 371.389 159.643 374.382 163.26 378 c 0
 164.987 379.727 167.459 382.199 170.676 382.199 c 0
 171.186 382.199 171.713 382.137 172.26 382 c 0
 179.26 379 176.26 379 192.26 365 c 1
 197.26 359 206.26 352 214.26 347 c 0
 222.26 342 228.26 338 235.26 336 c 0
 237.26 335 240.26 335 242.26 333 c 0
 246.345 329.936 250.51 326.381 250.51 321.25 c 0
 250.51 320.5 250.26 319.5 249.26 317 c 0
 248.26 315 246.26 315 245.26 314 c 0
 242.26 311 239.26 309 234.26 309 c 0
 229.26 310 224.26 312 218.26 314 c 0
 213.736 315.939 210.883 317.46 208.351 318.833 c 1
 203.691 312.484 200.002 306.715 191.26 294 c 1
 173.26 273 175.26 270 133.26 221 c 0
 91.2598 172 91.2598 171 68.2598 143 c 1
 51.2598 124 40.2598 110 27.2598 100 c 0
 21.4268 95.833 18.3711 93.75 15.7783 93.75 c 0
 15.2598 93.75 14.7598 93.833 14.2598 94 c 0
 11.2598 95 9.25977 98 10.2598 104 c 1
 10.2598 105 l 1
 12.2598 116 26.2598 136 49.2598 164 c 0
 83.2598 207 78.2598 199 99.2598 227 c 0
 114.26 247 131.26 267 139.26 279 c 0
 147.26 291 156.26 302 165.26 314 c 0
 174.26 326 175.26 327 185.26 335 c 0
 185.391 335.105 185.522 335.21 185.652 335.314 c 2
 178.26 341 l 2
 174.26 345 166.26 350 162.26 355 c 0
 159.204 358.82 157.899 363.223 157.899 366.872 c 0
EndSplineSet
EndChar

StartChar: ciN
Encoding: 58423 58423 68
Width: 360
VWidth: 345
Flags: W
HStem: 0 62<309.402 347.263> 100 62<219.402 257.263> 322 20G<173.939 181.76>
VStem: 199.26 61<102.327 159.381> 289.26 61<2.32742 59.3807>
LayerCount: 2
Fore
SplineSet
289.26 28 m 0
 289.26 37 292.26 44 298.26 50 c 0
 305.26 57 311.26 61 321.26 62 c 0
 322.26 62 322.26 62 323.26 62 c 0
 332.26 62 341.26 55 348.26 43 c 0
 349.26 40 350.26 36 350.26 33 c 0
 350.26 27 347.26 20 341.26 12 c 0
 334.26 3 328.26 0 320.26 0 c 0
 317.26 0 312.26 1 309.26 2 c 0
 296.26 9 289.26 15 289.26 28 c 0
199.26 128 m 0
 199.26 137 202.26 144 208.26 150 c 0
 215.26 157 221.26 161 231.26 162 c 0
 232.26 162 232.26 162 233.26 162 c 0
 242.26 162 251.26 155 258.26 143 c 0
 259.26 140 260.26 136 260.26 133 c 0
 260.26 127 257.26 120 251.26 112 c 0
 244.26 103 238.26 100 230.26 100 c 0
 227.26 100 222.26 101 219.26 102 c 0
 206.26 109 199.26 115 199.26 128 c 0
10.2598 65 m 1
 10.2598 66 l 1
 12.2598 77 26.2598 97 49.2598 125 c 0
 83.2598 168 79.2598 160 100.26 188 c 0
 128.26 225 158.26 260 168.26 272 c 0
 176.26 281 181.26 288 188.26 296 c 1
 187.26 297 l 2
 178.753 304.562 163.098 314.804 163.098 327.727 c 0
 163.098 334.472 169.617 342 178.26 342 c 1
 185.26 339 180.26 341 196.26 326 c 1
 204.26 314 223.26 299 238.26 294 c 0
 246.302 291.587 252.405 285.94 252.405 279.14 c 0
 252.405 277.485 252.043 275.762 251.26 274 c 0
 247.26 268 243.26 266 236.26 267 c 0
 228.26 269 215.26 276 209.26 279 c 1
 205.26 273 201.26 268 193.26 255 c 1
 175.26 234 176.26 231 134.26 182 c 0
 92.2598 133 92.2598 132 69.2598 104 c 1
 51.2598 85 40.2598 71 27.2598 61 c 0
 21.4268 56.833 18.3711 54.75 15.7783 54.75 c 0
 15.2598 54.75 14.7598 54.833 14.2598 55 c 0
 11.2598 56 9.25977 59 10.2598 65 c 1
EndSplineSet
EndChar

StartChar: viNsu2suw1
Encoding: 58424 58424 69
Width: 508
VWidth: 345
Flags: W
HStem: 144 62<312.402 350.263> 244 62<222.402 260.263> 409 24<217.635 249.212>
VStem: 202.26 61<246.327 303.381> 292.26 61<146.327 203.381>
LayerCount: 2
Fore
SplineSet
386.26 82 m 1
 387.26 91 388.26 98 390.26 102 c 0
 391.26 104 394.26 104 396.26 104 c 0
 398.26 104 400.26 104 403.26 102 c 0
 415.26 96 433.26 80 455.26 58 c 0
 477.26 36 491.26 20 498.26 10 c 1
 492.26 2 485.26 -3 480.26 -3 c 0
 478.26 -3 478.26 -3 476.26 -2 c 0
 466.26 2 452.26 12 436.26 30 c 0
 420.26 48 402.26 64 386.26 82 c 1
292.26 172 m 0
 292.26 181 295.26 188 301.26 194 c 0
 308.26 201 314.26 205 324.26 206 c 0
 325.26 206 325.26 206 326.26 206 c 0
 335.26 206 344.26 199 351.26 187 c 0
 352.26 184 353.26 180 353.26 177 c 0
 353.26 171 350.26 164 344.26 156 c 0
 337.26 147 331.26 144 323.26 144 c 0
 320.26 144 315.26 145 312.26 146 c 0
 299.26 153 292.26 159 292.26 172 c 0
202.26 272 m 0
 202.26 281 205.26 288 211.26 294 c 0
 218.26 301 224.26 305 234.26 306 c 0
 235.26 306 235.26 306 236.26 306 c 0
 245.26 306 254.26 299 261.26 287 c 0
 262.26 284 263.26 280 263.26 277 c 0
 263.26 271 260.26 264 254.26 256 c 0
 247.26 247 241.26 244 233.26 244 c 0
 230.26 244 225.26 245 222.26 246 c 0
 209.26 253 202.26 259 202.26 272 c 0
158.26 470 m 0
 159.26 472 160.26 475 163.26 478 c 0
 164.987 479.727 167.459 482.199 170.676 482.199 c 0
 171.186 482.199 171.713 482.137 172.26 482 c 0
 179.26 479 176.26 479 192.26 465 c 1
 197.26 459 206.26 452 214.26 447 c 0
 222.26 442 228.26 438 235.26 436 c 0
 237.26 435 240.26 435 242.26 433 c 0
 246.26 430 248.26 427 250.26 424 c 1
 250.26 421 251.26 422 249.26 417 c 0
 248.26 415 246.26 415 245.26 414 c 0
 242.26 411 239.26 409 234.26 409 c 0
 229.26 410 224.26 412 218.26 414 c 0
 213.736 415.939 210.883 417.46 208.351 418.833 c 1
 203.691 412.484 200.002 406.715 191.26 394 c 1
 173.26 373 175.26 370 133.26 321 c 0
 91.2598 272 91.2598 271 68.2598 243 c 1
 51.2598 224 40.2598 210 27.2598 200 c 0
 20.2598 195 17.2598 193 14.2598 194 c 0
 11.2598 195 9.25977 198 10.2598 204 c 1
 10.2598 205 l 1
 12.2598 216 26.2598 236 49.2598 264 c 0
 83.2598 307 78.2598 299 99.2598 327 c 0
 114.26 347 131.26 367 139.26 379 c 0
 147.26 391 156.26 402 165.26 414 c 0
 174.26 426 175.26 427 185.26 435 c 0
 185.391 435.105 185.522 435.21 185.652 435.314 c 2
 178.26 441 l 2
 174.26 445 166.26 450 162.26 455 c 0
 158.26 460 157.26 466 158.26 470 c 0
EndSplineSet
EndChar

StartChar: viNsu3
Encoding: 58425 58425 70
Width: 453
VWidth: 345
Flags: W
HStem: 0 62<402.402 440.263> 100 62<312.402 350.263> 200 62<222.402 260.263> 372 24<216.561 248.212>
VStem: 202.26 61<202.327 259.381> 292.26 61<102.327 159.381> 382.26 61<2.32742 59.3807>
LayerCount: 2
Fore
SplineSet
382.26 28 m 0
 382.26 37 385.26 44 391.26 50 c 0
 398.26 57 404.26 61 414.26 62 c 0
 415.26 62 415.26 62 416.26 62 c 0
 425.26 62 434.26 55 441.26 43 c 0
 442.26 40 443.26 36 443.26 33 c 0
 443.26 27 440.26 20 434.26 12 c 0
 427.26 3 421.26 0 413.26 0 c 0
 410.26 0 405.26 1 402.26 2 c 0
 389.26 9 382.26 15 382.26 28 c 0
292.26 128 m 0
 292.26 137 295.26 144 301.26 150 c 0
 308.26 157 314.26 161 324.26 162 c 0
 325.26 162 325.26 162 326.26 162 c 0
 335.26 162 344.26 155 351.26 143 c 0
 352.26 140 353.26 136 353.26 133 c 0
 353.26 127 350.26 120 344.26 112 c 0
 337.26 103 331.26 100 323.26 100 c 0
 320.26 100 315.26 101 312.26 102 c 0
 299.26 109 292.26 115 292.26 128 c 0
202.26 228 m 0
 202.26 237 205.26 244 211.26 250 c 0
 218.26 257 224.26 261 234.26 262 c 0
 235.26 262 235.26 262 236.26 262 c 0
 245.26 262 254.26 255 261.26 243 c 0
 262.26 240 263.26 236 263.26 233 c 0
 263.26 227 260.26 220 254.26 212 c 0
 247.26 203 241.26 200 233.26 200 c 0
 230.26 200 225.26 201 222.26 202 c 0
 209.26 209 202.26 215 202.26 228 c 0
157.26 433 m 0
 158.26 435 159.26 438 162.26 441 c 0
 163.987 442.727 166.459 445.199 169.676 445.199 c 0
 170.186 445.199 170.713 445.137 171.26 445 c 0
 178.26 442 175.26 442 191.26 428 c 1
 196.26 422 205.26 415 213.26 410 c 0
 221.26 405 227.26 401 234.26 399 c 0
 236.26 398 239.26 398 241.26 396 c 0
 245.26 393 247.26 390 249.26 387 c 1
 249.26 384 250.26 385 248.26 380 c 0
 247.26 378 245.26 378 244.26 377 c 0
 241.26 374 238.26 372 233.26 372 c 0
 228.26 373 223.26 375 217.26 377 c 0
 213.458 378.629 210.836 379.964 208.594 381.163 c 1
 203.817 374.681 200.153 368.935 191.26 356 c 1
 173.26 335 175.26 332 133.26 283 c 0
 91.2598 234 91.2598 233 68.2598 205 c 1
 51.2598 186 40.2598 172 27.2598 162 c 0
 20.2598 157 17.2598 155 14.2598 156 c 0
 11.2598 157 9.25977 160 10.2598 166 c 1
 10.2598 167 l 1
 12.2598 178 26.2598 198 49.2598 226 c 0
 83.2598 269 78.2598 261 99.2598 289 c 0
 114.26 309 131.26 329 139.26 341 c 0
 147.26 353 156.26 364 165.26 376 c 0
 174.26 388 175.26 389 185.26 397 c 0
 185.441 397.145 185.621 397.289 185.8 397.431 c 2
 177.26 404 l 2
 173.26 408 165.26 413 161.26 418 c 0
 157.26 423 156.26 429 157.26 433 c 0
EndSplineSet
EndChar

StartChar: viNsu4
Encoding: 58426 58426 71
Width: 543
VWidth: 345
Flags: W
HStem: 0 62<492.402 530.262> 100 62<402.402 440.262> 200 62<312.402 350.262> 300 62<222.402 260.262> 472 24<216.561 248.212>
VStem: 202.26 61<302.327 359.381> 292.26 61<202.327 259.381> 382.26 61<102.327 159.381> 472.26 61<2.32742 59.3807>
LayerCount: 2
Fore
SplineSet
157.26 533 m 0
 158.26 535 159.26 538 162.26 541 c 0
 163.987 542.727 166.459 545.199 169.676 545.199 c 0
 170.186 545.199 170.713 545.137 171.26 545 c 0
 178.26 542 175.26 542 191.26 528 c 1
 196.26 522 205.26 515 213.26 510 c 0
 221.26 505 227.26 501 234.26 499 c 0
 236.26 498 239.26 498 241.26 496 c 0
 245.26 493 247.26 490 249.26 487 c 1
 249.26 484 250.26 485 248.26 480 c 0
 247.26 478 245.26 478 244.26 477 c 0
 241.26 474 238.26 472 233.26 472 c 0
 228.26 473 223.26 475 217.26 477 c 0
 213.458 478.629 210.836 479.964 208.594 481.163 c 1
 203.817 474.681 200.153 468.935 191.26 456 c 1
 173.26 435 175.26 432 133.26 383 c 0
 91.2598 334 91.2598 333 68.2598 305 c 1
 51.2598 286 40.2598 272 27.2598 262 c 0
 20.2598 257 17.2598 255 14.2598 256 c 0
 11.2598 257 9.25977 260 10.2598 266 c 1
 10.2598 267 l 1
 12.2598 278 26.2598 298 49.2598 326 c 0
 83.2598 369 78.2598 361 99.2598 389 c 0
 114.26 409 131.26 429 139.26 441 c 0
 147.26 453 156.26 464 165.26 476 c 0
 174.26 488 175.26 489 185.26 497 c 0
 185.441 497.145 185.621 497.289 185.8 497.431 c 2
 177.26 504 l 2
 173.26 508 165.26 513 161.26 518 c 0
 157.26 523 156.26 529 157.26 533 c 0
202.26 328 m 0
 202.26 337 205.26 344 211.26 350 c 0
 218.26 357 224.26 361 234.26 362 c 0
 235.26 362 235.26 362 236.26 362 c 0
 245.26 362 254.26 355 261.26 343 c 0
 262.26 340 263.26 336 263.26 333 c 0
 263.26 327 260.26 320 254.26 312 c 0
 247.26 303 241.26 300 233.26 300 c 0
 230.26 300 225.26 301 222.26 302 c 0
 209.26 309 202.26 315 202.26 328 c 0
472.26 28 m 0
 472.26 37 475.26 44 481.26 50 c 0
 488.26 57 494.26 61 504.26 62 c 0
 505.26 62 505.26 62 506.26 62 c 0
 515.26 62 524.26 55 531.26 43 c 0
 532.26 40 533.26 36 533.26 33 c 0
 533.26 27 530.26 20 524.26 12 c 0
 517.26 3 511.26 0 503.26 0 c 0
 500.26 0 495.26 1 492.26 2 c 0
 479.26 9 472.26 15 472.26 28 c 0
312.26 202 m 0
 299.26 209 292.26 215 292.26 228 c 0
 292.26 237 295.26 244 301.26 250 c 0
 308.26 257 314.26 261 324.26 262 c 0
 325.26 262 325.26 262 326.26 262 c 0
 335.26 262 344.26 255 351.26 243 c 0
 352.26 240 353.26 236 353.26 233 c 0
 353.26 227 350.26 220 344.26 212 c 0
 337.26 203 331.26 200 323.26 200 c 0
 320.26 200 315.26 201 312.26 202 c 0
402.26 102 m 0
 389.26 109 382.26 115 382.26 128 c 0
 382.26 137 385.26 144 391.26 150 c 0
 398.26 157 404.26 161 414.26 162 c 0
 415.26 162 415.26 162 416.26 162 c 0
 425.26 162 434.26 155 441.26 143 c 0
 442.26 140 443.26 136 443.26 133 c 0
 443.26 127 440.26 120 434.26 112 c 0
 427.26 103 421.26 100 413.26 100 c 0
 410.26 100 405.26 101 402.26 102 c 0
EndSplineSet
EndChar

StartChar: viNsu1sux1
Encoding: 58427 58427 72
Width: 377
VWidth: 345
Flags: W
HStem: 23 42.2451<299.549 331.163> 103 62<221.402 259.263> 275 24<216.561 248.212> 328.199 20G<168.068 169.931>
VStem: 201.26 61<105.327 162.381> 333.26 34.155<-18.8362 33>
LayerCount: 2
Fore
SplineSet
274.26 -63 m 0
 274.26 -61 277.26 -58 280.26 -56 c 0
 286.26 -51 297.26 -41 314.26 -28 c 0
 325.26 -20 332.26 -11 333.26 -3 c 0
 334.26 1 332.26 6 331.26 10 c 0
 329.26 15 322.26 19 312.26 23 c 0
 302.26 27 297.26 30 297.26 34 c 0
 297.26 43 302.26 51 309.26 58 c 0
 314.286 63.0264 320.716 65.2451 327.374 65.2451 c 0
 328.664 65.2451 329.962 65.1621 331.26 65 c 0
 333.26 65 334.26 63 336.26 63 c 0
 352.26 56 363.26 45 366.26 33 c 0
 367.105 30.4639 367.415 27.9277 367.415 25.3164 c 0
 367.415 21.75 366.837 18.041 366.26 14 c 0
 365.26 8 363.26 3 360.26 -4 c 0
 354.26 -17 342.26 -29 327.26 -41 c 0
 312.26 -53 297.26 -60 281.26 -67 c 0
 280.26 -68 280.26 -68 279.26 -68 c 2
 275.26 -65 l 2
 274.26 -64 274.26 -64 274.26 -63 c 0
201.26 131 m 0
 201.26 140 204.26 147 210.26 153 c 0
 217.26 160 223.26 164 233.26 165 c 0
 234.26 165 234.26 165 235.26 165 c 0
 244.26 165 253.26 158 260.26 146 c 0
 261.26 143 262.26 139 262.26 136 c 0
 262.26 130 259.26 123 253.26 115 c 0
 246.26 106 240.26 103 232.26 103 c 0
 229.26 103 224.26 104 221.26 105 c 0
 208.26 112 201.26 118 201.26 131 c 0
157.26 336 m 0
 158.26 338 159.26 341 162.26 344 c 0
 163.987 345.727 166.459 348.199 169.676 348.199 c 0
 170.186 348.199 170.713 348.137 171.26 348 c 0
 178.26 345 175.26 345 191.26 331 c 1
 196.26 325 205.26 318 213.26 313 c 0
 221.26 308 227.26 304 234.26 302 c 0
 236.26 301 239.26 301 241.26 299 c 0
 245.26 296 247.26 293 249.26 290 c 1
 249.26 287 250.26 288 248.26 283 c 0
 247.26 281 245.26 281 244.26 280 c 0
 241.26 277 238.26 275 233.26 275 c 0
 228.26 276 223.26 278 217.26 280 c 0
 213.458 281.629 210.836 282.964 208.594 284.163 c 1
 203.817 277.681 200.153 271.935 191.26 259 c 1
 173.26 238 175.26 235 133.26 186 c 0
 91.2598 137 91.2598 136 68.2598 108 c 1
 51.2598 89 40.2598 75 27.2598 65 c 0
 20.2598 60 17.2598 58 14.2598 59 c 0
 11.2598 60 9.25977 63 10.2598 69 c 1
 10.2598 70 l 1
 12.2598 81 26.2598 101 49.2598 129 c 0
 83.2598 172 78.2598 164 99.2598 192 c 0
 114.26 212 131.26 232 139.26 244 c 0
 147.26 256 156.26 267 165.26 279 c 0
 174.26 291 175.26 292 185.26 300 c 0
 185.441 300.145 185.621 300.289 185.8 300.431 c 2
 177.26 307 l 2
 173.26 311 165.26 316 161.26 321 c 0
 157.26 326 156.26 332 157.26 336 c 0
EndSplineSet
EndChar

StartChar: viNsu1sut1
Encoding: 58428 58428 73
Width: 439
VWidth: 345
Flags: W
HStem: 25 37<285.525 419.739> 26 29<275.263 354.671 370.567 427.775> 100 62<221.402 259.263> 322 20G<173.939 181.76>
VStem: 201.26 61<102.327 159.381>
LayerCount: 2
Fore
SplineSet
271.26 48 m 0x78
 271.26 51 275.26 53 281.26 55 c 0x78
 295.26 59 322.26 61 356.26 62 c 0
 361.26 62 365.26 62 369.26 62 c 0
 397.26 62 417.26 60 429.26 58 c 1
 429.26 56 429.26 53 429.26 51 c 0
 429.26 41 426.26 34 420.26 31 c 0
 409.26 26 391.26 25 364.26 25 c 0xb8
 337.26 25 311.26 25 284.26 26 c 1
 278.26 34 274.26 42 272.26 46 c 0
 272.26 47 271.26 47 271.26 48 c 0x78
201.26 128 m 0
 201.26 137 204.26 144 210.26 150 c 0
 217.26 157 223.26 161 233.26 162 c 0
 234.26 162 234.26 162 235.26 162 c 0
 244.26 162 253.26 155 260.26 143 c 0
 261.26 140 262.26 136 262.26 133 c 0
 262.26 127 259.26 120 253.26 112 c 0
 246.26 103 240.26 100 232.26 100 c 0
 229.26 100 224.26 101 221.26 102 c 0
 208.26 109 201.26 115 201.26 128 c 0
10.2598 65 m 1
 10.2598 66 l 1
 12.2598 77 26.2598 97 49.2598 125 c 0
 83.2598 168 79.2598 160 100.26 188 c 0
 128.26 225 158.26 260 168.26 272 c 0
 176.26 281 181.26 288 188.26 296 c 1
 187.26 297 l 2
 178.753 304.562 163.098 314.804 163.098 327.727 c 0
 163.098 334.472 169.617 342 178.26 342 c 1
 185.26 339 180.26 341 196.26 326 c 1
 204.26 314 223.26 299 238.26 294 c 0
 246.302 291.587 252.405 285.94 252.405 279.14 c 0
 252.405 277.485 252.043 275.762 251.26 274 c 0
 247.26 268 243.26 266 236.26 267 c 0
 228.26 269 215.26 276 209.26 279 c 1
 205.26 273 201.26 268 193.26 255 c 1
 175.26 234 176.26 231 134.26 182 c 0
 92.2598 133 92.2598 132 69.2598 104 c 1
 51.2598 85 40.2598 71 27.2598 61 c 0
 21.4268 56.833 18.3711 54.75 15.7783 54.75 c 0
 15.2598 54.75 14.7598 54.833 14.2598 55 c 0
 11.2598 56 9.25977 59 10.2598 65 c 1
EndSplineSet
EndChar

StartChar: viNsu1suu1su1
Encoding: 58429 58429 74
Width: 453
VWidth: 345
Flags: W
HStem: 0 62<402.402 440.263> 124.999 37<286.525 408.746> 200 62<222.402 260.262> 372 24<216.561 248.212>
VStem: 202.26 61<202.327 259.381> 382.26 61<2.32742 59.3807> 411.264 24<116.804 126.844 161 180.43 180.803 189.57>
LayerCount: 2
Fore
SplineSet
202.26 228 m 4xf8
 202.26 237 205.26 244 211.26 250 c 4
 218.26 257 224.26 261 234.26 262 c 4
 235.26 262 235.26 262 236.26 262 c 4
 245.26 262 254.26 255 261.26 243 c 4
 262.26 240 263.26 236 263.26 233 c 4
 263.26 227 260.26 220 254.26 212 c 4
 247.26 203 241.26 200 233.26 200 c 4
 230.26 200 225.26 201 222.26 202 c 4
 209.26 209 202.26 215 202.26 228 c 4xf8
409.264 161 m 5
 411.264 166 409.264 173.665 411.264 178.665 c 4
 413.264 183.665 415.264 187.665 418.264 189.665 c 4
 420.264 190.665 421.264 190.665 423.264 190.665 c 4
 426.264 190.665 430.264 189.665 435.264 186.665 c 5
 436.264 183.665 436.264 183.665 436.264 180.665 c 4
 436.264 175.665 434.264 169.665 433.264 164.665 c 4
 432.027 160.339 430.793 156.013 430.264 151.45 c 6
 430.264 150.999 l 5
 430.264 149.665 l 6
 430.264 148.188 430.184 146.821 430.025 145.552 c 4
 430.064 144.602 430.143 143.642 430.264 142.665 c 4
 431.264 134.665 432.264 128.665 435.264 123.665 c 4
 436.264 120.665 436.264 119.665 436.264 116.665 c 4
 436.264 113.665 436.264 111.665 435.264 109.665 c 4
 433.264 107.665 430.264 106.665 426.264 104.665 c 4
 423.264 103.665 423.26 103.665 421.26 103.665 c 4
 418.26 103.665 417.264 105.665 414.264 108.665 c 4
 412.264 111.665 413.264 116.665 411.264 121.665 c 4xfa
 410.254 124.695 409.639 124.861 409.264 127.001 c 5
 398.264 124.999 384.261 124.999 365.26 124.999 c 4
 338.26 124.999 312.26 124.999 285.26 125.999 c 5
 279.26 133.999 275.26 141.999 273.26 145.999 c 4
 273.26 146.999 272.26 146.999 272.26 147.999 c 4
 272.26 150.999 276.26 152.999 282.26 154.999 c 4
 296.26 158.999 323.26 160.999 357.26 161.999 c 4
 362.26 161.999 366.26 161.999 370.26 161.999 c 4
 385.261 161.999 398.264 161.999 409.264 161 c 5
382.26 28 m 0xfc
 382.26 37 385.26 44 391.26 50 c 0
 398.26 57 404.26 61 414.26 62 c 0
 415.26 62 415.26 62 416.26 62 c 0
 425.26 62 434.26 55 441.26 43 c 0
 442.26 40 443.26 36 443.26 33 c 0
 443.26 27 440.26 20 434.26 12 c 0
 427.26 3 421.26 0 413.26 0 c 0
 410.26 0 405.26 1 402.26 2 c 0
 389.26 9 382.26 15 382.26 28 c 0xfc
157.26 433 m 0
 158.26 435 159.26 438 162.26 441 c 0
 163.987 442.727 166.459 445.199 169.676 445.199 c 0
 170.186 445.199 170.713 445.137 171.26 445 c 0
 178.26 442 175.26 442 191.26 428 c 1
 196.26 422 205.26 415 213.26 410 c 0
 221.26 405 227.26 401 234.26 399 c 0
 236.26 398 239.26 398 241.26 396 c 0
 245.26 393 247.26 390 249.26 387 c 1
 249.26 384 250.26 385 248.26 380 c 0
 247.26 378 245.26 378 244.26 377 c 0
 241.26 374 238.26 372 233.26 372 c 0
 228.26 373 223.26 375 217.26 377 c 0
 213.458 378.629 210.836 379.964 208.594 381.163 c 1
 203.817 374.681 200.153 368.935 191.26 356 c 1
 173.26 335 175.26 332 133.26 283 c 0
 91.2598 234 91.2598 233 68.2598 205 c 1
 51.2598 186 40.2598 172 27.2598 162 c 0
 20.2598 157 17.2598 155 14.2598 156 c 0
 11.2598 157 9.25977 160 10.2598 166 c 1
 10.2598 167 l 1
 12.2598 178 26.2598 198 49.2598 226 c 0
 83.2598 269 78.2598 261 99.2598 289 c 0
 114.26 309 131.26 329 139.26 341 c 0
 147.26 353 156.26 364 165.26 376 c 0
 174.26 388 175.26 389 185.26 397 c 0
 185.441 397.145 185.621 397.289 185.8 397.431 c 2
 177.26 404 l 2
 173.26 408 165.26 413 161.26 418 c 0
 157.26 423 156.26 429 157.26 433 c 0
EndSplineSet
EndChar

StartChar: viNsu1suu2
Encoding: 58430 58430 75
Width: 536
VWidth: 345
Flags: W
HStem: 24.999 37<376.525 498.742> 124.999 37<286.525 408.742> 200 62<222.402 260.262> 372 24<216.561 248.212>
VStem: 202.26 61<202.327 259.381> 409.26 21<110.093 126.999 160.999 186.861> 499.26 21<10.0928 26.999 60.999 86.8606>
LayerCount: 2
Fore
SplineSet
409.26 160.999 m 1
 411.26 165.999 409.26 173.999 411.26 178.999 c 0
 413.26 183.999 415.26 187.999 418.26 189.999 c 0
 420.26 190.999 421.26 190.999 423.26 190.999 c 0
 426.26 190.999 430.26 189.999 435.26 186.999 c 1
 436.26 183.999 436.26 183.999 436.26 180.999 c 0
 436.26 175.999 434.26 169.999 433.26 164.999 c 0
 432.26 160.999 431.26 155.999 430.26 150.999 c 2
 430.26 149.999 l 2
 430.26 148.999 430.26 146.999 430.26 145.999 c 0
 430.26 144.999 430.26 143.999 430.26 142.999 c 0
 431.26 134.999 432.26 128.999 435.26 123.999 c 0
 436.26 120.999 436.26 119.999 436.26 116.999 c 0
 436.26 113.999 436.26 111.999 435.26 109.999 c 0
 433.26 107.999 430.26 106.999 426.26 104.999 c 0
 423.26 103.999 423.26 103.999 421.26 103.999 c 0
 418.26 103.999 417.26 105.999 414.26 108.999 c 0
 412.26 111.999 413.26 116.999 411.26 121.999 c 0
 410.26 124.999 409.26 124.999 409.26 126.999 c 1
 398.26 124.999 384.26 124.999 365.26 124.999 c 0
 338.26 124.999 312.26 124.999 285.26 125.999 c 1
 279.26 133.999 275.26 141.999 273.26 145.999 c 0
 273.26 146.999 272.26 146.999 272.26 147.999 c 0
 272.26 150.999 276.26 152.999 282.26 154.999 c 0
 296.26 158.999 323.26 160.999 357.26 161.999 c 0
 362.26 161.999 366.26 161.999 370.26 161.999 c 0
 385.26 161.999 398.26 161.999 409.26 160.999 c 1
499.26 60.999 m 1
 501.26 65.999 499.26 73.999 501.26 78.999 c 0
 503.26 83.999 505.26 87.999 508.26 89.999 c 0
 510.26 90.999 511.26 90.999 513.26 90.999 c 0
 516.26 90.999 520.26 89.999 525.26 86.999 c 1
 526.26 83.999 526.26 83.999 526.26 80.999 c 0
 526.26 75.999 524.26 69.999 523.26 64.999 c 0
 522.26 60.999 521.26 55.999 520.26 50.999 c 2
 520.26 49.999 l 2
 520.26 48.999 520.26 46.999 520.26 45.999 c 0
 520.26 44.999 520.26 43.999 520.26 42.999 c 0
 521.26 34.999 522.26 28.999 525.26 23.999 c 0
 526.26 20.999 526.26 19.999 526.26 16.999 c 0
 526.26 13.999 526.26 11.999 525.26 9.99902 c 0
 523.26 7.99902 520.26 6.99902 516.26 4.99902 c 0
 513.26 3.99902 513.26 3.99902 511.26 3.99902 c 0
 508.26 3.99902 507.26 5.99902 504.26 8.99902 c 0
 502.26 11.999 503.26 16.999 501.26 21.999 c 0
 500.26 24.999 499.26 24.999 499.26 26.999 c 1
 488.26 24.999 474.26 24.999 455.26 24.999 c 0
 428.26 24.999 402.26 24.999 375.26 25.999 c 1
 369.26 33.999 365.26 41.999 363.26 45.999 c 0
 363.26 46.999 362.26 46.999 362.26 47.999 c 0
 362.26 50.999 366.26 52.999 372.26 54.999 c 0
 386.26 58.999 413.26 60.999 447.26 61.999 c 0
 452.26 61.999 456.26 61.999 460.26 61.999 c 0
 475.26 61.999 488.26 61.999 499.26 60.999 c 1
202.26 228 m 0
 202.26 237 205.26 244 211.26 250 c 0
 218.26 257 224.26 261 234.26 262 c 0
 235.26 262 235.26 262 236.26 262 c 0
 245.26 262 254.26 255 261.26 243 c 0
 262.26 240 263.26 236 263.26 233 c 0
 263.26 227 260.26 220 254.26 212 c 0
 247.26 203 241.26 200 233.26 200 c 0
 230.26 200 225.26 201 222.26 202 c 0
 209.26 209 202.26 215 202.26 228 c 0
157.26 433 m 0
 158.26 435 159.26 438 162.26 441 c 0
 163.987 442.727 166.459 445.199 169.676 445.199 c 0
 170.186 445.199 170.713 445.137 171.26 445 c 0
 178.26 442 175.26 442 191.26 428 c 1
 196.26 422 205.26 415 213.26 410 c 0
 221.26 405 227.26 401 234.26 399 c 0
 236.26 398 239.26 398 241.26 396 c 0
 245.26 393 247.26 390 249.26 387 c 1
 249.26 384 250.26 385 248.26 380 c 0
 247.26 378 245.26 378 244.26 377 c 0
 241.26 374 238.26 372 233.26 372 c 0
 228.26 373 223.26 375 217.26 377 c 0
 213.458 378.629 210.836 379.964 208.594 381.163 c 1
 203.817 374.681 200.153 368.935 191.26 356 c 1
 173.26 335 175.26 332 133.26 283 c 0
 91.2598 234 91.2598 233 68.2598 205 c 1
 51.2598 186 40.2598 172 27.2598 162 c 0
 20.2598 157 17.2598 155 14.2598 156 c 0
 11.2598 157 9.25977 160 10.2598 166 c 1
 10.2598 167 l 1
 12.2598 178 26.2598 198 49.2598 226 c 0
 83.2598 269 78.2598 261 99.2598 289 c 0
 114.26 309 131.26 329 139.26 341 c 0
 147.26 353 156.26 364 165.26 376 c 0
 174.26 388 175.26 389 185.26 397 c 0
 185.441 397.145 185.621 397.289 185.8 397.431 c 2
 177.26 404 l 2
 173.26 408 165.26 413 161.26 418 c 0
 157.26 423 156.26 429 157.26 433 c 0
EndSplineSet
EndChar

StartChar: viNsu1sut1su2
Encoding: 58431 58431 76
Width: 543
VWidth: 345
Flags: W
HStem: 0 62<492.402 530.262> 100 62<402.402 440.262> 225 37<286.525 420.739> 226 29<276.263 355.671 371.566 428.774> 300 62<222.402 260.262> 472 24<216.561 248.212>
VStem: 202.26 61<302.327 359.381> 382.26 61<102.327 159.381> 472.26 61<2.32742 59.3807>
LayerCount: 2
Fore
SplineSet
272.26 248 m 4xdf80
 272.26 251 276.26 253 282.26 255 c 4xdf80
 296.26 259 323.26 261 357.26 262 c 4
 362.26 262 366.26 262 370.26 262 c 4
 398.26 262 418.26 260 430.26 258 c 5
 430.26 256 430.26 253 430.26 251 c 4
 430.26 241 427.26 234 421.26 231 c 4
 410.26 226 392.26 225 365.26 225 c 4xef80
 338.26 225 312.26 225 285.26 226 c 5
 279.26 234 275.26 242 273.26 246 c 4
 273.26 247 272.26 247 272.26 248 c 4xdf80
202.26 328 m 4
 202.26 337 205.26 344 211.26 350 c 4
 218.26 357 224.26 361 234.26 362 c 4
 235.26 362 235.26 362 236.26 362 c 4
 245.26 362 254.26 355 261.26 343 c 4
 262.26 340 263.26 336 263.26 333 c 4
 263.26 327 260.26 320 254.26 312 c 4
 247.26 303 241.26 300 233.26 300 c 4
 230.26 300 225.26 301 222.26 302 c 4
 209.26 309 202.26 315 202.26 328 c 4
157.26 533 m 0
 158.26 535 159.26 538 162.26 541 c 0
 163.987 542.727 166.459 545.199 169.676 545.199 c 0
 170.186 545.199 170.713 545.137 171.26 545 c 0
 178.26 542 175.26 542 191.26 528 c 1
 196.26 522 205.26 515 213.26 510 c 0
 221.26 505 227.26 501 234.26 499 c 0
 236.26 498 239.26 498 241.26 496 c 0
 245.26 493 247.26 490 249.26 487 c 1
 249.26 484 250.26 485 248.26 480 c 0
 247.26 478 245.26 478 244.26 477 c 0
 241.26 474 238.26 472 233.26 472 c 0
 228.26 473 223.26 475 217.26 477 c 0
 213.458 478.629 210.836 479.964 208.594 481.163 c 1
 203.817 474.681 200.153 468.935 191.26 456 c 1
 173.26 435 175.26 432 133.26 383 c 0
 91.2598 334 91.2598 333 68.2598 305 c 1
 51.2598 286 40.2598 272 27.2598 262 c 0xef80
 20.2598 257 17.2598 255 14.2598 256 c 0
 11.2598 257 9.25977 260 10.2598 266 c 1
 10.2598 267 l 1
 12.2598 278 26.2598 298 49.2598 326 c 0
 83.2598 369 78.2598 361 99.2598 389 c 0
 114.26 409 131.26 429 139.26 441 c 0
 147.26 453 156.26 464 165.26 476 c 0
 174.26 488 175.26 489 185.26 497 c 0
 185.441 497.145 185.621 497.289 185.8 497.431 c 2
 177.26 504 l 2
 173.26 508 165.26 513 161.26 518 c 0
 157.26 523 156.26 529 157.26 533 c 0
472.26 28 m 0
 472.26 37 475.26 44 481.26 50 c 0
 488.26 57 494.26 61 504.26 62 c 0
 505.26 62 505.26 62 506.26 62 c 0
 515.26 62 524.26 55 531.26 43 c 0
 532.26 40 533.26 36 533.26 33 c 0
 533.26 27 530.26 20 524.26 12 c 0
 517.26 3 511.26 0 503.26 0 c 0
 500.26 0 495.26 1 492.26 2 c 0
 479.26 9 472.26 15 472.26 28 c 0
402.26 102 m 0
 389.26 109 382.26 115 382.26 128 c 0
 382.26 137 385.26 144 391.26 150 c 0
 398.26 157 404.26 161 414.26 162 c 0
 415.26 162 415.26 162 416.26 162 c 0
 425.26 162 434.26 155 441.26 143 c 0
 442.26 140 443.26 136 443.26 133 c 0
 443.26 127 440.26 120 434.26 112 c 0
 427.26 103 421.26 100 413.26 100 c 0
 410.26 100 405.26 101 402.26 102 c 0
EndSplineSet
EndChar

StartChar: viNsu1sut2su1
Encoding: 58432 58432 77
Width: 543
VWidth: 345
Flags: W
HStem: 0 62<492.402 530.262> 125 37<376.525 510.739> 126 29<366.263 445.671 461.566 518.774> 225 37<286.525 420.739> 226 29<276.263 355.671 371.566 428.774> 300 62<222.402 260.262> 472 24<216.561 248.212>
VStem: 202.26 61<302.327 359.381> 472.26 61<2.32742 59.3807>
LayerCount: 2
Fore
SplineSet
362.26 148 m 4xa780
 362.26 151 366.26 153 372.26 155 c 4xa780
 386.26 159 413.26 161 447.26 162 c 4
 452.26 162 456.26 162 460.26 162 c 4
 488.26 162 508.26 160 520.26 158 c 5
 520.26 156 520.26 153 520.26 151 c 4
 520.26 141 517.26 134 511.26 131 c 4
 500.26 126 482.26 125 455.26 125 c 4xc780
 428.26 125 402.26 125 375.26 126 c 5
 369.26 134 365.26 142 363.26 146 c 4
 363.26 147 362.26 147 362.26 148 c 4xa780
272.26 248 m 4
 272.26 251 276.26 253 282.26 255 c 4x8f80
 296.26 259 323.26 261 357.26 262 c 4
 362.26 262 366.26 262 370.26 262 c 4
 398.26 262 418.26 260 430.26 258 c 5
 430.26 256 430.26 253 430.26 251 c 4
 430.26 241 427.26 234 421.26 231 c 4
 410.26 226 392.26 225 365.26 225 c 4x9780
 338.26 225 312.26 225 285.26 226 c 5x8f80
 279.26 234 275.26 242 273.26 246 c 4
 273.26 247 272.26 247 272.26 248 c 4
202.26 328 m 4
 202.26 337 205.26 344 211.26 350 c 4
 218.26 357 224.26 361 234.26 362 c 4
 235.26 362 235.26 362 236.26 362 c 4
 245.26 362 254.26 355 261.26 343 c 4
 262.26 340 263.26 336 263.26 333 c 4
 263.26 327 260.26 320 254.26 312 c 4
 247.26 303 241.26 300 233.26 300 c 4
 230.26 300 225.26 301 222.26 302 c 4
 209.26 309 202.26 315 202.26 328 c 4
157.26 533 m 0
 158.26 535 159.26 538 162.26 541 c 0
 163.987 542.727 166.459 545.199 169.676 545.199 c 0
 170.186 545.199 170.713 545.137 171.26 545 c 0
 178.26 542 175.26 542 191.26 528 c 1
 196.26 522 205.26 515 213.26 510 c 0
 221.26 505 227.26 501 234.26 499 c 0
 236.26 498 239.26 498 241.26 496 c 0
 245.26 493 247.26 490 249.26 487 c 1
 249.26 484 250.26 485 248.26 480 c 0
 247.26 478 245.26 478 244.26 477 c 0
 241.26 474 238.26 472 233.26 472 c 0
 228.26 473 223.26 475 217.26 477 c 0
 213.458 478.629 210.836 479.964 208.594 481.163 c 1
 203.817 474.681 200.153 468.935 191.26 456 c 1
 173.26 435 175.26 432 133.26 383 c 0
 91.2598 334 91.2598 333 68.2598 305 c 1
 51.2598 286 40.2598 272 27.2598 262 c 0x9780
 20.2598 257 17.2598 255 14.2598 256 c 0
 11.2598 257 9.25977 260 10.2598 266 c 1
 10.2598 267 l 1
 12.2598 278 26.2598 298 49.2598 326 c 0
 83.2598 369 78.2598 361 99.2598 389 c 0
 114.26 409 131.26 429 139.26 441 c 0
 147.26 453 156.26 464 165.26 476 c 0
 174.26 488 175.26 489 185.26 497 c 0
 185.441 497.145 185.621 497.289 185.8 497.431 c 2
 177.26 504 l 2
 173.26 508 165.26 513 161.26 518 c 0
 157.26 523 156.26 529 157.26 533 c 0
472.26 28 m 0
 472.26 37 475.26 44 481.26 50 c 0
 488.26 57 494.26 61 504.26 62 c 0
 505.26 62 505.26 62 506.26 62 c 0
 515.26 62 524.26 55 531.26 43 c 0
 532.26 40 533.26 36 533.26 33 c 0
 533.26 27 530.26 20 524.26 12 c 0
 517.26 3 511.26 0 503.26 0 c 0
 500.26 0 495.26 1 492.26 2 c 0
 479.26 9 472.26 15 472.26 28 c 0
EndSplineSet
EndChar

StartChar: viNsuu2su2
Encoding: 58434 58434 78
Width: 532
VWidth: 345
Flags: W
HStem: 0 62<481.142 519.003> 100 62<391.142 429.003> 225 37<285.265 407.482> 304 21G<328.5 331> 325 37<195.265 317.482> 371 20G<331 333.5 421 423.5> 472 24<216.265 249.996>
VStem: 318 21<310.094 327 361 386.862> 371 61<102.327 159.381> 408 21<210.094 227 261 286.862> 461 61<2.32742 59.3807>
LayerCount: 2
Fore
SplineSet
318 361 m 5xef20
 320 366 318 374 320 379 c 4
 322 384 324 388 327 390 c 4
 329 391 330 391 332 391 c 4
 335 391 339 390 344 387 c 5
 345 384 345 384 345 381 c 4
 345 376 343 370 342 365 c 4
 341 361 340 356 339 351 c 6
 339 350 l 6
 339 349 339 347 339 346 c 4
 339 345 339 344 339 343 c 4
 340 335 341 329 344 324 c 4
 345 321 345 320 345 317 c 4
 345 314 345 312 344 310 c 4
 342 308 339 307 335 305 c 4
 332 304 332 304 330 304 c 4xf720
 327 304 326 306 323 309 c 4
 321 312 322 317 320 322 c 4
 319 325 318 325 318 327 c 5
 307 325 293 325 274 325 c 4
 247 325 221 325 194 326 c 5
 188 334 184 342 182 346 c 4
 182 347 181 347 181 348 c 4
 181 351 185 353 191 355 c 4
 205 359 232 361 266 362 c 4
 271 362 275 362 279 362 c 4
 294 362 307 362 318 361 c 5xef20
157 530 m 0
 157 535 158 537 162 541 c 0
 164 543 167 545 170 545 c 0
 171 545 170 545 171 545 c 0
 178 542 175 542 191 528 c 1
 196 522 205 515 213 510 c 0
 221 505 227 501 234 499 c 0
 236 498 239 498 241 496 c 0
 245 493 250 489 250 484 c 0
 250 483 249 482 248 480 c 0
 247 478 245 478 244 477 c 0
 241 474 238 472 233 472 c 0
 228 473 223 475 217 477 c 0
 213 479 211 480 209 481 c 1
 204 475 200 469 191 456 c 1
 173 435 175 432 133 383 c 0
 91 334 91 333 68 305 c 1
 51 286 40 272 27 262 c 0
 21 258 19 256 16 256 c 0
 14 256 l 0
 11 257 9 260 10 266 c 1
 10 267 l 1
 12 278 26 298 49 326 c 0
 83 369 78 361 99 389 c 0
 114 409 131 429 139 441 c 0
 147 453 156 464 165 476 c 0
 174 488 175 489 185 497 c 0
 186 497 l 2
 177 504 l 2
 173 508 165 513 161 518 c 0
 158 522 157 526 157 530 c 0
408 261 m 5xe760
 410 266 408 274 410 279 c 4
 412 284 414 288 417 290 c 4
 419 291 420 291 422 291 c 4
 425 291 429 290 434 287 c 5
 435 284 435 284 435 281 c 4
 435 276 433 270 432 265 c 4xe7a0
 431 261 430 256 429 251 c 6
 429 250 l 6
 429 249 429 247 429 246 c 4
 429 245 429 244 429 243 c 4
 430 235 431 229 434 224 c 4
 435 221 435 220 435 217 c 4
 435 214 435 212 434 210 c 4
 432 208 429 207 425 205 c 4
 422 204 422 204 420 204 c 4
 417 204 416 206 413 209 c 4
 411 212 412 217 410 222 c 4
 409 225 408 225 408 227 c 5
 397 225 383 225 364 225 c 4
 337 225 311 225 284 226 c 5
 278 234 274 242 272 246 c 4
 272 247 271 247 271 248 c 4
 271 251 275 253 281 255 c 4
 295 259 322 261 356 262 c 4
 361 262 365 262 369 262 c 4
 384 262 397 262 408 261 c 5xe760
461 28 m 0
 461 37 464 44 470 50 c 0
 477 57 483 61 493 62 c 0
 494 62 494 62 495 62 c 0
 504 62 513 55 520 43 c 0
 521 40 522 36 522 33 c 0
 522 27 519 20 513 12 c 0
 506 3 500 0 492 0 c 0
 489 0 484 1 481 2 c 0
 468 9 461 15 461 28 c 0
371 128 m 0
 371 137 374 144 380 150 c 0
 387 157 393 161 403 162 c 0
 404 162 404 162 405 162 c 0
 414 162 423 155 430 143 c 0
 431 140 432 136 432 133 c 0
 432 127 429 120 423 112 c 0
 416 103 410 100 402 100 c 0
 399 100 394 101 391 102 c 0
 378 109 371 115 371 128 c 0
EndSplineSet
EndChar

StartChar: viNsut1sux1
Encoding: 58435 58435 79
Width: 388
VWidth: 345
Flags: W
HStem: 27 42.2451<310.549 342.163> 126 37<194.525 328.739> 127 29<184.263 263.671 279.567 336.775> 272 24<216.561 248.212> 325.199 20G<168.068 169.931>
VStem: 344.26 34.155<-14.8362 37>
LayerCount: 2
Fore
SplineSet
285.26 -59 m 0x9c
 285.26 -57 288.26 -54 291.26 -52 c 0
 297.26 -47 308.26 -37 325.26 -24 c 0
 336.26 -16 343.26 -7 344.26 1 c 0
 345.26 5 343.26 10 342.26 14 c 0
 340.26 19 333.26 23 323.26 27 c 0
 313.26 31 308.26 34 308.26 38 c 0
 308.26 47 313.26 55 320.26 62 c 0
 325.286 67.0264 331.716 69.2451 338.374 69.2451 c 0
 339.664 69.2451 340.962 69.1621 342.26 69 c 0
 344.26 69 345.26 67 347.26 67 c 0
 363.26 60 374.26 49 377.26 37 c 0
 378.105 34.4639 378.415 31.9277 378.415 29.3164 c 0
 378.415 25.75 377.837 22.041 377.26 18 c 0
 376.26 12 374.26 7 371.26 0 c 0
 365.26 -13 353.26 -25 338.26 -37 c 0
 323.26 -49 308.26 -56 292.26 -63 c 0
 291.26 -64 291.26 -64 290.26 -64 c 2
 286.26 -61 l 2
 285.26 -60 285.26 -60 285.26 -59 c 0x9c
180.26 149 m 0
 180.26 152 184.26 154 190.26 156 c 0xbc
 204.26 160 231.26 162 265.26 163 c 0
 270.26 163 274.26 163 278.26 163 c 0
 306.26 163 326.26 161 338.26 159 c 1
 338.26 157 338.26 154 338.26 152 c 0
 338.26 142 335.26 135 329.26 132 c 0
 318.26 127 300.26 126 273.26 126 c 0xdc
 246.26 126 220.26 126 193.26 127 c 1xbc
 187.26 135 183.26 143 181.26 147 c 0
 181.26 148 180.26 148 180.26 149 c 0
156.899 329.872 m 0
 156.899 334.389 158.643 337.382 162.26 341 c 0
 163.987 342.727 166.459 345.199 169.676 345.199 c 0
 170.186 345.199 170.713 345.137 171.26 345 c 0
 178.26 342 175.26 342 191.26 328 c 1
 196.26 322 205.26 315 213.26 310 c 0
 221.26 305 227.26 301 234.26 299 c 0
 236.26 298 239.26 298 241.26 296 c 0
 245.26 293 247.26 290 249.26 287 c 1
 249.26 284 250.26 285 248.26 280 c 0
 247.26 278 245.26 278 244.26 277 c 0
 241.26 274 238.26 272 233.26 272 c 0
 228.26 273 223.26 275 217.26 277 c 0
 213.458 278.629 210.836 279.964 208.594 281.163 c 1
 203.817 274.681 200.153 268.935 191.26 256 c 1
 173.26 235 175.26 232 133.26 183 c 0
 91.2598 134 91.2598 133 68.2598 105 c 1
 51.2598 86 40.2598 72 27.2598 62 c 0
 20.2598 57 17.2598 55 14.2598 56 c 0
 11.2598 57 9.25977 60 10.2598 66 c 1
 10.2598 67 l 1
 12.2598 78 26.2598 98 49.2598 126 c 0xdc
 83.2598 169 78.2598 161 99.2598 189 c 0
 114.26 209 131.26 229 139.26 241 c 0
 147.26 253 156.26 264 165.26 276 c 0
 174.26 288 175.26 289 185.26 297 c 0
 185.441 297.145 185.621 297.289 185.8 297.431 c 2
 177.26 304 l 2
 173.26 308 165.26 313 161.26 318 c 0
 158.204 321.82 156.899 326.223 156.899 329.872 c 0
EndSplineSet
EndChar

StartChar: viNsut2
Encoding: 58436 58436 80
Width: 438
VWidth: 345
Flags: W
HStem: 26 37<284.525 418.739> 27 29<274.263 353.671 369.567 426.775> 126 37<194.525 328.739> 127 29<184.263 263.671 279.567 336.775> 272 24<216.561 248.212> 325.199 20G<168.068 169.931>
LayerCount: 2
Fore
SplineSet
270.26 49 m 0x4c
 270.26 52 274.26 54 280.26 56 c 0x4c
 294.26 60 321.26 62 355.26 63 c 0
 360.26 63 364.26 63 368.26 63 c 0
 396.26 63 416.26 61 428.26 59 c 1
 428.26 57 428.26 54 428.26 52 c 0
 428.26 42 425.26 35 419.26 32 c 0
 408.26 27 390.26 26 363.26 26 c 0x8c
 336.26 26 310.26 26 283.26 27 c 1
 277.26 35 273.26 43 271.26 47 c 0
 271.26 48 270.26 48 270.26 49 c 0x4c
180.26 149 m 0
 180.26 152 184.26 154 190.26 156 c 0x1c
 204.26 160 231.26 162 265.26 163 c 0
 270.26 163 274.26 163 278.26 163 c 0
 306.26 163 326.26 161 338.26 159 c 1
 338.26 157 338.26 154 338.26 152 c 0
 338.26 142 335.26 135 329.26 132 c 0
 318.26 127 300.26 126 273.26 126 c 0x2c
 246.26 126 220.26 126 193.26 127 c 1x1c
 187.26 135 183.26 143 181.26 147 c 0
 181.26 148 180.26 148 180.26 149 c 0
157.26 333 m 0
 158.26 335 159.26 338 162.26 341 c 0
 163.987 342.727 166.459 345.199 169.676 345.199 c 0
 170.186 345.199 170.713 345.137 171.26 345 c 0
 178.26 342 175.26 342 191.26 328 c 1
 196.26 322 205.26 315 213.26 310 c 0
 221.26 305 227.26 301 234.26 299 c 0
 236.26 298 239.26 298 241.26 296 c 0
 245.26 293 247.26 290 249.26 287 c 1
 249.26 284 250.26 285 248.26 280 c 0
 247.26 278 245.26 278 244.26 277 c 0
 241.26 274 238.26 272 233.26 272 c 0
 228.26 273 223.26 275 217.26 277 c 0
 213.458 278.629 210.836 279.964 208.594 281.163 c 1
 203.817 274.681 200.153 268.935 191.26 256 c 1
 173.26 235 175.26 232 133.26 183 c 0
 91.2598 134 91.2598 133 68.2598 105 c 1
 51.2598 86 40.2598 72 27.2598 62 c 0
 20.2598 57 17.2598 55 14.2598 56 c 0
 11.2598 57 9.25977 60 10.2598 66 c 1
 10.2598 67 l 1
 12.2598 78 26.2598 98 49.2598 126 c 0x6c
 83.2598 169 78.2598 161 99.2598 189 c 0
 114.26 209 131.26 229 139.26 241 c 0
 147.26 253 156.26 264 165.26 276 c 0
 174.26 288 175.26 289 185.26 297 c 0
 185.441 297.145 185.621 297.289 185.8 297.431 c 2
 177.26 304 l 2
 173.26 308 165.26 313 161.26 318 c 0
 157.26 323 156.26 329 157.26 333 c 0
EndSplineSet
EndChar

StartChar: viNsut3
Encoding: 58437 58437 81
Width: 528
VWidth: 345
Flags: W
HStem: 26 37<374.525 508.739> 27 29<364.263 443.671 459.567 516.775> 126 37<284.525 418.739> 127 29<274.263 353.671 369.567 426.775> 226 37<194.525 328.739> 227 29<184.263 263.671 279.567 336.775> 372 24<216.561 248.212>
LayerCount: 2
Fore
SplineSet
360.26 49 m 0x42
 360.26 52 364.26 54 370.26 56 c 0x42
 384.26 60 411.26 62 445.26 63 c 0
 450.26 63 454.26 63 458.26 63 c 0
 486.26 63 506.26 61 518.26 59 c 1
 518.26 57 518.26 54 518.26 52 c 0
 518.26 42 515.26 35 509.26 32 c 0
 498.26 27 480.26 26 453.26 26 c 0x82
 426.26 26 400.26 26 373.26 27 c 1
 367.26 35 363.26 43 361.26 47 c 0
 361.26 48 360.26 48 360.26 49 c 0x42
270.26 149 m 0
 270.26 152 274.26 154 280.26 156 c 0x12
 294.26 160 321.26 162 355.26 163 c 0
 360.26 163 364.26 163 368.26 163 c 0
 396.26 163 416.26 161 428.26 159 c 1
 428.26 157 428.26 154 428.26 152 c 0
 428.26 142 425.26 135 419.26 132 c 0
 408.26 127 390.26 126 363.26 126 c 0x22
 336.26 126 310.26 126 283.26 127 c 1x12
 277.26 135 273.26 143 271.26 147 c 0
 271.26 148 270.26 148 270.26 149 c 0
180.26 249 m 0
 180.26 252 184.26 254 190.26 256 c 0x06
 204.26 260 231.26 262 265.26 263 c 0
 270.26 263 274.26 263 278.26 263 c 0
 306.26 263 326.26 261 338.26 259 c 1
 338.26 257 338.26 254 338.26 252 c 0
 338.26 242 335.26 235 329.26 232 c 0
 318.26 227 300.26 226 273.26 226 c 0x0a
 246.26 226 220.26 226 193.26 227 c 1x06
 187.26 235 183.26 243 181.26 247 c 0
 181.26 248 180.26 248 180.26 249 c 0
156.899 429.872 m 0
 156.899 434.389 158.643 437.382 162.26 441 c 0
 163.987 442.727 166.459 445.199 169.676 445.199 c 0
 170.186 445.199 170.713 445.137 171.26 445 c 0
 178.26 442 175.26 442 191.26 428 c 1
 196.26 422 205.26 415 213.26 410 c 0
 221.26 405 227.26 401 234.26 399 c 0
 236.26 398 239.26 398 241.26 396 c 0
 245.345 392.936 249.51 389.381 249.51 384.25 c 0
 249.51 383.5 249.26 382.5 248.26 380 c 0
 247.26 378 245.26 378 244.26 377 c 0
 241.26 374 238.26 372 233.26 372 c 0
 228.26 373 223.26 375 217.26 377 c 0
 213.458 378.629 210.836 379.964 208.594 381.163 c 1
 203.817 374.681 200.153 368.935 191.26 356 c 1
 173.26 335 175.26 332 133.26 283 c 0
 91.2598 234 91.2598 233 68.2598 205 c 1
 51.2598 186 40.2598 172 27.2598 162 c 0
 21.4268 157.833 18.3711 155.75 15.7783 155.75 c 0
 15.2598 155.75 14.7598 155.833 14.2598 156 c 0
 11.2598 157 9.25977 160 10.2598 166 c 1
 10.2598 167 l 1
 12.2598 178 26.2598 198 49.2598 226 c 0x1a
 83.2598 269 78.2598 261 99.2598 289 c 0
 114.26 309 131.26 329 139.26 341 c 0
 147.26 353 156.26 364 165.26 376 c 0
 174.26 388 175.26 389 185.26 397 c 0
 185.441 397.145 185.621 397.289 185.8 397.431 c 2
 177.26 404 l 2
 173.26 408 165.26 413 161.26 418 c 0
 158.204 421.82 156.899 426.223 156.899 429.872 c 0
EndSplineSet
EndChar

StartChar: ciM
Encoding: 58438 58438 82
Width: 418
VWidth: 345
Flags: W
HStem: -2 21G<389.26 392.76> 145 62<222.402 260.263> 326.151 20G<203.086 206.51>
VStem: 202.26 61<147.327 204.381>
LayerCount: 2
Fore
SplineSet
296.26 83 m 1
 297.26 92 298.26 99 300.26 103 c 0
 301.26 105 304.26 105 306.26 105 c 0
 308.26 105 310.26 105 313.26 103 c 0
 325.26 97 343.26 82 365.26 60 c 0
 387.26 38 401.26 21 408.26 11 c 1
 402.26 3 395.26 -2 390.26 -2 c 0
 388.26 -2 388.26 -2 386.26 -1 c 0
 376.26 3 362.26 13 346.26 31 c 0
 330.26 49 312.26 65 296.26 83 c 1
202.26 173 m 0
 202.26 182 205.26 189 211.26 195 c 0
 218.26 202 224.26 206 234.26 207 c 0
 235.26 207 235.26 207 236.26 207 c 0
 245.26 207 254.26 200 261.26 188 c 0
 262.26 185 263.26 181 263.26 178 c 0
 263.26 172 260.26 165 254.26 157 c 0
 247.26 148 241.26 145 233.26 145 c 0
 230.26 145 225.26 146 222.26 147 c 0
 209.26 154 202.26 160 202.26 173 c 0
10.2598 104 m 1
 10.2598 105 l 1
 12.2598 116 26.2598 136 49.2598 164 c 0
 83.2598 207 78.2598 199 99.2598 227 c 0
 114.26 247 131.26 267 139.26 279 c 0
 147.26 291 156.26 302 165.26 314 c 0
 174.26 326 175.26 327 185.26 335 c 0
 194.25 342.192 200.007 346.151 206.164 346.151 c 0
 206.856 346.151 207.553 346.101 208.26 346 c 2
 209.26 346 l 1
 215.26 345 218.26 340 217.26 334 c 0
 216.26 331 216.26 330 212.26 324 c 0
 205.26 315 202.26 310 191.26 294 c 1
 173.26 273 175.26 270 133.26 221 c 0
 91.2598 172 91.2598 171 68.2598 143 c 1
 51.2598 124 40.2598 110 27.2598 100 c 0
 20.2598 95 17.2598 93 14.2598 94 c 0
 11.2598 95 9.25977 98 10.2598 104 c 1
EndSplineSet
EndChar

StartChar: ci
Encoding: 58439 58439 83
Width: 362
VWidth: 345
Flags: W
HStem: 0 62<311.402 349.263> 100 62<221.402 259.263> 288.151 20G<203.086 206.51>
VStem: 201.26 61<102.327 159.381> 291.26 61<2.32742 59.3807>
LayerCount: 2
Fore
SplineSet
291.26 28 m 0
 291.26 37 294.26 44 300.26 50 c 0
 307.26 57 313.26 61 323.26 62 c 0
 324.26 62 324.26 62 325.26 62 c 0
 334.26 62 343.26 55 350.26 43 c 0
 351.26 40 352.26 36 352.26 33 c 0
 352.26 27 349.26 20 343.26 12 c 0
 336.26 3 330.26 0 322.26 0 c 0
 319.26 0 314.26 1 311.26 2 c 0
 298.26 9 291.26 15 291.26 28 c 0
201.26 128 m 0
 201.26 137 204.26 144 210.26 150 c 0
 217.26 157 223.26 161 233.26 162 c 0
 234.26 162 234.26 162 235.26 162 c 0
 244.26 162 253.26 155 260.26 143 c 0
 261.26 140 262.26 136 262.26 133 c 0
 262.26 127 259.26 120 253.26 112 c 0
 246.26 103 240.26 100 232.26 100 c 0
 229.26 100 224.26 101 221.26 102 c 0
 208.26 109 201.26 115 201.26 128 c 0
10.2598 66 m 1
 10.2598 67 l 1
 12.2598 78 26.2598 98 49.2598 126 c 0
 83.2598 169 78.2598 161 99.2598 189 c 0
 114.26 209 131.26 229 139.26 241 c 0
 147.26 253 156.26 264 165.26 276 c 0
 174.26 288 175.26 289 185.26 297 c 0
 194.25 304.192 200.007 308.151 206.164 308.151 c 0
 206.856 308.151 207.553 308.101 208.26 308 c 2
 209.26 308 l 1
 215.26 307 218.26 302 217.26 296 c 0
 216.26 293 216.26 292 212.26 286 c 0
 205.26 277 202.26 272 191.26 256 c 1
 173.26 235 175.26 232 133.26 183 c 0
 91.2598 134 91.2598 133 68.2598 105 c 1
 51.2598 86 40.2598 72 27.2598 62 c 0
 20.2598 57 17.2598 55 14.2598 56 c 0
 11.2598 57 9.25977 60 10.2598 66 c 1
EndSplineSet
EndChar

StartChar: visu2suw1
Encoding: 58441 58441 84
Width: 508
VWidth: 345
Flags: W
HStem: 144 62<312.402 350.263> 244 62<222.402 260.263>
VStem: 202.26 61<246.327 303.381> 292.26 61<146.327 203.381>
LayerCount: 2
Fore
SplineSet
386.26 82 m 1
 387.26 91 388.26 98 390.26 102 c 0
 391.26 104 394.26 104 396.26 104 c 0
 398.26 104 400.26 104 403.26 102 c 0
 415.26 96 433.26 80 455.26 58 c 0
 477.26 36 491.26 20 498.26 10 c 1
 492.26 2 485.26 -3 480.26 -3 c 0
 478.26 -3 478.26 -3 476.26 -2 c 0
 466.26 2 452.26 12 436.26 30 c 0
 420.26 48 402.26 64 386.26 82 c 1
292.26 172 m 0
 292.26 181 295.26 188 301.26 194 c 0
 308.26 201 314.26 205 324.26 206 c 0
 325.26 206 325.26 206 326.26 206 c 0
 335.26 206 344.26 199 351.26 187 c 0
 352.26 184 353.26 180 353.26 177 c 0
 353.26 171 350.26 164 344.26 156 c 0
 337.26 147 331.26 144 323.26 144 c 0
 320.26 144 315.26 145 312.26 146 c 0
 299.26 153 292.26 159 292.26 172 c 0
202.26 272 m 0
 202.26 281 205.26 288 211.26 294 c 0
 218.26 301 224.26 305 234.26 306 c 0
 235.26 306 235.26 306 236.26 306 c 0
 245.26 306 254.26 299 261.26 287 c 0
 262.26 284 263.26 280 263.26 277 c 0
 263.26 271 260.26 264 254.26 256 c 0
 247.26 247 241.26 244 233.26 244 c 0
 230.26 244 225.26 245 222.26 246 c 0
 209.26 253 202.26 259 202.26 272 c 0
10.2598 203 m 1
 10.2598 204 l 1
 12.2598 215 26.2598 235 49.2598 263 c 0
 83.2598 306 78.2598 298 99.2598 326 c 0
 114.26 346 131.26 366 139.26 378 c 0
 147.26 390 156.26 401 165.26 413 c 0
 174.26 425 175.26 426 185.26 434 c 0
 194.25 441.192 200.007 445.151 206.164 445.151 c 0
 206.856 445.151 207.553 445.101 208.26 445 c 2
 209.26 445 l 1
 215.26 444 218.26 439 217.26 433 c 0
 216.26 430 216.26 429 212.26 423 c 0
 205.26 414 202.26 409 191.26 393 c 1
 173.26 372 175.26 369 133.26 320 c 0
 91.2598 271 91.2598 270 68.2598 242 c 1
 51.2598 223 40.2598 209 27.2598 199 c 0
 20.2598 194 17.2598 192 14.2598 193 c 0
 11.2598 194 9.25977 197 10.2598 203 c 1
EndSplineSet
EndChar

StartChar: ci1
Encoding: 58442 58442 85
Width: 452
VWidth: 345
Flags: W
HStem: 0 62<401.402 439.263> 100 62<311.402 349.263> 200 62<221.402 259.263> 388.151 20G<203.086 206.51>
VStem: 201.26 61<202.327 259.381> 291.26 61<102.327 159.381> 381.26 61<2.32742 59.3807>
LayerCount: 2
Fore
SplineSet
381.26 28 m 0
 381.26 37 384.26 44 390.26 50 c 0
 397.26 57 403.26 61 413.26 62 c 0
 414.26 62 414.26 62 415.26 62 c 0
 424.26 62 433.26 55 440.26 43 c 0
 441.26 40 442.26 36 442.26 33 c 0
 442.26 27 439.26 20 433.26 12 c 0
 426.26 3 420.26 0 412.26 0 c 0
 409.26 0 404.26 1 401.26 2 c 0
 388.26 9 381.26 15 381.26 28 c 0
291.26 128 m 0
 291.26 137 294.26 144 300.26 150 c 0
 307.26 157 313.26 161 323.26 162 c 0
 324.26 162 324.26 162 325.26 162 c 0
 334.26 162 343.26 155 350.26 143 c 0
 351.26 140 352.26 136 352.26 133 c 0
 352.26 127 349.26 120 343.26 112 c 0
 336.26 103 330.26 100 322.26 100 c 0
 319.26 100 314.26 101 311.26 102 c 0
 298.26 109 291.26 115 291.26 128 c 0
201.26 228 m 0
 201.26 237 204.26 244 210.26 250 c 0
 217.26 257 223.26 261 233.26 262 c 0
 234.26 262 234.26 262 235.26 262 c 0
 244.26 262 253.26 255 260.26 243 c 0
 261.26 240 262.26 236 262.26 233 c 0
 262.26 227 259.26 220 253.26 212 c 0
 246.26 203 240.26 200 232.26 200 c 0
 229.26 200 224.26 201 221.26 202 c 0
 208.26 209 201.26 215 201.26 228 c 0
10.2598 166 m 1
 10.2598 167 l 1
 12.2598 178 26.2598 198 49.2598 226 c 0
 83.2598 269 78.2598 261 99.2598 289 c 0
 114.26 309 131.26 329 139.26 341 c 0
 147.26 353 156.26 364 165.26 376 c 0
 174.26 388 175.26 389 185.26 397 c 0
 194.25 404.192 200.007 408.151 206.164 408.151 c 0
 206.856 408.151 207.553 408.101 208.26 408 c 2
 209.26 408 l 1
 215.26 407 218.26 402 217.26 396 c 0
 216.26 393 216.26 392 212.26 386 c 0
 205.26 377 202.26 372 191.26 356 c 1
 173.26 335 175.26 332 133.26 283 c 0
 91.2598 234 91.2598 233 68.2598 205 c 1
 51.2598 186 40.2598 172 27.2598 162 c 0
 20.2598 157 17.2598 155 14.2598 156 c 0
 11.2598 157 9.25977 160 10.2598 166 c 1
EndSplineSet
EndChar

StartChar: visu5
Encoding: 58443 58443 86
Width: 632
VWidth: 345
Flags: W
HStem: 0 62<581.402 619.262> 100 62<491.402 529.262> 200 62<401.402 439.262> 300 62<311.402 349.262> 400 62<221.402 259.262>
VStem: 201.26 61<402.327 459.381> 291.26 61<302.327 359.381> 381.26 61<202.327 259.381> 471.26 61<102.327 159.381> 561.26 61<2.32742 59.3807>
LayerCount: 2
Fore
SplineSet
561.26 28 m 0
 561.26 37 564.26 44 570.26 50 c 0
 577.26 57 583.26 61 593.26 62 c 0
 594.26 62 594.26 62 595.26 62 c 0
 604.26 62 613.26 55 620.26 43 c 0
 621.26 40 622.26 36 622.26 33 c 0
 622.26 27 619.26 20 613.26 12 c 0
 606.26 3 600.26 0 592.26 0 c 0
 589.26 0 584.26 1 581.26 2 c 0
 568.26 9 561.26 15 561.26 28 c 0
471.26 128 m 0
 471.26 137 474.26 144 480.26 150 c 0
 487.26 157 493.26 161 503.26 162 c 0
 504.26 162 504.26 162 505.26 162 c 0
 514.26 162 523.26 155 530.26 143 c 0
 531.26 140 532.26 136 532.26 133 c 0
 532.26 127 529.26 120 523.26 112 c 0
 516.26 103 510.26 100 502.26 100 c 0
 499.26 100 494.26 101 491.26 102 c 0
 478.26 109 471.26 115 471.26 128 c 0
381.26 228 m 0
 381.26 237 384.26 244 390.26 250 c 0
 397.26 257 403.26 261 413.26 262 c 0
 414.26 262 414.26 262 415.26 262 c 0
 424.26 262 433.26 255 440.26 243 c 0
 441.26 240 442.26 236 442.26 233 c 0
 442.26 227 439.26 220 433.26 212 c 0
 426.26 203 420.26 200 412.26 200 c 0
 409.26 200 404.26 201 401.26 202 c 0
 388.26 209 381.26 215 381.26 228 c 0
291.26 328 m 0
 291.26 337 294.26 344 300.26 350 c 0
 307.26 357 313.26 361 323.26 362 c 0
 324.26 362 324.26 362 325.26 362 c 0
 334.26 362 343.26 355 350.26 343 c 0
 351.26 340 352.26 336 352.26 333 c 0
 352.26 327 349.26 320 343.26 312 c 0
 336.26 303 330.26 300 322.26 300 c 0
 319.26 300 314.26 301 311.26 302 c 0
 298.26 309 291.26 315 291.26 328 c 0
201.26 428 m 0
 201.26 437 204.26 444 210.26 450 c 0
 217.26 457 223.26 461 233.26 462 c 0
 234.26 462 234.26 462 235.26 462 c 0
 244.26 462 253.26 455 260.26 443 c 0
 261.26 440 262.26 436 262.26 433 c 0
 262.26 427 259.26 420 253.26 412 c 0
 246.26 403 240.26 400 232.26 400 c 0
 229.26 400 224.26 401 221.26 402 c 0
 208.26 409 201.26 415 201.26 428 c 0
10.2598 366 m 1
 10.2598 367 l 1
 12.2598 378 26.2598 398 49.2598 426 c 0
 83.2598 469 78.2598 461 99.2598 489 c 0
 114.26 509 131.26 529 139.26 541 c 0
 147.26 553 156.26 564 165.26 576 c 0
 174.26 588 175.26 589 185.26 597 c 0
 194.25 604.192 200.007 608.151 206.164 608.151 c 0
 206.856 608.151 207.553 608.101 208.26 608 c 2
 209.26 608 l 1
 215.26 607 218.26 602 217.26 596 c 0
 216.26 593 216.26 592 212.26 586 c 0
 205.26 577 202.26 572 191.26 556 c 1
 173.26 535 175.26 532 133.26 483 c 0
 91.2598 434 91.2598 433 68.2598 405 c 1
 51.2598 386 40.2598 372 27.2598 362 c 0
 20.2598 357 17.2598 355 14.2598 356 c 0
 11.2598 357 9.25977 360 10.2598 366 c 1
EndSplineSet
EndChar

StartChar: visu2sut1
Encoding: 58444 58444 87
Width: 510
VWidth: 345
Flags: W
HStem: 25 37<356.525 490.739> 26 29<346.263 425.671 441.567 498.775> 100 62<292.402 330.263> 200 62<202.402 240.263> 388.151 20G<203.086 206.51>
VStem: 182.26 61<202.327 259.381> 272.26 61<102.327 159.381>
LayerCount: 2
Fore
SplineSet
342.26 48 m 0x7e
 342.26 51 346.26 53 352.26 55 c 0x7e
 366.26 59 393.26 61 427.26 62 c 0
 432.26 62 436.26 62 440.26 62 c 0
 468.26 62 488.26 60 500.26 58 c 1
 500.26 56 500.26 53 500.26 51 c 0
 500.26 41 497.26 34 491.26 31 c 0
 480.26 26 462.26 25 435.26 25 c 0xbe
 408.26 25 382.26 25 355.26 26 c 1
 349.26 34 345.26 42 343.26 46 c 0
 343.26 47 342.26 47 342.26 48 c 0x7e
272.26 128 m 0
 272.26 137 275.26 144 281.26 150 c 0
 288.26 157 294.26 161 304.26 162 c 0
 305.26 162 305.26 162 306.26 162 c 0
 315.26 162 324.26 155 331.26 143 c 0
 332.26 140 333.26 136 333.26 133 c 0
 333.26 127 330.26 120 324.26 112 c 0
 317.26 103 311.26 100 303.26 100 c 0
 300.26 100 295.26 101 292.26 102 c 0
 279.26 109 272.26 115 272.26 128 c 0
182.26 228 m 0
 182.26 237 185.26 244 191.26 250 c 0
 198.26 257 204.26 261 214.26 262 c 0
 215.26 262 215.26 262 216.26 262 c 0
 225.26 262 234.26 255 241.26 243 c 0
 242.26 240 243.26 236 243.26 233 c 0
 243.26 227 240.26 220 234.26 212 c 0
 227.26 203 221.26 200 213.26 200 c 0
 210.26 200 205.26 201 202.26 202 c 0
 189.26 209 182.26 215 182.26 228 c 0
10.2598 166 m 1
 10.2598 167 l 1
 12.2598 178 26.2598 198 49.2598 226 c 0
 83.2598 269 78.2598 261 99.2598 289 c 0
 114.26 309 131.26 329 139.26 341 c 0
 147.26 353 156.26 364 165.26 376 c 0
 174.26 388 175.26 389 185.26 397 c 0
 194.25 404.192 200.007 408.151 206.164 408.151 c 0
 206.856 408.151 207.553 408.101 208.26 408 c 2
 209.26 408 l 1
 215.26 407 218.26 402 217.26 396 c 0
 216.26 393 216.26 392 212.26 386 c 0
 205.26 377 202.26 372 191.26 356 c 1
 173.26 335 175.26 332 133.26 283 c 0
 91.2598 234 91.2598 233 68.2598 205 c 1
 51.2598 186 40.2598 172 27.2598 162 c 0
 21.4268 157.833 18.3711 155.75 15.7783 155.75 c 0
 15.2598 155.75 14.7598 155.833 14.2598 156 c 0
 11.2598 157 9.25977 160 10.2598 166 c 1
EndSplineSet
EndChar

StartChar: ciB
Encoding: 58445 58445 88
Width: 377
VWidth: 345
Flags: W
HStem: 103 62<221.402 259.263> 291.151 20G<203.086 206.51> 291.151 20G<203.086 206.51>
VStem: 201.26 61<105.327 162.381> 333.26 34.155<-18.8362 33>
LayerCount: 2
Fore
SplineSet
274.26 -63 m 0x98
 274.26 -61 277.26 -58 280.26 -56 c 0
 286.26 -51 297.26 -41 314.26 -28 c 0
 325.26 -20 332.26 -11 333.26 -3 c 0
 334.26 1 332.26 6 331.26 10 c 0
 329.26 15 322.26 19 312.26 23 c 0
 302.26 27 297.26 30 297.26 34 c 0
 297.26 43 302.26 51 309.26 58 c 0
 315.26 64 323.26 66 331.26 65 c 0
 333.26 65 334.26 63 336.26 63 c 0
 352.26 56 363.26 45 366.26 33 c 0
 367.105 30.4639 367.415 27.9277 367.415 25.3164 c 0
 367.415 21.75 366.837 18.041 366.26 14 c 0
 365.26 8 363.26 3 360.26 -4 c 0
 354.26 -17 342.26 -29 327.26 -41 c 0
 312.26 -53 297.26 -60 281.26 -67 c 0
 280.26 -68 280.26 -68 279.26 -68 c 2
 275.26 -65 l 2
 274.26 -64 274.26 -64 274.26 -63 c 0x98
201.26 131 m 0
 201.26 140 204.26 147 210.26 153 c 0
 217.26 160 223.26 164 233.26 165 c 0
 234.26 165 234.26 165 235.26 165 c 0
 244.26 165 253.26 158 260.26 146 c 0
 261.26 143 262.26 139 262.26 136 c 0
 262.26 130 259.26 123 253.26 115 c 0
 246.26 106 240.26 103 232.26 103 c 0
 229.26 103 224.26 104 221.26 105 c 0
 208.26 112 201.26 118 201.26 131 c 0
10.2598 69 m 1
 10.2598 70 l 1
 12.2598 81 26.2598 101 49.2598 129 c 0
 83.2598 172 78.2598 164 99.2598 192 c 0
 114.26 212 131.26 232 139.26 244 c 0
 147.26 256 156.26 267 165.26 279 c 0
 174.26 291 175.26 292 185.26 300 c 0
 194.25 307.192 200.007 311.151 206.164 311.151 c 0xd8
 206.856 311.151 207.553 311.101 208.26 311 c 2
 209.26 311 l 1
 215.26 310 218.26 305 217.26 299 c 0
 216.26 296 216.26 295 212.26 289 c 0
 205.26 280 202.26 275 191.26 259 c 1
 173.26 238 175.26 235 133.26 186 c 0
 91.2598 137 91.2598 136 68.2598 108 c 1
 51.2598 89 40.2598 75 27.2598 65 c 0
 20.2598 60 17.2598 58 14.2598 59 c 0
 11.2598 60 9.25977 63 10.2598 69 c 1
EndSplineSet
EndChar

StartChar: ciS
Encoding: 58446 58446 89
Width: 439
VWidth: 345
Flags: W
HStem: 25 37<285.525 419.739> 26 29<275.263 354.671 370.567 427.775> 100 62<221.402 259.263> 288.151 20G<203.086 206.51>
VStem: 201.26 61<102.327 159.381>
LayerCount: 2
Fore
SplineSet
271.26 48 m 0x78
 271.26 51 275.26 53 281.26 55 c 0x78
 295.26 59 322.26 61 356.26 62 c 0
 361.26 62 365.26 62 369.26 62 c 0
 397.26 62 417.26 60 429.26 58 c 1
 429.26 56 429.26 53 429.26 51 c 0
 429.26 41 426.26 34 420.26 31 c 0
 409.26 26 391.26 25 364.26 25 c 0xb8
 337.26 25 311.26 25 284.26 26 c 1
 278.26 34 274.26 42 272.26 46 c 0
 272.26 47 271.26 47 271.26 48 c 0x78
201.26 128 m 0
 201.26 137 204.26 144 210.26 150 c 0
 217.26 157 223.26 161 233.26 162 c 0
 234.26 162 234.26 162 235.26 162 c 0
 244.26 162 253.26 155 260.26 143 c 0
 261.26 140 262.26 136 262.26 133 c 0
 262.26 127 259.26 120 253.26 112 c 0
 246.26 103 240.26 100 232.26 100 c 0
 229.26 100 224.26 101 221.26 102 c 0
 208.26 109 201.26 115 201.26 128 c 0
10.2598 66 m 1
 10.2598 67 l 1
 12.2598 78 26.2598 98 49.2598 126 c 0
 83.2598 169 78.2598 161 99.2598 189 c 0
 114.26 209 131.26 229 139.26 241 c 0
 147.26 253 156.26 264 165.26 276 c 0
 174.26 288 175.26 289 185.26 297 c 0
 194.25 304.192 200.007 308.151 206.164 308.151 c 0
 206.856 308.151 207.553 308.101 208.26 308 c 2
 209.26 308 l 1
 215.26 307 218.26 302 217.26 296 c 0
 216.26 293 216.26 292 212.26 286 c 0
 205.26 277 202.26 272 191.26 256 c 1
 173.26 235 175.26 232 133.26 183 c 0
 91.2598 134 91.2598 133 68.2598 105 c 1
 51.2598 86 40.2598 72 27.2598 62 c 0xb8
 20.2598 57 17.2598 55 14.2598 56 c 0
 11.2598 57 9.25977 60 10.2598 66 c 1
EndSplineSet
EndChar

StartChar: visu1suu1
Encoding: 58447 58447 90
Width: 445
VWidth: 345
Flags: W
HStem: 25 37<185.265 307.482> 100 62<221.402 259.263> 288.151 20G<203.086 206.51>
VStem: 201.26 61<102.327 159.381> 308 21<10.0938 27 61 86.8615>
LayerCount: 2
Fore
SplineSet
408 61 m 1
 410 66 408 74 410 79 c 0
 412 84 414 88 417 90 c 0
 419 91 420 91 422 91 c 0
 425 91 429 90 434 87 c 1
 435 84 435 84 435 81 c 0
 435 76 433 70 432 65 c 0
 431 61 430 56 429 51 c 2
 429 50 l 2
 429 49 429 47 429 46 c 0
 429 45 429 44 429 43 c 0
 430 35 431 29 434 24 c 0
 435 21 435 20 435 17 c 0
 435 14 435 12 434 10 c 0
 432 8 429 7 425 5 c 0
 422 4 422 4 420 4 c 0
 417 4 416 6 413 9 c 0
 411 12 412 17 410 22 c 0
 409 25 408 25 408 27 c 1
 397 25 383 25 364 25 c 0
 337 25 311 25 284 26 c 1
 278 34 274 42 272 46 c 0
 272 47 271 47 271 48 c 0
 271 51 275 53 281 55 c 0
 295 59 322 61 356 62 c 0
 361 62 365 62 369 62 c 0
 384 62 397 62 408 61 c 1
201.26 128 m 0
 201.26 137 204.26 144 210.26 150 c 0
 217.26 157 223.26 161 233.26 162 c 0
 234.26 162 234.26 162 235.26 162 c 0
 244.26 162 253.26 155 260.26 143 c 0
 261.26 140 262.26 136 262.26 133 c 0
 262.26 127 259.26 120 253.26 112 c 0
 246.26 103 240.26 100 232.26 100 c 0
 229.26 100 224.26 101 221.26 102 c 0
 208.26 109 201.26 115 201.26 128 c 0
10.2598 66 m 1
 10.2598 67 l 1
 12.2598 78 26.2598 98 49.2598 126 c 0
 83.2598 169 78.2598 161 99.2598 189 c 0
 114.26 209 131.26 229 139.26 241 c 0
 147.26 253 156.26 264 165.26 276 c 0
 174.26 288 175.26 289 185.26 297 c 0
 194.25 304.192 200.007 308.151 206.164 308.151 c 0
 206.856 308.151 207.553 308.101 208.26 308 c 2
 209.26 308 l 1
 215.26 307 218.26 302 217.26 296 c 0
 216.26 293 216.26 292 212.26 286 c 0
 205.26 277 202.26 272 191.26 256 c 1
 173.26 235 175.26 232 133.26 183 c 0
 91.2598 134 91.2598 133 68.2598 105 c 1
 51.2598 86 40.2598 72 27.2598 62 c 0
 20.2598 57 17.2598 55 14.2598 56 c 0
 11.2598 57 9.25977 60 10.2598 66 c 1
EndSplineSet
EndChar

StartChar: visu1suu1su2
Encoding: 58448 58448 91
Width: 532
VWidth: 345
Flags: W
HStem: 0 62<481.142 519.003> 100 62<391.142 429.003> 225 37<285.265 407.482> 271 20G<421 423.5> 300 62<211.142 249.003>
VStem: 191 61<302.327 359.381> 371 61<102.327 159.381> 408 21<210.094 227 261 286.862> 461 61<2.32742 59.3807>
LayerCount: 2
Fore
SplineSet
191 328 m 0xfc80
 191 337 194 344 200 350 c 0
 207 357 213 361 223 362 c 0
 224 362 224 362 225 362 c 0
 234 362 243 355 250 343 c 0
 251 340 252 336 252 333 c 0
 252 327 249 320 243 312 c 0
 236 303 230 300 222 300 c 0
 219 300 214 301 211 302 c 0
 198 309 191 315 191 328 c 0xfc80
10.2598 266 m 1
 10.2598 267 l 1
 12.2598 278 26.2598 298 49.2598 326 c 0
 83.2598 369 78.2598 361 99.2598 389 c 0
 114.26 409 131.26 429 139.26 441 c 0
 147.26 453 156.26 464 165.26 476 c 0
 174.26 488 175.26 489 185.26 497 c 0
 194.25 504.192 200.007 508.151 206.164 508.151 c 0
 206.856 508.151 207.553 508.101 208.26 508 c 2
 209.26 508 l 1
 215.26 507 218.26 502 217.26 496 c 0
 216.26 493 216.26 492 212.26 486 c 0
 205.26 477 202.26 472 191.26 456 c 1
 173.26 435 175.26 432 133.26 383 c 0
 91.2598 334 91.2598 333 68.2598 305 c 1
 51.2598 286 40.2598 272 27.2598 262 c 0
 20.2598 257 17.2598 255 14.2598 256 c 0
 11.2598 257 9.25977 260 10.2598 266 c 1
408 261 m 5xfd80
 410 266 408 274 410 279 c 4
 412 284 414 288 417 290 c 4
 419 291 420 291 422 291 c 4
 425 291 429 290 434 287 c 5
 435 284 435 284 435 281 c 4
 435 276 433 270 432 265 c 4xfe80
 431 261 430 256 429 251 c 6
 429 250 l 6
 429 249 429 247 429 246 c 4
 429 245 429 244 429 243 c 4
 430 235 431 229 434 224 c 4
 435 221 435 220 435 217 c 4
 435 214 435 212 434 210 c 4
 432 208 429 207 425 205 c 4
 422 204 422 204 420 204 c 4
 417 204 416 206 413 209 c 4
 411 212 412 217 410 222 c 4
 409 225 408 225 408 227 c 5
 397 225 383 225 364 225 c 4
 337 225 311 225 284 226 c 5
 278 234 274 242 272 246 c 4
 272 247 271 247 271 248 c 4
 271 251 275 253 281 255 c 4
 295 259 322 261 356 262 c 4
 361 262 365 262 369 262 c 4
 384 262 397 262 408 261 c 5xfd80
461 28 m 0
 461 37 464 44 470 50 c 0
 477 57 483 61 493 62 c 0
 494 62 494 62 495 62 c 0
 504 62 513 55 520 43 c 0
 521 40 522 36 522 33 c 0
 522 27 519 20 513 12 c 0
 506 3 500 0 492 0 c 0
 489 0 484 1 481 2 c 0
 468 9 461 15 461 28 c 0
371 128 m 0
 371 137 374 144 380 150 c 0
 387 157 393 161 403 162 c 0
 404 162 404 162 405 162 c 0
 414 162 423 155 430 143 c 0
 431 140 432 136 432 133 c 0
 432 127 429 120 423 112 c 0
 416 103 410 100 402 100 c 0
 399 100 394 101 391 102 c 0
 378 109 371 115 371 128 c 0
EndSplineSet
EndChar

StartChar: visu1sut1suy1
Encoding: 58449 58449 92
Width: 542
VWidth: 345
Flags: W
HStem: 1 21G<476.5 479> 204 37<286.525 420.739> 205 29<276.263 355.671 371.566 428.774> 279 62<222.402 260.262>
VStem: 202.26 61<281.327 338.381>
LayerCount: 2
Fore
SplineSet
496 56 m 5x98
 501 58 505 65 510 67 c 4
 515 69 519 71 523 70 c 4
 525 69 526 68 527 67 c 4
 529 65 531 62 532 56 c 5
 531 53 531 53 529 51 c 4
 525 47 519 44 515 41 c 4
 511 39 507 37 503 34 c 6
 503 33 l 6
 502 32 501 31 500 30 c 4
 499 29 499 29 498 28 c 4
 493 22 489 17 488 11 c 4
 487 8 486 7 484 5 c 4
 482 3 480 2 478 1 c 4
 475 1 472 3 468 4 c 4
 465 5 465 6 464 7 c 4
 462 9 462 11 462 15 c 4
 463 19 468 22 470 27 c 4
 471 30 471 30 472 31 c 5
 463 37 452 48 439 61 c 4
 420 80 401 98 383 118 c 5
 384 128 388 137 389 141 c 4
 390 142 389 142 390 143 c 4
 392 145 396 144 402 141 c 4
 415 134 435 116 460 93 c 4
 464 89 466 87 469 84 c 4
 480 73 489 64 496 56 c 5x98
272.26 227 m 4
 272.26 230 276.26 232 282.26 234 c 4xb8
 296.26 238 323.26 240 357.26 241 c 4
 362.26 241 366.26 241 370.26 241 c 4
 398.26 241 418.26 239 430.26 237 c 5
 430.26 235 430.26 232 430.26 230 c 4
 430.26 220 427.26 213 421.26 210 c 4
 410.26 205 392.26 204 365.26 204 c 4xd8
 338.26 204 312.26 204 285.26 205 c 5xb8
 279.26 213 275.26 221 273.26 225 c 4
 273.26 226 272.26 226 272.26 227 c 4
202.26 307 m 4
 202.26 316 205.26 323 211.26 329 c 4
 218.26 336 224.26 340 234.26 341 c 4
 235.26 341 235.26 341 236.26 341 c 4
 245.26 341 254.26 334 261.26 322 c 4
 262.26 319 263.26 315 263.26 312 c 4
 263.26 306 260.26 299 254.26 291 c 4
 247.26 282 241.26 279 233.26 279 c 4
 230.26 279 225.26 280 222.26 281 c 4
 209.26 288 202.26 294 202.26 307 c 4
10.2598 238 m 5
 10.2598 239 l 5
 12.2598 250 26.2598 270 49.2598 298 c 4
 83.2598 341 78.2598 333 99.2598 361 c 4
 114.26 381 131.26 401 139.26 413 c 4
 147.26 425 156.26 436 165.26 448 c 4
 174.26 460 175.26 461 185.26 469 c 4
 194.25 476.192 200.007 480.151 206.164 480.151 c 4
 206.856 480.151 207.553 480.101 208.26 480 c 6
 209.26 480 l 5
 215.26 479 218.26 474 217.26 468 c 4
 216.26 465 216.26 464 212.26 458 c 4
 205.26 449 202.26 444 191.26 428 c 5
 173.26 407 175.26 404 133.26 355 c 4
 91.2598 306 91.2598 305 68.2598 277 c 5
 51.2598 258 40.2598 244 27.2598 234 c 4
 20.2598 229 17.2598 227 14.2598 228 c 4
 11.2598 229 9.25977 232 10.2598 238 c 5
EndSplineSet
EndChar

StartChar: visu1sut1su2
Encoding: 58450 58450 93
Width: 519
VWidth: 342
Flags: W
HStem: 0 62<472.402 510.262> 100 62<382.402 420.262> 225 37<266.525 400.739> 226 29<256.263 335.671 351.566 408.774> 300 62<202.402 240.262>
VStem: 182.26 61<302.327 359.381> 362.26 61<102.327 159.381> 452.26 61<2.32742 59.3807>
LayerCount: 2
Fore
SplineSet
452.26 28 m 4xcf
 452.26 37 455.26 44 461.26 50 c 4
 468.26 57 474.26 61 484.26 62 c 4
 485.26 62 485.26 62 486.26 62 c 4
 495.26 62 504.26 55 511.26 43 c 4
 512.26 40 513.26 36 513.26 33 c 4
 513.26 27 510.26 20 504.26 12 c 4
 497.26 3 491.26 0 483.26 0 c 4
 480.26 0 475.26 1 472.26 2 c 4
 459.26 9 452.26 15 452.26 28 c 4xcf
362.26 128 m 4
 362.26 137 365.26 144 371.26 150 c 4
 378.26 157 384.26 161 394.26 162 c 4
 395.26 162 395.26 162 396.26 162 c 4
 405.26 162 414.26 155 421.26 143 c 4
 422.26 140 423.26 136 423.26 133 c 4
 423.26 127 420.26 120 414.26 112 c 4
 407.26 103 401.26 100 393.26 100 c 4
 390.26 100 385.26 101 382.26 102 c 4
 369.26 109 362.26 115 362.26 128 c 4
252.26 248 m 4
 252.26 251 256.26 253 262.26 255 c 4xdf
 276.26 259 303.26 261 337.26 262 c 4
 342.26 262 346.26 262 350.26 262 c 4
 378.26 262 398.26 260 410.26 258 c 5
 410.26 256 410.26 253 410.26 251 c 4
 410.26 241 407.26 234 401.26 231 c 4
 390.26 226 372.26 225 345.26 225 c 4xef
 318.26 225 292.26 225 265.26 226 c 5xdf
 259.26 234 255.26 242 253.26 246 c 4
 253.26 247 252.26 247 252.26 248 c 4
182.26 328 m 4
 182.26 337 185.26 344 191.26 350 c 4
 198.26 357 204.26 361 214.26 362 c 4
 215.26 362 215.26 362 216.26 362 c 4
 225.26 362 234.26 355 241.26 343 c 4
 242.26 340 243.26 336 243.26 333 c 4
 243.26 327 240.26 320 234.26 312 c 4
 227.26 303 221.26 300 213.26 300 c 4
 210.26 300 205.26 301 202.26 302 c 4
 189.26 309 182.26 315 182.26 328 c 4
10.2598 266 m 5
 10.2598 267 l 5
 12.2598 278 26.2598 298 49.2598 326 c 4
 83.2598 369 78.2598 361 99.2598 389 c 4
 114.26 409 131.26 429 139.26 441 c 4
 147.26 453 156.26 464 165.26 476 c 4
 174.26 488 175.26 489 185.26 497 c 4
 194.25 504.192 200.007 508.151 206.164 508.151 c 4
 206.856 508.151 207.553 508.101 208.26 508 c 6
 209.26 508 l 5
 215.26 507 218.26 502 217.26 496 c 4
 216.26 493 216.26 492 212.26 486 c 4
 205.26 477 202.26 472 191.26 456 c 5
 173.26 435 175.26 432 133.26 383 c 4
 91.2598 334 91.2598 333 68.2598 305 c 5
 51.2598 286 40.2598 272 27.2598 262 c 4xef
 21.4268 257.833 18.3711 255.75 15.7783 255.75 c 4
 15.2598 255.75 14.7598 255.833 14.2598 256 c 4
 11.2598 257 9.25977 260 10.2598 266 c 5
EndSplineSet
EndChar

StartChar: visu1sut1su1sut1
Encoding: 58451 58451 94
Width: 600
VWidth: 342
Flags: W
HStem: 25 37<446.525 580.739> 26 29<436.263 515.671 531.566 588.774> 100 62<382.402 420.262> 225 37<266.525 400.739> 226 29<256.263 335.671 351.566 408.774> 300 62<202.402 240.262>
VStem: 182.26 61<302.327 359.381> 362.26 61<102.327 159.381>
LayerCount: 2
Fore
SplineSet
432.26 48 m 0x67
 432.26 51 436.26 53 442.26 55 c 0x67
 456.26 59 483.26 61 517.26 62 c 0
 522.26 62 526.26 62 530.26 62 c 0
 558.26 62 578.26 60 590.26 58 c 1
 590.26 56 590.26 53 590.26 51 c 0
 590.26 41 587.26 34 581.26 31 c 0
 570.26 26 552.26 25 525.26 25 c 0xa7
 498.26 25 472.26 25 445.26 26 c 1
 439.26 34 435.26 42 433.26 46 c 0
 433.26 47 432.26 47 432.26 48 c 0x67
362.26 128 m 0
 362.26 137 365.26 144 371.26 150 c 0
 378.26 157 384.26 161 394.26 162 c 0
 395.26 162 395.26 162 396.26 162 c 0
 405.26 162 414.26 155 421.26 143 c 0
 422.26 140 423.26 136 423.26 133 c 0
 423.26 127 420.26 120 414.26 112 c 0
 407.26 103 401.26 100 393.26 100 c 0
 390.26 100 385.26 101 382.26 102 c 0
 369.26 109 362.26 115 362.26 128 c 0
252.26 248 m 0
 252.26 251 256.26 253 262.26 255 c 0x2f
 276.26 259 303.26 261 337.26 262 c 0
 342.26 262 346.26 262 350.26 262 c 0
 378.26 262 398.26 260 410.26 258 c 1
 410.26 256 410.26 253 410.26 251 c 0
 410.26 241 407.26 234 401.26 231 c 0
 390.26 226 372.26 225 345.26 225 c 0x37
 318.26 225 292.26 225 265.26 226 c 1x2f
 259.26 234 255.26 242 253.26 246 c 0
 253.26 247 252.26 247 252.26 248 c 0
182.26 328 m 0
 182.26 337 185.26 344 191.26 350 c 0
 198.26 357 204.26 361 214.26 362 c 0
 215.26 362 215.26 362 216.26 362 c 0
 225.26 362 234.26 355 241.26 343 c 0
 242.26 340 243.26 336 243.26 333 c 0
 243.26 327 240.26 320 234.26 312 c 0
 227.26 303 221.26 300 213.26 300 c 0
 210.26 300 205.26 301 202.26 302 c 0
 189.26 309 182.26 315 182.26 328 c 0
10.2598 266 m 1
 10.2598 267 l 1
 12.2598 278 26.2598 298 49.2598 326 c 0
 83.2598 369 78.2598 361 99.2598 389 c 0
 114.26 409 131.26 429 139.26 441 c 0
 147.26 453 156.26 464 165.26 476 c 0
 174.26 488 175.26 489 185.26 497 c 0
 194.25 504.192 200.007 508.151 206.164 508.151 c 0
 206.856 508.151 207.553 508.101 208.26 508 c 2
 209.26 508 l 1
 215.26 507 218.26 502 217.26 496 c 0
 216.26 493 216.26 492 212.26 486 c 0
 205.26 477 202.26 472 191.26 456 c 1
 173.26 435 175.26 432 133.26 383 c 0
 91.2598 334 91.2598 333 68.2598 305 c 1
 51.2598 286 40.2598 272 27.2598 262 c 0x37
 21.4268 257.833 18.3711 255.75 15.7783 255.75 c 0
 15.2598 255.75 14.7598 255.833 14.2598 256 c 0
 11.2598 257 9.25977 260 10.2598 266 c 1
EndSplineSet
EndChar

StartChar: visuu1su2
Encoding: 58452 58452 95
Width: 442
VWidth: 345
Flags: W
HStem: 0 62<391.402 429.263> 100 62<301.402 339.263> 225.001 37<195.52 317.737> 226.001 29<185.258 264.666> 388.151 20G<203.086 206.51>
VStem: 281.26 61<102.327 159.381> 320.256 24<216.806 226.846 261.002 280.432 280.805 289.572> 371.26 61<2.32742 59.3807>
LayerCount: 2
Fore
SplineSet
318.255 261.002 m 5xeb
 320.255 266.002 318.256 273.667 320.256 278.667 c 4
 322.256 283.667 324.256 287.667 327.256 289.667 c 4
 329.256 290.667 330.256 290.667 332.256 290.667 c 4
 335.256 290.667 339.256 289.667 344.256 286.667 c 5
 345.256 283.667 345.256 283.667 345.256 280.667 c 4
 345.256 275.667 343.256 269.667 342.256 264.667 c 4
 341.02 260.341 339.784 256.015 339.256 251.452 c 6
 339.256 249.667 l 6
 339.256 248.19 339.175 246.823 339.018 245.554 c 4
 339.057 244.604 339.134 243.644 339.256 242.667 c 4
 340.256 234.667 341.256 228.667 344.256 223.667 c 4
 345.256 220.667 345.256 219.667 345.256 216.667 c 4
 345.256 213.667 345.256 211.667 344.256 209.667 c 4
 342.256 207.667 339.256 206.667 335.256 204.667 c 4
 332.256 203.667 332.256 203.667 330.256 203.667 c 4
 327.256 203.667 326.256 205.667 323.256 208.667 c 4
 321.256 211.667 322.256 216.667 320.256 221.667 c 4
 319.246 224.697 318.631 224.864 318.255 227.003 c 5
 307.255 225.001 293.255 225.001 274.255 225.001 c 4
 247.255 225.001 221.255 225.001 194.255 226.001 c 5xdb
 188.255 234.001 184.255 242.001 182.255 246.001 c 4
 182.255 247.001 181.255 247.001 181.255 248.001 c 4
 181.255 251.001 185.255 253.001 191.255 255.001 c 4
 205.255 259.001 232.255 261.001 266.255 262.001 c 4xeb
 271.255 262.001 275.255 262.001 279.255 262.001 c 4
 294.255 262.001 307.255 262.001 318.255 261.002 c 5xeb
371.26 28 m 0
 371.26 37 374.26 44 380.26 50 c 0
 387.26 57 393.26 61 403.26 62 c 0
 404.26 62 404.26 62 405.26 62 c 0
 414.26 62 423.26 55 430.26 43 c 0
 431.26 40 432.26 36 432.26 33 c 0
 432.26 27 429.26 20 423.26 12 c 0
 416.26 3 410.26 0 402.26 0 c 0
 399.26 0 394.26 1 391.26 2 c 0
 378.26 9 371.26 15 371.26 28 c 0
281.26 128 m 0xcd
 281.26 137 284.26 144 290.26 150 c 0
 297.26 157 303.26 161 313.26 162 c 0
 314.26 162 314.26 162 315.26 162 c 0
 324.26 162 333.26 155 340.26 143 c 0
 341.26 140 342.26 136 342.26 133 c 0
 342.26 127 339.26 120 333.26 112 c 0
 326.26 103 320.26 100 312.26 100 c 0
 309.26 100 304.26 101 301.26 102 c 0
 288.26 109 281.26 115 281.26 128 c 0xcd
10.2598 166 m 1
 10.2598 167 l 1
 12.2598 178 26.2598 198 49.2598 226 c 0
 83.2598 269 78.2598 261 99.2598 289 c 0
 114.26 309 131.26 329 139.26 341 c 0
 147.26 353 156.26 364 165.26 376 c 0
 174.26 388 175.26 389 185.26 397 c 0
 194.25 404.192 200.007 408.151 206.164 408.151 c 0
 206.856 408.151 207.553 408.101 208.26 408 c 2
 209.26 408 l 1
 215.26 407 218.26 402 217.26 396 c 0
 216.26 393 216.26 392 212.26 386 c 0
 205.26 377 202.26 372 191.26 356 c 1
 173.26 335 175.26 332 133.26 283 c 0
 91.2598 234 91.2598 233 68.2598 205 c 1
 51.2598 186 40.2598 172 27.2598 162 c 0
 21.4268 157.833 18.3711 155.75 15.7783 155.75 c 0
 15.2598 155.75 14.7598 155.833 14.2598 156 c 0
 11.2598 157 9.25977 160 10.2598 166 c 1
EndSplineSet
EndChar

StartChar: visuu2su2
Encoding: 58453 58453 96
Width: 532
VWidth: 345
Flags: W
HStem: 0 62<481.142 519.003> 100 62<391.142 429.003> 225 37<285.265 407.482> 304 21G<328.5 331> 325 37<195.265 317.482> 326 29<185.003 264.411> 371 20G<331 333.5 421 423.5>
VStem: 318 21<310.094 327 361 386.862> 371 61<102.327 159.381> 408 21<210.094 227 261 286.862> 461 61<2.32742 59.3807>
LayerCount: 2
Fore
SplineSet
10.2598 266 m 1xe720
 10.2598 267 l 1
 12.2598 278 26.2598 298 49.2598 326 c 0
 83.2598 369 78.2598 361 99.2598 389 c 0
 114.26 409 131.26 429 139.26 441 c 0
 147.26 453 156.26 464 165.26 476 c 0
 174.26 488 175.26 489 185.26 497 c 0
 194.25 504.192 200.007 508.151 206.164 508.151 c 0
 206.856 508.151 207.553 508.101 208.26 508 c 2
 209.26 508 l 1
 215.26 507 218.26 502 217.26 496 c 0
 216.26 493 216.26 492 212.26 486 c 0
 205.26 477 202.26 472 191.26 456 c 1
 173.26 435 175.26 432 133.26 383 c 0
 91.2598 334 91.2598 333 68.2598 305 c 1
 51.2598 286 40.2598 272 27.2598 262 c 0
 20.2598 257 17.2598 255 14.2598 256 c 0
 11.2598 257 9.25977 260 10.2598 266 c 1xe720
318 361 m 1
 320 366 318 374 320 379 c 0
 322 384 324 388 327 390 c 0
 329 391 330 391 332 391 c 0
 335 391 339 390 344 387 c 1
 345 384 345 384 345 381 c 0
 345 376 343 370 342 365 c 0
 341 361 340 356 339 351 c 2
 339 350 l 2
 339 349 339 347 339 346 c 0
 339 345 339 344 339 343 c 0
 340 335 341 329 344 324 c 0
 345 321 345 320 345 317 c 0
 345 314 345 312 344 310 c 0
 342 308 339 307 335 305 c 0
 332 304 332 304 330 304 c 0xf320
 327 304 326 306 323 309 c 0
 321 312 322 317 320 322 c 0
 319 325 318 325 318 327 c 1
 307 325 293 325 274 325 c 0xeb20
 247 325 221 325 194 326 c 1
 188 334 184 342 182 346 c 0
 182 347 181 347 181 348 c 0
 181 351 185 353 191 355 c 0xe720
 205 359 232 361 266 362 c 0
 271 362 275 362 279 362 c 0xeb20
 294 362 307 362 318 361 c 1
408 261 m 1xe360
 410 266 408 274 410 279 c 0
 412 284 414 288 417 290 c 0
 419 291 420 291 422 291 c 0
 425 291 429 290 434 287 c 1
 435 284 435 284 435 281 c 0
 435 276 433 270 432 265 c 0xe3a0
 431 261 430 256 429 251 c 2
 429 250 l 2
 429 249 429 247 429 246 c 0
 429 245 429 244 429 243 c 0
 430 235 431 229 434 224 c 0
 435 221 435 220 435 217 c 0
 435 214 435 212 434 210 c 0
 432 208 429 207 425 205 c 0
 422 204 422 204 420 204 c 0
 417 204 416 206 413 209 c 0
 411 212 412 217 410 222 c 0
 409 225 408 225 408 227 c 1
 397 225 383 225 364 225 c 0
 337 225 311 225 284 226 c 1
 278 234 274 242 272 246 c 0
 272 247 271 247 271 248 c 0
 271 251 275 253 281 255 c 0
 295 259 322 261 356 262 c 0
 361 262 365 262 369 262 c 0
 384 262 397 262 408 261 c 1xe360
461 28 m 0
 461 37 464 44 470 50 c 0
 477 57 483 61 493 62 c 0
 494 62 494 62 495 62 c 0
 504 62 513 55 520 43 c 0
 521 40 522 36 522 33 c 0
 522 27 519 20 513 12 c 0
 506 3 500 0 492 0 c 0
 489 0 484 1 481 2 c 0
 468 9 461 15 461 28 c 0
371 128 m 0
 371 137 374 144 380 150 c 0
 387 157 393 161 403 162 c 0
 404 162 404 162 405 162 c 0
 414 162 423 155 430 143 c 0
 431 140 432 136 432 133 c 0
 432 127 429 120 423 112 c 0
 416 103 410 100 402 100 c 0
 399 100 394 101 391 102 c 0
 378 109 371 115 371 128 c 0
EndSplineSet
EndChar

StartChar: visut1sux1
Encoding: 58454 58454 97
Width: 388
VWidth: 345
Flags: W
HStem: 27 42.2451<310.549 342.163> 126 37<194.525 328.739> 127 29<184.263 263.671 279.567 336.775> 288.151 20G<203.086 206.51>
VStem: 344.26 34.155<-14.8362 37>
LayerCount: 2
Fore
SplineSet
285.26 -59 m 0x98
 285.26 -57 288.26 -54 291.26 -52 c 0
 297.26 -47 308.26 -37 325.26 -24 c 0
 336.26 -16 343.26 -7 344.26 1 c 0
 345.26 5 343.26 10 342.26 14 c 0
 340.26 19 333.26 23 323.26 27 c 0
 313.26 31 308.26 34 308.26 38 c 0
 308.26 47 313.26 55 320.26 62 c 0
 325.286 67.0264 331.716 69.2451 338.374 69.2451 c 0
 339.664 69.2451 340.962 69.1621 342.26 69 c 0
 344.26 69 345.26 67 347.26 67 c 0
 363.26 60 374.26 49 377.26 37 c 0
 378.105 34.4639 378.415 31.9277 378.415 29.3164 c 0
 378.415 25.75 377.837 22.041 377.26 18 c 0
 376.26 12 374.26 7 371.26 0 c 0
 365.26 -13 353.26 -25 338.26 -37 c 0
 323.26 -49 308.26 -56 292.26 -63 c 0
 291.26 -64 291.26 -64 290.26 -64 c 2
 286.26 -61 l 2
 285.26 -60 285.26 -60 285.26 -59 c 0x98
180.26 149 m 0
 180.26 152 184.26 154 190.26 156 c 0xb8
 204.26 160 231.26 162 265.26 163 c 0
 270.26 163 274.26 163 278.26 163 c 0
 306.26 163 326.26 161 338.26 159 c 1
 338.26 157 338.26 154 338.26 152 c 0
 338.26 142 335.26 135 329.26 132 c 0
 318.26 127 300.26 126 273.26 126 c 0xd8
 246.26 126 220.26 126 193.26 127 c 1xb8
 187.26 135 183.26 143 181.26 147 c 0
 181.26 148 180.26 148 180.26 149 c 0
10.2598 66 m 1
 10.2598 67 l 1
 12.2598 78 26.2598 98 49.2598 126 c 0xd8
 83.2598 169 78.2598 161 99.2598 189 c 0
 114.26 209 131.26 229 139.26 241 c 0
 147.26 253 156.26 264 165.26 276 c 0
 174.26 288 175.26 289 185.26 297 c 0
 194.25 304.192 200.007 308.151 206.164 308.151 c 0
 206.856 308.151 207.553 308.101 208.26 308 c 2
 209.26 308 l 1
 215.26 307 218.26 302 217.26 296 c 0
 216.26 293 216.26 292 212.26 286 c 0
 205.26 277 202.26 272 191.26 256 c 1
 173.26 235 175.26 232 133.26 183 c 0
 91.2598 134 91.2598 133 68.2598 105 c 1
 51.2598 86 40.2598 72 27.2598 62 c 0
 20.2598 57 17.2598 55 14.2598 56 c 0
 11.2598 57 9.25977 60 10.2598 66 c 1
EndSplineSet
EndChar

StartChar: ciS1
Encoding: 58455 58455 98
Width: 438
VWidth: 345
Flags: W
HStem: 26 37<284.525 418.739> 27 29<274.263 353.671 369.567 426.775> 126 37<194.525 328.739> 127 29<184.263 263.671 279.567 336.775> 288.151 20G<203.086 206.51>
LayerCount: 2
Fore
SplineSet
270.26 49 m 0x48
 270.26 52 274.26 54 280.26 56 c 0x48
 294.26 60 321.26 62 355.26 63 c 0
 360.26 63 364.26 63 368.26 63 c 0
 396.26 63 416.26 61 428.26 59 c 1
 428.26 57 428.26 54 428.26 52 c 0
 428.26 42 425.26 35 419.26 32 c 0
 408.26 27 390.26 26 363.26 26 c 0x88
 336.26 26 310.26 26 283.26 27 c 1
 277.26 35 273.26 43 271.26 47 c 0
 271.26 48 270.26 48 270.26 49 c 0x48
180.26 149 m 0
 180.26 152 184.26 154 190.26 156 c 0x18
 204.26 160 231.26 162 265.26 163 c 0
 270.26 163 274.26 163 278.26 163 c 0
 306.26 163 326.26 161 338.26 159 c 1
 338.26 157 338.26 154 338.26 152 c 0
 338.26 142 335.26 135 329.26 132 c 0
 318.26 127 300.26 126 273.26 126 c 0x28
 246.26 126 220.26 126 193.26 127 c 1x18
 187.26 135 183.26 143 181.26 147 c 0
 181.26 148 180.26 148 180.26 149 c 0
10.2598 66 m 1
 10.2598 67 l 1
 12.2598 78 26.2598 98 49.2598 126 c 0
 83.2598 169 78.2598 161 99.2598 189 c 0
 114.26 209 131.26 229 139.26 241 c 0
 147.26 253 156.26 264 165.26 276 c 0
 174.26 288 175.26 289 185.26 297 c 0
 194.25 304.192 200.007 308.151 206.164 308.151 c 0
 206.856 308.151 207.553 308.101 208.26 308 c 2
 209.26 308 l 1
 215.26 307 218.26 302 217.26 296 c 0
 216.26 293 216.26 292 212.26 286 c 0
 205.26 277 202.26 272 191.26 256 c 1
 173.26 235 175.26 232 133.26 183 c 0
 91.2598 134 91.2598 133 68.2598 105 c 1
 51.2598 86 40.2598 72 27.2598 62 c 0
 20.2598 57 17.2598 55 14.2598 56 c 0x68
 11.2598 57 9.25977 60 10.2598 66 c 1
EndSplineSet
EndChar

StartChar: visut2suy1
Encoding: 58456 58456 99
Width: 542
VWidth: 345
Flags: W
HStem: 1 21G<476.5 479> 204 37<286.525 420.739> 205 29<276.263 355.671 371.566 428.774> 304 37<196.525 330.739> 305 29<186.263 265.671 281.566 338.774>
LayerCount: 2
Fore
SplineSet
182.26 327 m 0x88
 182.26 330 186.26 332 192.26 334 c 0x88
 206.26 338 233.26 340 267.26 341 c 0
 272.26 341 276.26 341 280.26 341 c 0
 308.26 341 328.26 339 340.26 337 c 1
 340.26 335 340.26 332 340.26 330 c 0
 340.26 320 337.26 313 331.26 310 c 0
 320.26 305 302.26 304 275.26 304 c 0x90
 248.26 304 222.26 304 195.26 305 c 1
 189.26 313 185.26 321 183.26 325 c 0
 183.26 326 182.26 326 182.26 327 c 0x88
496 56 m 5
 501 58 505 65 510 67 c 4
 515 69 519 71 523 70 c 4
 525 69 526 68 527 67 c 4
 529 65 531 62 532 56 c 5
 531 53 531 53 529 51 c 4
 525 47 519 44 515 41 c 4
 511 39 507 37 503 34 c 6
 503 33 l 6
 502 32 501 31 500 30 c 4
 499 29 499 29 498 28 c 4
 493 22 489 17 488 11 c 4
 487 8 486 7 484 5 c 4
 482 3 480 2 478 1 c 4
 475 1 472 3 468 4 c 4
 465 5 465 6 464 7 c 4
 462 9 462 11 462 15 c 4
 463 19 468 22 470 27 c 4
 471 30 471 30 472 31 c 5
 463 37 452 48 439 61 c 4
 420 80 401 98 383 118 c 5
 384 128 388 137 389 141 c 4
 390 142 389 142 390 143 c 4
 392 145 396 144 402 141 c 4
 415 134 435 116 460 93 c 4
 464 89 466 87 469 84 c 4
 480 73 489 64 496 56 c 5
272.26 227 m 4
 272.26 230 276.26 232 282.26 234 c 4xa0
 296.26 238 323.26 240 357.26 241 c 4
 362.26 241 366.26 241 370.26 241 c 4
 398.26 241 418.26 239 430.26 237 c 5
 430.26 235 430.26 232 430.26 230 c 4
 430.26 220 427.26 213 421.26 210 c 4
 410.26 205 392.26 204 365.26 204 c 4xc0
 338.26 204 312.26 204 285.26 205 c 5xa0
 279.26 213 275.26 221 273.26 225 c 4
 273.26 226 272.26 226 272.26 227 c 4
10.2598 238 m 1
 10.2598 239 l 1
 12.2598 250 26.2598 270 49.2598 298 c 0
 83.2598 341 78.2598 333 99.2598 361 c 0
 114.26 381 131.26 401 139.26 413 c 0
 147.26 425 156.26 436 165.26 448 c 0
 174.26 460 175.26 461 185.26 469 c 0
 194.25 476.192 200.007 480.151 206.164 480.151 c 0
 206.856 480.151 207.553 480.101 208.26 480 c 2
 209.26 480 l 1
 215.26 479 218.26 474 217.26 468 c 0
 216.26 465 216.26 464 212.26 458 c 0
 205.26 449 202.26 444 191.26 428 c 1
 173.26 407 175.26 404 133.26 355 c 0
 91.2598 306 91.2598 305 68.2598 277 c 1
 51.2598 258 40.2598 244 27.2598 234 c 0
 20.2598 229 17.2598 227 14.2598 228 c 0
 11.2598 229 9.25977 232 10.2598 238 c 1
EndSplineSet
EndChar

StartChar: visut2su2
Encoding: 58457 58457 100
Width: 532
VWidth: 345
Flags: W
HStem: 0 62<481.142 519.003> 100 62<391.142 429.003> 226 37<284.525 418.739> 227 29<274.263 353.671 369.566 426.774> 326 37<194.525 328.739> 327 29<184.263 263.671 279.566 336.774>
VStem: 371 61<102.327 159.381> 461 61<2.32742 59.3807>
LayerCount: 2
Fore
SplineSet
270.26 249 m 4xd3
 270.26 252 274.26 254 280.26 256 c 4xd3
 294.26 260 321.26 262 355.26 263 c 4
 360.26 263 364.26 263 368.26 263 c 4
 396.26 263 416.26 261 428.26 259 c 5
 428.26 257 428.26 254 428.26 252 c 4
 428.26 242 425.26 235 419.26 232 c 4
 408.26 227 390.26 226 363.26 226 c 4xe3
 336.26 226 310.26 226 283.26 227 c 5
 277.26 235 273.26 243 271.26 247 c 4
 271.26 248 270.26 248 270.26 249 c 4xd3
180.26 349 m 4
 180.26 352 184.26 354 190.26 356 c 4xc7
 204.26 360 231.26 362 265.26 363 c 4
 270.26 363 274.26 363 278.26 363 c 4
 306.26 363 326.26 361 338.26 359 c 5
 338.26 357 338.26 354 338.26 352 c 4
 338.26 342 335.26 335 329.26 332 c 4
 318.26 327 300.26 326 273.26 326 c 4xcb
 246.26 326 220.26 326 193.26 327 c 5xc7
 187.26 335 183.26 343 181.26 347 c 4
 181.26 348 180.26 348 180.26 349 c 4
10.2598 266 m 1
 10.2598 267 l 1
 12.2598 278 26.2598 298 49.2598 326 c 0
 83.2598 369 78.2598 361 99.2598 389 c 0
 114.26 409 131.26 429 139.26 441 c 0
 147.26 453 156.26 464 165.26 476 c 0
 174.26 488 175.26 489 185.26 497 c 0
 194.25 504.192 200.007 508.151 206.164 508.151 c 0
 206.856 508.151 207.553 508.101 208.26 508 c 2
 209.26 508 l 1
 215.26 507 218.26 502 217.26 496 c 0
 216.26 493 216.26 492 212.26 486 c 0
 205.26 477 202.26 472 191.26 456 c 1
 173.26 435 175.26 432 133.26 383 c 0
 91.2598 334 91.2598 333 68.2598 305 c 1
 51.2598 286 40.2598 272 27.2598 262 c 0
 20.2598 257 17.2598 255 14.2598 256 c 0xdb
 11.2598 257 9.25977 260 10.2598 266 c 1
461 28 m 0
 461 37 464 44 470 50 c 0
 477 57 483 61 493 62 c 0
 494 62 494 62 495 62 c 0
 504 62 513 55 520 43 c 0
 521 40 522 36 522 33 c 0
 522 27 519 20 513 12 c 0
 506 3 500 0 492 0 c 0
 489 0 484 1 481 2 c 0
 468 9 461 15 461 28 c 0
371 128 m 0
 371 137 374 144 380 150 c 0
 387 157 393 161 403 162 c 0
 404 162 404 162 405 162 c 0
 414 162 423 155 430 143 c 0
 431 140 432 136 432 133 c 0
 432 127 429 120 423 112 c 0
 416 103 410 100 402 100 c 0
 399 100 394 101 391 102 c 0
 378 109 371 115 371 128 c 0
EndSplineSet
EndChar

StartChar: visut3
Encoding: 58458 58458 101
Width: 528
VWidth: 345
Flags: W
HStem: 26 37<374.525 508.739> 27 29<364.263 443.671 459.567 516.775> 126 37<284.525 418.739> 127 29<274.263 353.671 369.567 426.775> 226 37<194.525 328.739> 227 29<184.263 263.671 279.567 336.775> 388.151 20G<203.086 206.51>
LayerCount: 2
Fore
SplineSet
360.26 49 m 0x42
 360.26 52 364.26 54 370.26 56 c 0x42
 384.26 60 411.26 62 445.26 63 c 0
 450.26 63 454.26 63 458.26 63 c 0
 486.26 63 506.26 61 518.26 59 c 1
 518.26 57 518.26 54 518.26 52 c 0
 518.26 42 515.26 35 509.26 32 c 0
 498.26 27 480.26 26 453.26 26 c 0x82
 426.26 26 400.26 26 373.26 27 c 1
 367.26 35 363.26 43 361.26 47 c 0
 361.26 48 360.26 48 360.26 49 c 0x42
270.26 149 m 0
 270.26 152 274.26 154 280.26 156 c 0x12
 294.26 160 321.26 162 355.26 163 c 0
 360.26 163 364.26 163 368.26 163 c 0
 396.26 163 416.26 161 428.26 159 c 1
 428.26 157 428.26 154 428.26 152 c 0
 428.26 142 425.26 135 419.26 132 c 0
 408.26 127 390.26 126 363.26 126 c 0x22
 336.26 126 310.26 126 283.26 127 c 1x12
 277.26 135 273.26 143 271.26 147 c 0
 271.26 148 270.26 148 270.26 149 c 0
180.26 249 m 0
 180.26 252 184.26 254 190.26 256 c 0x06
 204.26 260 231.26 262 265.26 263 c 0
 270.26 263 274.26 263 278.26 263 c 0
 306.26 263 326.26 261 338.26 259 c 1
 338.26 257 338.26 254 338.26 252 c 0
 338.26 242 335.26 235 329.26 232 c 0
 318.26 227 300.26 226 273.26 226 c 0x0a
 246.26 226 220.26 226 193.26 227 c 1x06
 187.26 235 183.26 243 181.26 247 c 0
 181.26 248 180.26 248 180.26 249 c 0
10.2598 166 m 1
 10.2598 167 l 1
 12.2598 178 26.2598 198 49.2598 226 c 0
 83.2598 269 78.2598 261 99.2598 289 c 0
 114.26 309 131.26 329 139.26 341 c 0
 147.26 353 156.26 364 165.26 376 c 0
 174.26 388 175.26 389 185.26 397 c 0
 194.25 404.192 200.007 408.151 206.164 408.151 c 0
 206.856 408.151 207.553 408.101 208.26 408 c 2
 209.26 408 l 1
 215.26 407 218.26 402 217.26 396 c 0
 216.26 393 216.26 392 212.26 386 c 0
 205.26 377 202.26 372 191.26 356 c 1
 173.26 335 175.26 332 133.26 283 c 0
 91.2598 234 91.2598 233 68.2598 205 c 1
 51.2598 186 40.2598 172 27.2598 162 c 0
 20.2598 157 17.2598 155 14.2598 156 c 0x1a
 11.2598 157 9.25977 160 10.2598 166 c 1
EndSplineSet
EndChar

StartChar: visut3suw1
Encoding: 58459 58459 102
Width: 598
VWidth: 345
Flags: W
HStem: 169 37<376.525 510.739> 170 29<366.263 445.671 461.566 518.774> 269 37<286.525 420.739> 270 29<276.263 355.671 371.566 428.774> 369 37<196.525 330.739> 370 29<186.263 265.671 281.566 338.774>
LayerCount: 2
Fore
SplineSet
362.26 192 m 0x40
 362.26 195 366.26 197 372.26 199 c 0x40
 386.26 203 413.26 205 447.26 206 c 0
 452.26 206 456.26 206 460.26 206 c 0
 488.26 206 508.26 204 520.26 202 c 1
 520.26 200 520.26 197 520.26 195 c 0
 520.26 185 517.26 178 511.26 175 c 0
 500.26 170 482.26 169 455.26 169 c 0x80
 428.26 169 402.26 169 375.26 170 c 1
 369.26 178 365.26 186 363.26 190 c 0
 363.26 191 362.26 191 362.26 192 c 0x40
182.26 392 m 0
 182.26 395 186.26 397 192.26 399 c 0x04
 206.26 403 233.26 405 267.26 406 c 0
 272.26 406 276.26 406 280.26 406 c 0
 308.26 406 328.26 404 340.26 402 c 1
 340.26 400 340.26 397 340.26 395 c 0
 340.26 385 337.26 378 331.26 375 c 0
 320.26 370 302.26 369 275.26 369 c 0x08
 248.26 369 222.26 369 195.26 370 c 1x04
 189.26 378 185.26 386 183.26 390 c 0
 183.26 391 182.26 391 182.26 392 c 0
272.26 292 m 0
 272.26 295 276.26 297 282.26 299 c 0x10
 296.26 303 323.26 305 357.26 306 c 0
 362.26 306 366.26 306 370.26 306 c 0
 398.26 306 418.26 304 430.26 302 c 1
 430.26 300 430.26 297 430.26 295 c 0
 430.26 285 427.26 278 421.26 275 c 0
 410.26 270 392.26 269 365.26 269 c 0x20
 338.26 269 312.26 269 285.26 270 c 1x10
 279.26 278 275.26 286 273.26 290 c 0
 273.26 291 272.26 291 272.26 292 c 0
476.26 82 m 1
 477.26 91 478.26 98 480.26 102 c 0
 481.26 104 484.26 104 486.26 104 c 0
 488.26 104 490.26 104 493.26 102 c 0
 505.26 96 523.26 80 545.26 58 c 0
 567.26 36 581.26 20 588.26 10 c 1
 582.26 2 575.26 -3 570.26 -3 c 0
 568.26 -3 568.26 -3 566.26 -2 c 0
 556.26 2 542.26 12 526.26 30 c 0
 510.26 48 492.26 64 476.26 82 c 1
10.2598 303 m 1
 10.2598 304 l 1
 12.2598 315 26.2598 335 49.2598 363 c 0
 83.2598 406 78.2598 398 99.2598 426 c 0
 114.26 446 131.26 466 139.26 478 c 0
 147.26 490 156.26 501 165.26 513 c 0
 174.26 525 175.26 526 185.26 534 c 0
 194.25 541.192 200.007 545.151 206.164 545.151 c 0
 206.856 545.151 207.553 545.101 208.26 545 c 2
 209.26 545 l 1
 215.26 544 218.26 539 217.26 533 c 0
 216.26 530 216.26 529 212.26 523 c 0
 205.26 514 202.26 509 191.26 493 c 1
 173.26 472 175.26 469 133.26 420 c 0
 91.2598 371 91.2598 370 68.2598 342 c 1
 51.2598 323 40.2598 309 27.2598 299 c 0
 20.2598 294 17.2598 292 14.2598 293 c 0
 11.2598 294 9.25977 297 10.2598 303 c 1
EndSplineSet
EndChar

StartChar: visut3suy1
Encoding: 58460 58460 103
Width: 632
VWidth: 345
Flags: W
HStem: 1 21G<566.5 569> 204 37<376.525 510.739> 205 29<366.263 445.671 461.566 518.774> 304 37<286.525 420.739> 305 29<276.263 355.671 371.566 428.774> 404 37<196.525 330.739> 405 29<186.263 265.671 281.566 338.774>
LayerCount: 2
Fore
SplineSet
586 56 m 5x80
 591 58 595 65 600 67 c 4
 605 69 609 71 613 70 c 4
 615 69 616 68 617 67 c 4
 619 65 621 62 622 56 c 5
 621 53 621 53 619 51 c 4
 615 47 609 44 605 41 c 4
 601 39 597 37 593 34 c 6
 593 33 l 6
 592 32 591 31 590 30 c 4
 589 29 589 29 588 28 c 4
 583 22 579 17 578 11 c 4
 577 8 576 7 574 5 c 4
 572 3 570 2 568 1 c 4
 565 1 562 3 558 4 c 4
 555 5 555 6 554 7 c 4
 552 9 552 11 552 15 c 4
 553 19 558 22 560 27 c 4
 561 30 561 30 562 31 c 5
 553 37 542 48 529 61 c 4
 510 80 491 98 473 118 c 5
 474 128 478 137 479 141 c 4
 480 142 479 142 480 143 c 4
 482 145 486 144 492 141 c 4
 505 134 525 116 550 93 c 4
 554 89 556 87 559 84 c 4
 570 73 579 64 586 56 c 5x80
362.26 227 m 4
 362.26 230 366.26 232 372.26 234 c 4xa0
 386.26 238 413.26 240 447.26 241 c 4
 452.26 241 456.26 241 460.26 241 c 4
 488.26 241 508.26 239 520.26 237 c 5
 520.26 235 520.26 232 520.26 230 c 4
 520.26 220 517.26 213 511.26 210 c 4
 500.26 205 482.26 204 455.26 204 c 4xc0
 428.26 204 402.26 204 375.26 205 c 5xa0
 369.26 213 365.26 221 363.26 225 c 4
 363.26 226 362.26 226 362.26 227 c 4
182.26 427 m 4
 182.26 430 186.26 432 192.26 434 c 4x82
 206.26 438 233.26 440 267.26 441 c 4
 272.26 441 276.26 441 280.26 441 c 4
 308.26 441 328.26 439 340.26 437 c 5
 340.26 435 340.26 432 340.26 430 c 4
 340.26 420 337.26 413 331.26 410 c 4
 320.26 405 302.26 404 275.26 404 c 4x84
 248.26 404 222.26 404 195.26 405 c 5x82
 189.26 413 185.26 421 183.26 425 c 4
 183.26 426 182.26 426 182.26 427 c 4
272.26 327 m 4
 272.26 330 276.26 332 282.26 334 c 4x88
 296.26 338 323.26 340 357.26 341 c 4
 362.26 341 366.26 341 370.26 341 c 4
 398.26 341 418.26 339 430.26 337 c 5
 430.26 335 430.26 332 430.26 330 c 4
 430.26 320 427.26 313 421.26 310 c 4
 410.26 305 392.26 304 365.26 304 c 4x90
 338.26 304 312.26 304 285.26 305 c 5x88
 279.26 313 275.26 321 273.26 325 c 4
 273.26 326 272.26 326 272.26 327 c 4
10.2598 338 m 5
 10.2598 339 l 5
 12.2598 350 26.2598 370 49.2598 398 c 4
 83.2598 441 78.2598 433 99.2598 461 c 4
 114.26 481 131.26 501 139.26 513 c 4
 147.26 525 156.26 536 165.26 548 c 4
 174.26 560 175.26 561 185.26 569 c 4
 194.25 576.192 200.007 580.151 206.164 580.151 c 4
 206.856 580.151 207.553 580.101 208.26 580 c 6
 209.26 580 l 5
 215.26 579 218.26 574 217.26 568 c 4
 216.26 565 216.26 564 212.26 558 c 4
 205.26 549 202.26 544 191.26 528 c 5
 173.26 507 175.26 504 133.26 455 c 4
 91.2598 406 91.2598 405 68.2598 377 c 5
 51.2598 358 40.2598 344 27.2598 334 c 4
 20.2598 329 17.2598 327 14.2598 328 c 4
 11.2598 329 9.25977 332 10.2598 338 c 5
EndSplineSet
EndChar

StartChar: visut4
Encoding: 58461 58461 104
Width: 618
VWidth: 345
Flags: W
HStem: 26 37<464.525 598.739> 27 29<454.263 533.671 549.566 606.774> 126 37<374.525 508.739> 127 29<364.263 443.671 459.566 516.774> 226 37<284.525 418.739> 227 29<274.263 353.671 369.566 426.774> 326 37<194.525 328.739> 327 29<184.263 263.671 279.566 336.774>
LayerCount: 2
Fore
SplineSet
360.26 149 m 0x10
 360.26 152 364.26 154 370.26 156 c 0x10
 384.26 160 411.26 162 445.26 163 c 0
 450.26 163 454.26 163 458.26 163 c 0
 486.26 163 506.26 161 518.26 159 c 1
 518.26 157 518.26 154 518.26 152 c 0
 518.26 142 515.26 135 509.26 132 c 0
 498.26 127 480.26 126 453.26 126 c 0x20
 426.26 126 400.26 126 373.26 127 c 1
 367.26 135 363.26 143 361.26 147 c 0
 361.26 148 360.26 148 360.26 149 c 0x10
450.26 49 m 0
 450.26 52 454.26 54 460.26 56 c 0x40
 474.26 60 501.26 62 535.26 63 c 0
 540.26 63 544.26 63 548.26 63 c 0
 576.26 63 596.26 61 608.26 59 c 1
 608.26 57 608.26 54 608.26 52 c 0
 608.26 42 605.26 35 599.26 32 c 0
 588.26 27 570.26 26 543.26 26 c 0x80
 516.26 26 490.26 26 463.26 27 c 1x40
 457.26 35 453.26 43 451.26 47 c 0
 451.26 48 450.26 48 450.26 49 c 0
270.26 249 m 0
 270.26 252 274.26 254 280.26 256 c 0x04
 294.26 260 321.26 262 355.26 263 c 0
 360.26 263 364.26 263 368.26 263 c 0
 396.26 263 416.26 261 428.26 259 c 1
 428.26 257 428.26 254 428.26 252 c 0
 428.26 242 425.26 235 419.26 232 c 0
 408.26 227 390.26 226 363.26 226 c 0x08
 336.26 226 310.26 226 283.26 227 c 1x04
 277.26 235 273.26 243 271.26 247 c 0
 271.26 248 270.26 248 270.26 249 c 0
180.26 349 m 0
 180.26 352 184.26 354 190.26 356 c 0x01
 204.26 360 231.26 362 265.26 363 c 0
 270.26 363 274.26 363 278.26 363 c 0
 306.26 363 326.26 361 338.26 359 c 1
 338.26 357 338.26 354 338.26 352 c 0
 338.26 342 335.26 335 329.26 332 c 0
 318.26 327 300.26 326 273.26 326 c 0x02
 246.26 326 220.26 326 193.26 327 c 1x01
 187.26 335 183.26 343 181.26 347 c 0
 181.26 348 180.26 348 180.26 349 c 0
10.2598 266 m 1
 10.2598 267 l 1
 12.2598 278 26.2598 298 49.2598 326 c 0
 83.2598 369 78.2598 361 99.2598 389 c 0
 114.26 409 131.26 429 139.26 441 c 0
 147.26 453 156.26 464 165.26 476 c 0
 174.26 488 175.26 489 185.26 497 c 0
 194.25 504.192 200.007 508.151 206.164 508.151 c 0
 206.856 508.151 207.553 508.101 208.26 508 c 2
 209.26 508 l 1
 215.26 507 218.26 502 217.26 496 c 0
 216.26 493 216.26 492 212.26 486 c 0
 205.26 477 202.26 472 191.26 456 c 1
 173.26 435 175.26 432 133.26 383 c 0
 91.2598 334 91.2598 333 68.2598 305 c 1
 51.2598 286 40.2598 272 27.2598 262 c 0
 20.2598 257 17.2598 255 14.2598 256 c 0x06
 11.2598 257 9.25977 260 10.2598 266 c 1
EndSplineSet
EndChar

StartChar: ds
Encoding: 58462 58462 105
Width: 197
VWidth: 323
Flags: W
HStem: 262 44<16.5312 52.8564 116.531 152.856>
VStem: 57 30<218.63 265.5> 157 30<218.63 265.5>
LayerCount: 2
Fore
SplineSet
110 170 m 0
 110 172 111 175 114 178 c 0
 119 184 129 196 143 212 c 0
 152 222 157 232 157 240 c 0
 157 244 155 248 153 252 c 0
 150 257 143 260 132 262 c 0
 121 264 116 266 115 270 c 0
 113 279 117 287 123 295 c 0
 128 302 136 306 144 306 c 0
 146 306 147 305 149 305 c 0
 166 301 178 292 183 281 c 0
 186 275 187 269 187 262 c 0
 187 256 186 250 184 243 c 0
 180 229 171 215 158 201 c 0
 145 187 131 177 117 167 c 0
 116 166 116 166 115 166 c 2
 111 168 l 2
 110 169 110 169 110 170 c 0
10 170 m 0
 10 172 11 175 14 178 c 0
 19 184 29 196 43 212 c 0
 52 222 57 232 57 240 c 0
 57 244 55 248 53 252 c 0
 50 257 43 260 32 262 c 0
 21 264 16 266 15 270 c 0
 13 279 17 287 23 295 c 0
 28 302 36 306 44 306 c 0
 46 306 47 305 49 305 c 0
 66 301 78 292 83 281 c 0
 86 275 87 269 87 262 c 0
 87 256 86 250 84 243 c 0
 80 229 71 215 58 201 c 0
 45 187 31 177 17 167 c 0
 16 166 16 166 15 166 c 2
 11 168 l 2
 10 169 10 169 10 170 c 0
EndSplineSet
EndChar

StartChar: dsN
Encoding: 58464 58464 106
Width: 204
VWidth: 327
Flags: W
HStem: 160 20<136 191.81> 262 44<16.5312 52.8564 116.637 153.902>
VStem: 57 30<218.63 265.5>
LayerCount: 2
Fore
SplineSet
110 169 m 0
 110 171 112 175 114 178 c 0
 116 180 116 179 120 183 c 0
 124 187 124 187 128 192 c 0
 134 198 138 206 142 212 c 0
 148 219 152 227 154 234 c 0
 156 241 158 246 154 252 c 1
 152 257 144 260 132 262 c 0
 122 264 116 266 114 270 c 1
 112 279 118 287 124 295 c 1
 128 302 136 306 144 306 c 0
 146 306 148 305 150 305 c 0
 166 301 178 292 184 281 c 1
 186 275 188 269 188 262 c 0
 188 256 186 250 184 243 c 0
 182 232 176 220 166 209 c 1
 158 198 146 189 136 180 c 1
 146 181 158 180 168 181 c 0
 180 182 188 181 192 177 c 0
 193 175 194 174 194 172 c 0
 194 169 191 167 188 164 c 1
 182 161 172 160 158 160 c 0
 152 160 148 160 142 160 c 0
 130 160 120 162 114 164 c 0
 112 165 110 167 110 169 c 0
10 170 m 0
 10 172 11 175 14 178 c 0
 19 184 29 196 43 212 c 0
 52 222 57 232 57 240 c 0
 57 244 55 248 53 252 c 0
 50 257 43 260 32 262 c 0
 21 264 16 266 15 270 c 0
 13 279 17 287 23 295 c 0
 28 302 36 306 44 306 c 0
 46 306 47 305 49 305 c 0
 66 301 78 292 83 281 c 0
 86 275 87 269 87 262 c 0
 87 256 86 250 84 243 c 0
 80 229 71 215 58 201 c 0
 45 187 31 177 17 167 c 0
 16 166 16 166 15 166 c 2
 11 168 l 2
 10 169 10 169 10 170 c 0
EndSplineSet
EndChar

StartChar: dsB
Encoding: 58465 58465 107
Width: 206
VWidth: 323
Flags: W
HStem: 259.5 48<17.1256 52.9814 121.516 161.935>
VStem: 57.125 30<219.13 266> 165.759 29.7803<204.269 257.069>
LayerCount: 2
Fore
SplineSet
40.125 64.5 m 0
 40.125 66.5 46.125 70.5 55.125 80.5 c 1
 70.125 94.5 68.125 95.5 82.125 109.5 c 0
 87.125 114.5 94.125 125.5 106.125 138.5 c 0
 118.125 151.5 128.125 165.5 138.125 181.5 c 0
 148.125 197.5 155.125 210.5 161.125 224.5 c 0
 164.262 231.819 165.759 238.318 165.759 243.568 c 0
 165.759 248.361 164.511 252.114 162.125 254.5 c 0
 158.125 258.5 150.125 259.5 139.125 259.5 c 0
 128.125 259.5 122.125 260.5 120.125 264.5 c 0
 116.125 273.5 120.125 283.5 125.125 293.5 c 0
 130.125 301.5 135.125 306.5 143.125 307.5 c 0
 145.125 307.5 147.125 307.5 149.125 307.5 c 0
 167.125 306.5 180.125 299.5 187.125 287.5 c 0
 191.125 282.5 193.125 276.5 194.125 269.5 c 0
 194.832 264.55 195.539 260.102 195.539 255.444 c 0
 195.539 253.516 195.418 251.55 195.125 249.5 c 0
 193.125 222.5 177.125 191.5 146.125 153.5 c 0
 115.125 115.5 87.125 88.5 62.125 72.5 c 0
 60.125 71.5 57.125 68.5 51.125 65.5 c 0
 48.125 63.5 46.125 63.5 44.125 63.5 c 0
 42.125 63.5 40.125 63.5 40.125 64.5 c 0
10.125 170.5 m 0
 10.125 172.5 11.125 175.5 14.125 178.5 c 0
 19.125 184.5 29.125 196.5 43.125 212.5 c 0
 52.125 222.5 57.125 232.5 57.125 240.5 c 0
 57.125 244.5 55.125 248.5 53.125 252.5 c 0
 50.125 257.5 43.125 260.5 32.125 262.5 c 0
 21.125 264.5 16.125 266.5 15.125 270.5 c 0
 13.125 279.5 17.125 287.5 23.125 295.5 c 0
 28.125 302.5 36.125 306.5 44.125 306.5 c 0
 46.125 306.5 47.125 305.5 49.125 305.5 c 0
 66.125 301.5 78.125 292.5 83.125 281.5 c 0
 86.125 275.5 87.125 269.5 87.125 262.5 c 0
 87.125 256.5 86.125 250.5 84.125 243.5 c 0
 80.125 229.5 71.125 215.5 58.125 201.5 c 0
 45.125 187.5 31.125 177.5 17.125 167.5 c 0
 16.125 166.5 16.125 166.5 15.125 166.5 c 2
 11.125 168.5 l 2
 10.125 169.5 10.125 169.5 10.125 170.5 c 0
EndSplineSet
EndChar

StartChar: taB
Encoding: 58466 58466 108
Width: 188
VWidth: 289
Flags: W
HStem: 0 26<47.0945 86.2998>
VStem: 10 27<27.0952 77.8809>
LayerCount: 2
Fore
SplineSet
10 24 m 2
 10 24 10 24 10 25 c 0
 11 36 11 47 15 58 c 0
 19 70 19 70 23 81 c 2
 29 94 l 2
 34 105 40 104 46 95 c 0
 52 86 52 77 47 67 c 0
 42 57 39 47 37 40 c 0
 35 33 37 29 47 27 c 0
 49 27 52 26 54 26 c 0
 67 26 81 33 96 47 c 0
 114 64 131 81 145 99 c 1
 155 109 156 116 168 127 c 0
 170 129 172 131 174 131 c 0
 177 131 178 128 178 124 c 0
 178 122 178 118 177 115 c 0
 167 79 132 38 100 17 c 0
 84 6 68 0 52 0 c 1
 37 2 l 1
 20 6 10 13 10 24 c 2
EndSplineSet
EndChar

StartChar: suv1
Encoding: 58467 58467 109
Width: 198
VWidth: 344
Flags: W
HStem: 58 37<43 156>
VStem: 10 33<35.1399 58.75 91.0761 124.906> 12 28<32.0959 42.8601 43.2812 58.7663 91.0781 124.906> 156 32<37.0945 59.9026> 156 24<45.1399 60 94 118.719 119.278 129.904>
LayerCount: 2
Fore
SplineSet
10 117 m 0xc0
 10 120 11 123 12 125 c 0
 14 127 17 129 22 131 c 0
 25 132 26 132 28 132 c 0
 31 132 33 130 36 127 c 1
 38 123 38 118 40 112 c 0xa0
 42 105 42 100 43 96 c 1
 43 91 l 1
 58 93 79 94 104 95 c 0
 109 95 113 95 117 95 c 0
 132 95 145 95 156 94 c 1
 156 99 l 1
 158 105 156 111 158 117 c 0
 160 123 162 128 166 130 c 0
 168 131 170 131 172 131 c 0
 176 131 180 130 186 127 c 1
 187 124 187 122 187 119 c 0
 187 113 185 107 184 101 c 0
 182 93 179 84 180 75 c 0xc8
 181 66 183 59 186 53 c 0
 187 50 188 48 188 45 c 0x90
 188 42 187 39 186 37 c 0
 184 35 181 33 176 31 c 0
 173 30 172 30 170 30 c 0
 167 30 165 32 162 35 c 1
 160 39 160 44 158 50 c 0
 157 54 156 57 156 60 c 1
 145 58 131 58 112 58 c 0
 88 58 65 59 41 59 c 1
 41 54 42 50 40 45 c 0
 38 39 36 34 32 32 c 0
 30 31 28 31 26 31 c 0
 22 31 18 32 12 35 c 1
 11 38 11 40 11 43 c 0
 11 49 13 55 14 61 c 0
 16 69 19 78 18 87 c 0
 17 96 15 103 12 109 c 0xa8
 11 112 10 114 10 117 c 0xc0
EndSplineSet
EndChar

StartChar: gr
Encoding: 58468 58468 110
Width: 145
VWidth: 293
Flags: W
HStem: -13 119
VStem: 10 125
LayerCount: 2
Fore
SplineSet
10 81 m 1
 11 91 13 99 15 103 c 0
 16 105 19 106 21 106 c 0
 23 106 26 105 29 103 c 0
 42 96 62 79 87 55 c 0
 112 31 127 12 135 1 c 1
 128 -8 120 -13 114 -13 c 0
 112 -13 112 -13 110 -12 c 0
 99 -7 84 3 66 23 c 0
 48 43 28 61 10 81 c 1
EndSplineSet
EndChar

StartChar: grN
Encoding: 58470 58470 111
Width: 174
VWidth: 350
Flags: W
HStem: -14 147
VStem: 10 152
LayerCount: 2
Fore
SplineSet
10 111 m 1
 11 121 13 129 15 133 c 0
 16 135 19 136 21 136 c 0
 23 136 26 135 29 133 c 0
 42 126 62 109 87 85 c 0
 101 71 113 59 121 49 c 1
 122 50 l 1
 126 52 129 55 136 58 c 0
 142 61 146 64 150 65 c 1
 156 65 158 65 162 58 c 0
 164 53 164 49 164 46 c 1
 162 42 158 38 152 36 c 0
 146 34 139 30 132 25 c 0
 125 20 120 12 115 5 c 0
 110 -2 106 -9 97 -14 c 1
 87 -10 83 -5 82 -1 c 0
 81 3 83 8 86 14 c 0
 89 19 94 21 97 25 c 1
 88 31 78 40 66 53 c 0
 48 73 28 91 10 111 c 1
EndSplineSet
EndChar

StartChar: tsM
Encoding: 58471 58471 112
Width: 317
VWidth: 323
Flags: W
HStem: 132 43<23.2842 52.8564> 262 44<136.531 172.856 236.531 272.856>
VStem: 57 30<88.6302 135.5> 177 30<218.63 265.5> 277 30<218.63 265.5>
LayerCount: 2
Fore
SplineSet
230 170 m 0
 230 172 231 175 234 178 c 0
 239 184 249 196 263 212 c 0
 272 222 277 232 277 240 c 0
 277 244 275 248 273 252 c 0
 270 257 263 260 252 262 c 0
 241 264 236 266 235 270 c 0
 233 279 237 287 243 295 c 0
 248 302 256 306 264 306 c 0
 266 306 267 305 269 305 c 0
 286 301 298 292 303 281 c 0
 306 275 307 269 307 262 c 0
 307 256 306 250 304 243 c 0
 300 229 291 215 278 201 c 0
 265 187 251 177 237 167 c 0
 236 166 236 166 235 166 c 2
 231 168 l 2
 230 169 230 169 230 170 c 0
130 170 m 0
 130 172 131 175 134 178 c 0
 139 184 149 196 163 212 c 0
 172 222 177 232 177 240 c 0
 177 244 175 248 173 252 c 0
 170 257 163 260 152 262 c 0
 141 264 136 266 135 270 c 0
 133 279 137 287 143 295 c 0
 148 302 156 306 164 306 c 0
 166 306 167 305 169 305 c 0
 186 301 198 292 203 281 c 0
 206 275 207 269 207 262 c 0
 207 256 206 250 204 243 c 0
 200 229 191 215 178 201 c 0
 165 187 151 177 137 167 c 0
 136 166 136 166 135 166 c 2
 131 168 l 2
 130 169 130 169 130 170 c 0
10 40 m 0
 10 42 11 45 14 48 c 0
 19 54 29 66 43 82 c 0
 52 92 57 102 57 110 c 0
 57 114 55 118 53 122 c 0
 50 127 43 130 32 132 c 0
 21 134 16 136 15 140 c 0
 13 149 17 157 23 165 c 0
 29 173 39 177 49 175 c 0
 66 171 78 162 83 151 c 0
 86 145 87 139 87 132 c 0
 87 126 86 120 84 113 c 0
 80 99 71 85 58 71 c 0
 45 57 31 47 17 37 c 0
 16 36 16 36 15 36 c 2
 11 38 l 2
 10 39 10 39 10 40 c 0
EndSplineSet
EndChar

